<svg width="42" height="38" viewBox="0 0 42 38" fill="none" xmlns="http://www.w3.org/2000/svg">
<path fill-rule="evenodd" clip-rule="evenodd" d="M21.0085 5.24785C28.0852 5.24785 33.8219 10.8716 33.8219 17.8089C33.8219 24.7462 28.0852 30.37 21.0085 30.37C13.9318 30.37 8.19508 24.7462 8.19508 17.8089C8.19508 10.8716 13.9318 5.24785 21.0085 5.24785ZM21.0085 4.66336C28.4144 4.66336 34.4182 10.5488 34.4182 17.8089C34.4182 25.069 28.4144 30.9544 21.0085 30.9544C13.6026 30.9544 7.59918 25.069 7.59918 17.8089C7.59918 10.5488 13.6029 4.66336 21.0085 4.66336Z" fill="white"/>
<path d="M19.2865 16.9997V16.9891L19.2868 16.9046H19.3726L21.065 16.9073V17.0762L19.4588 17.0739V17.0845H19.3858V17.169L18.7064 17.1673L18.7077 17.1961L18.7118 17.2838H18.6215L16.3874 17.2842L16.3911 17.535L16.3925 17.6211L16.3046 17.6205L14.8314 17.6119L14.8226 18.1518L16.2619 18.1538L16.3484 18.1541L16.348 18.2383L16.3477 18.3663H19.7234V18.3502L19.8958 18.3515L19.8951 18.4518L19.8945 18.536H19.809H16.3497L16.3464 18.7515V18.7525L16.346 18.8376H16.345L16.3379 19.2743L21.0654 19.2766V19.4456L16.275 19.4432L16.2615 19.7162L16.2575 19.797L16.1753 19.7967L14.7203 19.7914L14.6247 19.7924L14.7105 19.9063L14.7263 19.9274V19.9297L16.1821 19.9277V20.0908L16.2683 20.0921L16.1477 27.4941H17.1049V27.5921H16.1336L16.1198 27.605L16.1009 27.6221L17.2038 27.6211V27.6954H17.2298V27.7934L16.0323 27.7957L16.0191 27.8977L16.0114 27.9574L15.9515 27.97L15.9232 27.9759L15.9185 28.0739L15.9144 28.1548L15.8319 28.1545L14.0032 28.1462L12.7606 28.1746C12.7016 28.1297 12.6437 28.0838 12.5858 28.0376L13.6797 28.0287L14.528 27.8858L14.627 20.0865L14.5594 20.0756L14.5567 20.0063L14.556 19.9865L14.456 19.8538L14.4398 19.8324L14.4392 19.8056L14.4368 19.7116L14.4348 19.6261L14.5223 19.6251L14.6351 19.6238L14.6388 19.4234L7.69949 19.4182C7.69242 19.3617 7.68602 19.3056 7.67963 19.2492L14.6418 19.2548L14.6428 19.205L14.3557 18.7898L14.3422 18.7703L14.3409 18.7472L14.3324 18.598L14.1557 18.2723L14.0877 18.1469L14.2328 18.1482L14.6506 18.1518L14.659 17.632L14.6206 17.5729L14.5354 17.4423L14.6937 17.4432L16.2181 17.4522L16.2157 17.2865L16.1891 17.2492L16.0949 17.1162H16.2602L18.5071 17.1159L18.4051 16.9987L18.5926 16.999L19.2871 17.0007L19.2865 16.9997ZM13.9783 29.0043L21.065 28.9951V29.164L14.2648 29.1729C14.1685 29.1178 14.0729 29.0614 13.9779 29.0043H13.9783ZM18.8555 27.6205L20.2705 27.6175V27.6944H20.2877V27.7924H18.8417V27.6944H18.8555V27.6201V27.6205ZM18.972 27.4957L20.1688 27.497V27.5951L18.972 27.5937V27.4957ZM14.8112 19.4231L14.8075 19.6228L16.0932 19.6274L16.105 19.3891L16.1073 19.3436L16.1474 19.3201L16.1652 19.3099L16.1726 18.8366L14.5903 18.8271L14.8011 19.1317L14.8166 19.1538L14.8159 19.1802L14.8132 19.3396L14.8119 19.4228L14.8112 19.4231ZM14.7991 20.0984L14.6994 27.9578L14.6991 27.9799L15.7498 27.9845L15.7538 27.9023L15.7569 27.8373L15.8222 27.8234L15.8555 27.8165L15.8811 27.6188L15.8851 27.5885L15.9077 27.5677L15.9754 27.5053L16.0962 20.0964L14.7994 20.098L14.7991 20.0984ZM16.8877 19.7475L19.206 19.7244L19.2073 19.8934L16.8891 19.9165L16.8877 19.7475ZM19.8955 19.7221L21.065 19.7149L21.0657 19.8838L19.8961 19.8911L19.8955 19.7221ZM14.5085 18.6574L16.174 18.6673L16.175 18.3225L14.8196 18.3208V18.3215L14.7341 18.3208L14.3762 18.3175L14.4934 18.5337L14.5021 18.5498L14.5031 18.569L14.5082 18.6578L14.5085 18.6574Z" fill="white"/>
<path d="M19.9446 19.7989L19.9641 19.8682L19.9658 19.8738V19.88L19.9705 20.0307L19.9712 20.0489L19.9597 20.0631L19.9163 20.1161L19.9402 20.1847L19.9507 20.2147L19.9268 20.2365L19.9066 20.255L19.8904 20.2698L19.8685 20.2678L19.6726 20.2517L19.4019 20.249L19.2033 20.3021L19.1467 20.3173L19.1406 20.2599L19.1332 20.1907L19.1319 20.1781L19.1369 20.1666L19.1528 20.1307L19.1006 20.0723L19.0885 20.0588L19.0881 20.0406L19.0861 19.8949L19.0858 19.8767L19.0976 19.8629L19.1649 19.7831L19.1948 19.7168L19.207 19.6901L19.2369 19.6881C19.3399 19.6812 19.4423 19.6789 19.5456 19.6802C19.6493 19.6815 19.752 19.6861 19.8574 19.6927L19.884 19.6944L19.8975 19.7171L19.9402 19.7887L19.9432 19.794L19.9449 19.8006L19.9446 19.7989ZM19.8662 19.8886L19.85 19.8316L19.8237 19.7877C19.7271 19.7821 19.6342 19.7781 19.5436 19.7768C19.4541 19.7758 19.3645 19.7775 19.273 19.7831L19.2521 19.8286L19.249 19.8352L19.245 19.8401L19.1851 19.911L19.1868 20.0208L19.2477 20.0891L19.2686 20.1122L19.2561 20.1406L19.2336 20.1923L19.3817 20.1528L19.3884 20.1511H19.3952L19.6763 20.1541H19.68L19.8271 20.1663L19.8119 20.1224L19.8032 20.097L19.8204 20.0759L19.8695 20.0159L19.8655 19.8893L19.8662 19.8886ZM16.2282 20.1943L16.3056 20.1715L16.312 20.1696H16.3194L16.6803 20.1653H16.6857L16.6901 20.1663L16.8975 20.2055L16.8991 19.9875L16.8931 19.9203L16.848 19.8616L16.8439 19.8563L16.8419 19.8513L16.8251 19.8128C16.7224 19.8048 16.6204 19.8015 16.5197 19.8025C16.4117 19.8032 16.3032 19.8091 16.1945 19.819L16.1841 19.8246L16.1854 19.9499L16.2006 19.9585L16.2258 19.9724L16.2261 20.0007L16.2282 20.1943ZM16.3278 20.2672L16.1932 20.3071L16.1295 20.3259L16.1289 20.2603L16.1265 20.0294L16.1113 20.0212L16.0864 20.0073L16.0861 19.979L16.0841 19.7959L16.0837 19.7669L16.11 19.7527L16.1554 19.728L16.1642 19.7234L16.1746 19.7224C16.2894 19.7115 16.4042 19.7053 16.519 19.7043C16.6352 19.7033 16.75 19.7076 16.8638 19.7171L16.8938 19.7198L16.9055 19.7468L16.9321 19.8075L16.982 19.8724L16.9907 19.884L16.9921 19.8978L16.9995 19.9793V19.9796V19.9839L16.9971 20.2649L16.9968 20.3239L16.9379 20.3127L16.6763 20.2632L16.3285 20.2675L16.3278 20.2672Z" fill="white"/>
<path fill-rule="evenodd" clip-rule="evenodd" d="M8.4812 22.5059L14.6603 22.4419L14.6809 22.6536L8.55123 22.6817C8.52732 22.6233 8.50443 22.5646 8.4812 22.5056V22.5059ZM8.7135 23.0619L14.6469 22.9877L14.6738 23.1984L8.79565 23.2439C8.7677 23.1836 8.74077 23.1229 8.7135 23.0619Z" fill="white"/>
<path fill-rule="evenodd" clip-rule="evenodd" d="M13.2709 22.2465L14.2799 22.2485L14.2823 20.9611L13.2733 20.9591L13.2709 22.2465ZM13.3965 21.7452L13.7271 21.7459L13.7285 21.0676L13.3975 21.0669L13.3965 21.7449V21.7452ZM13.3965 22.136L13.7244 22.1367L13.7248 21.8626L13.3972 21.862L13.3965 22.136ZM13.8261 21.7452L14.1567 21.7459L14.1577 21.0676L13.8271 21.0669L13.8261 21.7449V21.7452ZM13.8261 22.136L14.1537 22.1367L14.154 21.8626L13.8264 21.862L13.8261 22.136Z" fill="white"/>
<path d="M21.065 17.5294C21.0452 17.5277 21.0253 17.5267 21.0048 17.5267V17.5271V17.5267C20.8001 17.5264 20.6146 17.6073 20.4803 17.7386C20.3459 17.8696 20.2628 18.0512 20.2624 18.2515C20.2621 18.4518 20.3446 18.6337 20.4786 18.7654C20.6122 18.897 20.7974 18.9786 21.0018 18.9789C21.0233 18.9789 21.0442 18.9779 21.065 18.9762V19.1271C21.0442 19.1284 21.023 19.1294 21.0018 19.1291C20.7546 19.1287 20.5314 19.03 20.3698 18.8713C20.2082 18.7126 20.1086 18.4931 20.1093 18.2512C20.1099 18.0089 20.2103 17.7898 20.3722 17.6317C20.5341 17.4736 20.758 17.3759 21.0048 17.3762V17.3759V17.3762C21.025 17.3762 21.0452 17.3769 21.065 17.3782V17.5291V17.5294Z" fill="white"/>
<path fill-rule="evenodd" clip-rule="evenodd" d="M19.9318 18.0043L15.8083 18.003L15.8168 18.126L15.9309 18.3054L15.9319 18.4587L16.2642 18.4571V18.4996H16.4022V18.5484L16.4019 18.5976H16.4521L16.6716 18.5979H16.7217V18.5488V18.4996H16.9587L16.9584 18.5474V18.5966H17.0086L17.2277 18.5969H17.2779V18.5481V18.4996H17.5146V18.5504V18.5992H17.5644L17.7839 18.5999H17.8341V18.5507V18.4996H18.0095L18.0091 18.5497V18.5986L18.0593 18.5989L18.2788 18.5992H18.3286V18.5501V18.4996H18.4801V18.5478V18.5969H18.5299L18.7494 18.5972H18.7993V18.5484L18.7996 18.4996H18.9528V18.5507L18.9525 18.5995H19.0026L19.2221 18.5999H19.2719V18.5511L19.2723 18.4996H19.4184V18.5468L19.4181 18.5959H19.4682L19.6877 18.5962H19.7376V18.5471V18.4996H19.8086H19.8581L19.9318 18.0043Z" fill="white"/>
<path fill-rule="evenodd" clip-rule="evenodd" d="M11.6479 22.2465L12.6569 22.2485L12.6592 20.9611L11.6502 20.9591L11.6479 22.2465ZM11.7735 21.7452L12.1041 21.7459L12.1051 21.0676L11.7745 21.0669L11.7735 21.7449V21.7452ZM11.7735 22.136L12.1014 22.1367L12.1017 21.8626L11.7741 21.862L11.7735 22.136ZM12.2027 21.7452L12.5333 21.7459L12.5343 21.0676L12.2037 21.0669L12.2027 21.7449V21.7452ZM12.2027 22.136L12.5306 22.1367L12.531 21.8626L12.2034 21.862L12.2027 22.136Z" fill="white"/>
<path fill-rule="evenodd" clip-rule="evenodd" d="M10.0369 22.2465L11.0459 22.2485L11.0483 20.9611L10.0393 20.9591L10.0369 22.2465ZM10.1625 21.7452L10.4931 21.7459L10.4941 21.0676L10.1635 21.0669L10.1625 21.7449V21.7452ZM10.1625 22.136L10.4901 22.1367L10.4907 21.8626L10.1628 21.862L10.1625 22.136ZM10.5917 21.7452L10.9224 21.7459L10.9234 21.0676L10.5928 21.0669L10.5917 21.7449V21.7452ZM10.5917 22.136L10.9193 22.1367L10.92 21.8626L10.5921 21.862L10.5917 22.136Z" fill="white"/>
<path fill-rule="evenodd" clip-rule="evenodd" d="M8.38593 22.2465L9.39491 22.2485L9.39726 20.9611L8.38828 20.9591L8.38593 22.2465ZM8.5115 21.7452L8.8421 21.7459L8.84311 21.0676L8.51251 21.0669L8.5115 21.7449V21.7452ZM8.5115 22.136L8.83907 22.1367L8.83975 21.8626L8.51184 21.862L8.5115 22.136ZM8.94075 21.7452L9.27135 21.7459L9.2727 21.0676L8.94209 21.0669L8.94108 21.7449L8.94075 21.7452ZM8.94075 22.136L9.26832 22.1367L9.26899 21.8626L8.94108 21.862L8.94075 22.136Z" fill="white"/>
<path fill-rule="evenodd" clip-rule="evenodd" d="M13.2709 24.8693L14.2799 24.8713L14.2823 23.5838L13.2733 23.5818L13.2709 24.8693ZM13.3965 24.368L13.7271 24.3687L13.7285 23.6903L13.3975 23.6897L13.3965 24.3677V24.368ZM13.3965 24.7588L13.7244 24.7595L13.7248 24.4854L13.3972 24.4848L13.3965 24.7588ZM13.8261 24.368L14.1567 24.3687L14.1577 23.6903L13.8271 23.6897L13.8261 24.3677V24.368ZM13.8261 24.7588L14.1537 24.7595L14.154 24.4854L13.8264 24.4848L13.8261 24.7588Z" fill="white"/>
<path fill-rule="evenodd" clip-rule="evenodd" d="M11.6479 24.8693L12.6569 24.8713L12.6592 23.5838L11.6502 23.5818L11.6479 24.8693ZM11.7735 24.368L12.1041 24.3687L12.1051 23.6903L11.7745 23.6897L11.7735 24.3677V24.368ZM11.7735 24.7588L12.1014 24.7595L12.1017 24.4854L11.7741 24.4848L11.7735 24.7588ZM12.2027 24.368L12.5333 24.3687L12.5343 23.6903L12.2037 23.6897L12.2027 24.3677V24.368ZM12.2027 24.7588L12.5306 24.7595L12.531 24.4854L12.2034 24.4848L12.2027 24.7588Z" fill="white"/>
<path fill-rule="evenodd" clip-rule="evenodd" d="M10.0369 24.8693L11.0459 24.8713L11.0483 23.5838L10.0393 23.5818L10.0369 24.8693ZM10.1625 24.368L10.4931 24.3687L10.4941 23.6903L10.1635 23.6897L10.1625 24.3677V24.368ZM10.1625 24.7588L10.4901 24.7595L10.4907 24.4854L10.1628 24.4848L10.1625 24.7588ZM10.5917 24.368L10.9224 24.3687L10.9234 23.6903L10.5928 23.6897L10.5917 24.3677V24.368ZM10.5917 24.7588L10.9193 24.7595L10.92 24.4854L10.5921 24.4848L10.5917 24.7588Z" fill="white"/>
<path fill-rule="evenodd" clip-rule="evenodd" d="M13.2709 27.4429L14.2799 27.4449L14.2823 26.1574L13.2733 26.1558L13.2709 27.4432V27.4429ZM13.3965 26.9416L13.7271 26.9423L13.7285 26.264L13.3975 26.2633L13.3965 26.9413V26.9416ZM13.3965 27.3324L13.7244 27.3331L13.7248 27.059L13.3972 27.0584L13.3965 27.3324ZM13.8261 26.9416L14.1567 26.9423L14.1577 26.264L13.8271 26.2633L13.8261 26.9413V26.9416ZM13.8261 27.3324L14.1537 27.3331L14.154 27.059L13.8264 27.0584L13.8261 27.3324Z" fill="white"/>
<path fill-rule="evenodd" clip-rule="evenodd" d="M11.8879 27.4432L12.6572 27.4445L12.6596 26.1571L11.6506 26.1555L11.6486 27.2203C11.7273 27.2955 11.8071 27.37 11.8879 27.4432ZM11.7738 26.9413L12.1044 26.942L12.1054 26.2636L11.7748 26.263L11.7738 26.941V26.9413ZM11.7738 27.3321L12.1017 27.3327L12.102 27.0587L11.7745 27.058L11.7738 27.3321ZM12.203 26.9413L12.5336 26.942L12.5347 26.2636L12.2041 26.263L12.203 26.941V26.9413ZM12.203 27.3321L12.531 27.3327L12.5313 27.0587L12.2037 27.058L12.203 27.3321Z" fill="white"/>
<path fill-rule="evenodd" clip-rule="evenodd" d="M24.7926 28.0716L24.805 27.9159L24.8629 27.8786L24.9481 27.6086L25.0188 27.5423L25.103 20.0977L22.843 20.0799L22.8066 20.1208L22.8342 20.1852L22.8268 20.2545L22.9238 27.5442L23.0072 27.6093L23.0271 27.7436L23.086 27.901L23.1264 27.9132V28.0667L24.7922 28.0716H24.7926ZM24.5542 22.0109L24.5546 22.1987L24.3957 22.199L24.396 22.3076L24.2724 22.3079L24.2721 22.1994L23.3742 22.201L23.3745 22.3073H23.2584L23.2581 22.201L23.117 22.2013L23.1167 22.0135C23.5964 22.0126 24.0775 22.0116 24.5546 22.0109H24.5542ZM23.3025 21.9076L23.2998 20.3561L24.3189 20.3541L24.3216 21.9076H23.3025ZM24.5593 24.771L24.5596 24.9591L24.4007 24.9594L24.401 25.068L24.2775 25.0683L24.2771 24.9597L23.3789 24.9611L23.3793 25.0673L23.2631 25.0677L23.2628 24.9614L23.1214 24.9617L23.121 24.7736C23.6008 24.7729 24.0819 24.772 24.5589 24.771H24.5593ZM23.3079 24.6677L23.3049 23.1162L24.3239 23.1145L24.327 24.6677H23.3079ZM24.3324 27.4281L23.3133 27.43L23.3102 25.9106L24.3293 25.9086L24.3324 27.4281ZM21.8111 28.0716L21.065 28.073H21.0085H20.9519L20.2059 28.0716L20.2012 27.8954L20.1392 27.7439L20.1156 27.6102L20.0443 27.5459L19.952 23.8928L19.8719 20.2188L19.8921 20.2003L19.8594 20.1063L19.878 20.0835L20.9512 20.0746V20.0736L21.0078 20.0739L21.0644 20.0736V20.0746L22.1373 20.0835L22.1562 20.1063L22.1235 20.2003L22.1437 20.2188L22.0636 23.8928L21.9713 27.5459L21.9003 27.6102L21.8767 27.7439L21.8148 27.8954L21.8104 28.0716H21.8111ZM21.065 27.9165V27.9162L21.566 27.9139L21.5717 25.9142L21.065 25.9129V25.9126L21.0085 25.9129L20.9519 25.9126V25.9129L20.4449 25.9142L20.451 27.9139L20.9519 27.9162V27.9165L21.0085 27.9162L21.065 27.9165ZM21.065 24.9604L21.4835 24.9611V25.0673L21.5997 25.0677V24.9614L21.7411 24.9617L21.7414 24.7736L21.065 24.7726L20.9519 24.7723L20.3035 24.771L20.3028 24.9591L20.4621 24.9594L20.4617 25.068L20.5853 25.0683V24.9597L20.9516 24.9604H21.0647H21.065ZM21.065 24.6677H21.5303L21.533 23.1162L21.065 23.1155L20.9519 23.1152L20.5139 23.1145L20.5109 24.6677H20.9519H21.065ZM21.065 22.1947L21.4835 22.1954V22.3017L21.5997 22.302V22.1957H21.7411L21.7414 22.0079L21.065 22.0069L20.9519 22.0066L20.3035 22.0056L20.3028 22.1937H20.4621L20.4617 22.3027L20.5853 22.303V22.1941L20.9516 22.1947L21.0647 22.1951L21.065 22.1947ZM21.065 21.902H21.5303L21.533 20.3505L21.065 20.3495H20.9519L20.5139 20.3489L20.5109 21.902H20.9519H21.065ZM17.4627 22.0109L17.4624 22.1987L17.6213 22.199L17.621 22.3076L17.7445 22.3079L17.7449 22.1994L18.6427 22.201L18.6424 22.3073H18.7586L18.7589 22.201L18.9 22.2013L18.9003 22.0135C18.4205 22.0126 17.9394 22.0116 17.4624 22.0109H17.4627ZM18.7141 21.9076L18.7168 20.3561L17.6977 20.3541L17.6947 21.9076H18.7141ZM17.4573 24.771L17.457 24.9591L17.6159 24.9594L17.6156 25.068L17.7391 25.0683L17.7395 24.9597L18.6374 24.9611V25.0673L18.7535 25.0677V24.9614L18.8949 24.9617L18.8952 24.7736C18.4155 24.7729 17.9344 24.772 17.4573 24.771ZM18.7087 24.6677L18.7118 23.1162L17.6927 23.1145L17.6896 24.6677H18.7087ZM17.6843 27.4281L18.7033 27.43L18.7064 25.9106L17.687 25.9086L17.6839 27.4281H17.6843ZM17.2244 28.0716L17.2119 27.9159L17.1537 27.8786L17.0685 27.6086L16.9978 27.5423L16.9136 20.0977L19.1737 20.0799L19.2104 20.1208L19.1824 20.1852L19.1898 20.2545L19.0929 27.5442L19.0094 27.6093L18.9895 27.7436L18.9306 27.901L18.8902 27.9132L18.8899 28.0667L17.224 28.0716H17.2244Z" fill="white"/>
<path d="M22.7305 16.9997V16.9891L22.7302 16.9046H22.6443L20.9519 16.9073V17.0762L22.5582 17.0739V17.0845H22.6312V17.169L23.3103 17.1673L23.3089 17.1961L23.3052 17.2838H23.3951L25.6292 17.2842L25.6255 17.535L25.6242 17.6211L25.712 17.6205L27.1853 17.6119L27.194 18.1518L25.7548 18.1538L25.6683 18.1541L25.6686 18.2383L25.6689 18.3663H22.2932V18.3502L22.1208 18.3515L22.1218 18.4518L22.1225 18.536H22.208H25.6673L25.6706 18.7515V18.7525L25.671 18.8376H25.672L25.679 19.2743L20.9516 19.2766V19.4456L25.742 19.4432L25.7555 19.7162L25.7595 19.797L25.8416 19.7967L27.2967 19.7914L27.3923 19.7924L27.3065 19.9063L27.2906 19.9274V19.9297L25.8349 19.9277V20.0908L25.7487 20.0921L25.8692 27.4941H24.9121V27.5921H25.8834L25.8972 27.605L25.916 27.6221L24.8131 27.6211V27.6954H24.7872V27.7934L25.9847 27.7957L25.9979 27.8977L26.0056 27.9574L26.0655 27.97L26.0938 27.9759L26.0985 28.0739L26.1022 28.1548L26.185 28.1545L28.0212 28.1462L29.2547 28.1756C29.319 28.1264 29.3827 28.0763 29.446 28.0258L28.2437 28.0119L27.4889 27.8858L27.3903 20.0865L27.458 20.0756L27.4607 20.0063L27.4613 19.9865L27.5613 19.8538L27.5775 19.8324L27.5782 19.8056L27.5805 19.7116L27.5825 19.6261L27.495 19.6251L27.3822 19.6238L27.3785 19.4234L34.3178 19.4182C34.3249 19.3617 34.3313 19.3056 34.3374 19.2492L27.3751 19.2548L27.3741 19.205L27.6613 18.7898L27.6748 18.7703L27.6761 18.7472L27.6845 18.598L27.8613 18.2723L27.9296 18.1469L27.7845 18.1482L27.3667 18.1518L27.3583 17.632L27.3967 17.5729L27.4819 17.4423L27.3236 17.4432L25.7992 17.4522L25.8019 17.2865L25.8282 17.2492L25.9228 17.1162H25.7571L23.5102 17.1159L23.6123 16.9987L23.4247 16.999L22.7302 17.0007L22.7305 16.9997ZM28.0387 29.0043L20.9519 28.9951V29.164L27.7519 29.1729C27.8482 29.1178 27.9438 29.0617 28.0387 29.0043ZM23.1615 27.6205L21.7465 27.6175V27.6944H21.7293V27.7924H23.1753V27.6944H23.1615V27.6201V27.6205ZM23.045 27.4957L21.8481 27.497V27.5951L23.045 27.5937V27.4957ZM27.2061 19.4231L27.2098 19.6228L25.9241 19.6274L25.9123 19.3891L25.91 19.3436L25.8699 19.3201L25.8521 19.3099L25.8447 18.8366L27.427 18.8271L27.2166 19.1317L27.2011 19.1538L27.2014 19.1802L27.2041 19.3396L27.2055 19.4228L27.2061 19.4231ZM27.2183 20.0984L27.3179 27.9578L27.3183 27.9799L26.2679 27.9845L26.2638 27.9023L26.2608 27.8373L26.1958 27.8234L26.1621 27.8165L26.1366 27.6188L26.1325 27.5885L26.11 27.5677L26.0423 27.5053L25.9214 20.0964L27.2183 20.098V20.0984ZM25.1296 19.7475L22.8113 19.7244L22.81 19.8934L25.1283 19.9165L25.1296 19.7475ZM22.1222 19.7221L20.9526 19.7149L20.9519 19.8838L22.1215 19.8911L22.1222 19.7221ZM27.5091 18.6574L25.8437 18.6673L25.8423 18.3225L27.1977 18.3208V18.3215L27.2832 18.3208L27.6411 18.3175L27.5236 18.5337L27.5149 18.5498L27.5139 18.569L27.5088 18.6578L27.5091 18.6574Z" fill="white"/>
<path d="M22.0724 19.7989L22.0528 19.8682L22.0512 19.8738V19.88L22.0464 20.0307L22.0458 20.0489L22.0576 20.0631L22.101 20.1161L22.0771 20.1847L22.0666 20.2147L22.0906 20.2365L22.1108 20.255L22.1272 20.2698L22.1491 20.2678L22.3451 20.2517L22.6157 20.249L22.8144 20.3021L22.8709 20.3173L22.877 20.2599L22.8844 20.1907L22.8858 20.1781L22.8807 20.1666L22.8649 20.1307L22.9171 20.0723L22.9292 20.0588L22.9295 20.0406L22.9319 19.8949L22.9322 19.8767L22.9204 19.8629L22.8531 19.7831L22.8231 19.7168L22.811 19.6901L22.781 19.6881C22.678 19.6812 22.5757 19.6789 22.4723 19.6802C22.3686 19.6815 22.266 19.6861 22.1606 19.6927L22.134 19.6944L22.1205 19.7171L22.0778 19.7887L22.0747 19.794L22.073 19.8006L22.0724 19.7989ZM22.1508 19.8886L22.167 19.8316L22.1932 19.7877C22.2899 19.7821 22.3828 19.7781 22.4733 19.7768C22.5629 19.7758 22.6521 19.7775 22.744 19.7831L22.7649 19.8286L22.7679 19.8352L22.772 19.8401L22.8319 19.911L22.8302 20.0208L22.7693 20.0891L22.7484 20.1122L22.7608 20.1406L22.7834 20.1923L22.6353 20.1528L22.6285 20.1511H22.6218L22.3407 20.1541H22.337L22.1899 20.1663L22.205 20.1224L22.2138 20.097L22.1966 20.0759L22.1474 20.0159L22.1515 19.8893L22.1508 19.8886ZM25.7888 20.1943L25.7114 20.1715L25.705 20.1696H25.6976L25.337 20.1653H25.3316L25.3272 20.1663L25.1198 20.2055L25.1178 19.9875L25.1239 19.9203L25.169 19.8616L25.173 19.8563L25.1754 19.8513L25.1922 19.8128C25.2953 19.8048 25.3969 19.8015 25.4976 19.8025C25.6057 19.8032 25.7141 19.8091 25.8228 19.819L25.8332 19.8246L25.8319 19.9499L25.8167 19.9585L25.7915 19.9724L25.7912 20.0007L25.7895 20.1943H25.7888ZM25.6888 20.2672L25.8235 20.3071L25.8871 20.3259L25.8878 20.2603L25.8901 20.0294L25.9053 20.0212L25.9305 20.0073L25.9309 19.979L25.9329 19.7959L25.9332 19.7669L25.907 19.7527L25.8615 19.728L25.8528 19.7234L25.842 19.7224C25.7275 19.7115 25.6127 19.7053 25.4976 19.7043C25.3814 19.7033 25.2666 19.7076 25.1528 19.7171L25.1229 19.7198L25.1111 19.7468L25.0845 19.8075L25.0347 19.8724L25.0259 19.884L25.0246 19.8978L25.0172 19.9793V19.9796V19.9839L25.0195 20.2649L25.0199 20.3239L25.0788 20.3127L25.3404 20.2632L25.6881 20.2675L25.6888 20.2672Z" fill="white"/>
<path d="M27.3745 19.9201L34.231 19.9218V20.0863L27.3745 20.085V19.9205V19.9201ZM34.1505 20.5111L27.3071 20.425L27.3091 20.2605L34.1525 20.3465L34.1505 20.5111ZM7.86479 20.3465L14.7082 20.2605L14.7102 20.425L7.86681 20.5111L7.86479 20.3465ZM14.6425 20.085L7.78601 20.0863V19.9218L14.6425 19.9201V20.0847V20.085Z" fill="white"/>
<path fill-rule="evenodd" clip-rule="evenodd" d="M33.5357 22.5059L27.3566 22.4419L27.3361 22.6536L33.4657 22.6817C33.4896 22.6233 33.5125 22.5646 33.5357 22.5056V22.5059ZM33.3034 23.0619L27.3701 22.9877L27.3431 23.1984L33.2213 23.2439C33.2492 23.1836 33.2762 23.1229 33.3034 23.0619Z" fill="white"/>
<path fill-rule="evenodd" clip-rule="evenodd" d="M28.7457 22.2465L27.7367 22.2485L27.7344 20.9611L28.7437 20.9591L28.746 22.2465H28.7457ZM28.6201 21.7452L28.2895 21.7459L28.2885 21.0676L28.6191 21.0669L28.6201 21.7449V21.7452ZM28.6201 22.136L28.2922 22.1367L28.2919 21.8626L28.6198 21.862L28.6201 22.136ZM28.1909 21.7452L27.8603 21.7459L27.8593 21.0676L28.1899 21.0669L28.1909 21.7449V21.7452ZM28.1909 22.136L27.8633 22.1367L27.8626 21.8626L28.1906 21.862L28.1909 22.136Z" fill="white"/>
<path d="M20.9519 17.5294C20.9718 17.5277 20.992 17.5267 21.0122 17.5267V17.5271V17.5267C21.2169 17.5264 21.4021 17.6073 21.5364 17.7386C21.6707 17.8696 21.7539 18.0512 21.7542 18.2515C21.7545 18.4518 21.6721 18.6337 21.5381 18.7654C21.4044 18.897 21.2192 18.9786 21.0149 18.9789C20.9933 18.9789 20.9725 18.9779 20.9516 18.9762V19.1271C20.9725 19.1284 20.9937 19.1294 21.0149 19.1291C21.262 19.1287 21.4856 19.03 21.6468 18.8713C21.8081 18.7126 21.9077 18.4931 21.9074 18.2512C21.9071 18.0089 21.8064 17.7898 21.6445 17.6317C21.4825 17.4736 21.2586 17.3759 21.0119 17.3762V17.3759V17.3762C20.9917 17.3762 20.9715 17.3769 20.9516 17.3782V17.5291L20.9519 17.5294Z" fill="white"/>
<path fill-rule="evenodd" clip-rule="evenodd" d="M22.0848 18.0043L26.2086 18.003L26.2002 18.126L26.086 18.3054L26.085 18.4587L25.7524 18.4571V18.4996H25.6147V18.5484V18.5976H25.5649L25.345 18.5979H25.2952V18.5488V18.4996H25.0582L25.0585 18.5474V18.5966H25.0084L24.7889 18.5969H24.739V18.5481V18.4996H24.502L24.5024 18.5504V18.5992H24.4522L24.2327 18.5999H24.1829V18.5507V18.4996H24.0075L24.0078 18.5497V18.5986L23.9576 18.5989L23.7381 18.5992H23.6883V18.5501L23.688 18.4996H23.5368V18.5478V18.5969H23.487L23.2675 18.5972H23.2177L23.2173 18.5484V18.4996H23.0641V18.5507L23.0645 18.5995H23.0143L22.7948 18.5999H22.745L22.7446 18.5511V18.4996H22.5985V18.5468V18.5959H22.5487L22.3292 18.5962H22.2794V18.5471L22.279 18.4996H22.2083H22.1588L22.0848 18.0043Z" fill="white"/>
<path fill-rule="evenodd" clip-rule="evenodd" d="M30.3688 22.2465L29.3598 22.2485L29.3574 20.9611L30.3664 20.9591L30.3688 22.2465ZM30.2432 21.7452L29.9126 21.7459L29.9116 21.0676L30.2422 21.0669L30.2432 21.7449V21.7452ZM30.2432 22.136L29.9156 22.1367L29.9149 21.8626L30.2428 21.862L30.2432 22.136ZM29.8139 21.7452L29.4833 21.7459L29.482 21.0676L29.8126 21.0669L29.8136 21.7449L29.8139 21.7452ZM29.8139 22.136L29.4864 22.1367L29.4857 21.8626L29.8136 21.862L29.8139 22.136Z" fill="white"/>
<path fill-rule="evenodd" clip-rule="evenodd" d="M31.98 22.2465L30.971 22.2485L30.9687 20.9611L31.9777 20.9591L31.98 22.2465ZM31.8541 21.7452L31.5235 21.7459L31.5222 21.0676L31.8531 21.0669L31.8541 21.7449V21.7452ZM31.8541 22.136L31.5265 22.1367L31.5262 21.8626L31.8538 21.862L31.8541 22.136ZM31.4249 21.7452L31.0943 21.7459L31.0933 21.0676L31.4239 21.0669L31.4249 21.7449V21.7452ZM31.4249 22.136L31.097 22.1367L31.0966 21.8626L31.4242 21.862L31.4249 22.136Z" fill="white"/>
<path fill-rule="evenodd" clip-rule="evenodd" d="M33.631 22.2465L32.622 22.2485L32.6197 20.9611L33.6287 20.9591L33.631 22.2465ZM33.5055 21.7452L33.1748 21.7459L33.1738 21.0676L33.5044 21.0669L33.5055 21.7449V21.7452ZM33.5055 22.136L33.1775 22.1367L33.1772 21.8626L33.5048 21.862L33.5055 22.136ZM33.0762 21.7452L32.7456 21.7459L32.7446 21.0676L33.0752 21.0669L33.0762 21.7449V21.7452ZM33.0762 22.136L32.7483 22.1367L32.748 21.8626L33.0755 21.862L33.0762 22.136Z" fill="white"/>
<path fill-rule="evenodd" clip-rule="evenodd" d="M28.7457 24.8693L27.7367 24.8713L27.7344 23.5838L28.7437 23.5818L28.746 24.8693H28.7457ZM28.6201 24.368L28.2895 24.3687L28.2885 23.6903L28.6191 23.6897L28.6201 24.3677V24.368ZM28.6201 24.7588L28.2922 24.7595L28.2919 24.4854L28.6198 24.4848L28.6201 24.7588ZM28.1909 24.368L27.8603 24.3687L27.8593 23.6903L28.1899 23.6897L28.1909 24.3677V24.368ZM28.1909 24.7588L27.8633 24.7595L27.8626 24.4854L28.1906 24.4848L28.1909 24.7588Z" fill="white"/>
<path fill-rule="evenodd" clip-rule="evenodd" d="M30.3688 24.8693L29.3598 24.8713L29.3574 23.5838L30.3664 23.5818L30.3688 24.8693ZM30.2432 24.368L29.9126 24.3687L29.9116 23.6903L30.2422 23.6897L30.2432 24.3677V24.368ZM30.2432 24.7588L29.9156 24.7595L29.9149 24.4854L30.2428 24.4848L30.2432 24.7588ZM29.8139 24.368L29.4833 24.3687L29.482 23.6903L29.8126 23.6897L29.8136 24.3677L29.8139 24.368ZM29.8139 24.7588L29.4864 24.7595L29.4857 24.4854L29.8136 24.4848L29.8139 24.7588Z" fill="white"/>
<path fill-rule="evenodd" clip-rule="evenodd" d="M31.98 24.8693L30.971 24.8713L30.9687 23.5838L31.9777 23.5818L31.98 24.8693ZM31.8541 24.368L31.5235 24.3687L31.5222 23.6903L31.8531 23.6897L31.8541 24.3677V24.368ZM31.8541 24.7588L31.5265 24.7595L31.5262 24.4854L31.8538 24.4848L31.8541 24.7588ZM31.4249 24.368L31.0943 24.3687L31.0933 23.6903L31.4239 23.6897L31.4249 24.3677V24.368ZM31.4249 24.7588L31.097 24.7595L31.0966 24.4854L31.4242 24.4848L31.4249 24.7588Z" fill="white"/>
<path fill-rule="evenodd" clip-rule="evenodd" d="M28.7457 27.4429L27.7367 27.4449L27.7344 26.1574L28.7437 26.1558L28.746 27.4432L28.7457 27.4429ZM28.6201 26.9416L28.2895 26.9423L28.2885 26.264L28.6191 26.2633L28.6201 26.9413V26.9416ZM28.6201 27.3324L28.2922 27.3331L28.2919 27.059L28.6198 27.0584L28.6201 27.3324ZM28.1909 26.9416L27.8603 26.9423L27.8593 26.264L28.1899 26.2633L28.1909 26.9413V26.9416ZM28.1909 27.3324L27.8633 27.3331L27.8626 27.059L28.1906 27.0584L28.1909 27.3324Z" fill="white"/>
<path fill-rule="evenodd" clip-rule="evenodd" d="M30.1291 27.4432L29.3598 27.4445L29.3574 26.1571L30.3664 26.1555L30.3684 27.2203C30.2896 27.2955 30.2099 27.37 30.1291 27.4432ZM30.2432 26.9413L29.9126 26.942L29.9116 26.2636L30.2422 26.263L30.2432 26.941V26.9413ZM30.2432 27.3321L29.9156 27.3327L29.9149 27.0587L30.2428 27.058L30.2432 27.3321ZM29.8139 26.9413L29.4833 26.942L29.482 26.2636L29.8126 26.263L29.8136 26.941L29.8139 26.9413ZM29.8139 27.3321L29.4864 27.3327L29.4857 27.0587L29.8136 27.058L29.8139 27.3321Z" fill="white"/>
<path d="M17.899 7.00198H20.2611C20.725 7.00198 21.0802 7.10924 21.3266 7.32509C21.5727 7.54093 21.6953 7.81189 21.6953 8.1373C21.6953 8.40958 21.6094 8.63961 21.4374 8.83004C21.2647 9.01915 21.0058 9.16964 20.66 9.27921C21.0886 9.37426 21.4101 9.52476 21.6249 9.72839C21.8397 9.93301 21.9464 10.1908 21.9464 10.503C21.9464 10.7409 21.8855 10.9522 21.7643 11.136C21.6428 11.3208 21.4397 11.4756 21.1566 11.604C20.8738 11.731 20.5523 11.7954 20.1927 11.7954H17.8987V11.5498H18.2717C18.3838 11.5498 18.4667 11.5297 18.5188 11.4911C18.5704 11.4525 18.5963 11.4083 18.5963 11.3584V7.52311C18.5963 7.43235 18.571 7.3637 18.5199 7.31717C18.4683 7.27063 18.3943 7.24753 18.2967 7.24753H17.8984V7.00198H17.899ZM19.2504 9.19934H20.1082C20.3722 9.19934 20.5816 9.1175 20.7378 8.95479C20.894 8.79208 20.9725 8.52542 20.9725 8.15479C20.9725 7.92476 20.9348 7.74555 20.8603 7.61717C20.7859 7.48878 20.6782 7.39472 20.5358 7.33631C20.3944 7.27756 20.1483 7.24786 19.7992 7.24786C19.5521 7.24786 19.3979 7.26667 19.3393 7.30429C19.2794 7.34192 19.2501 7.40726 19.2501 7.50231V9.19968L19.2504 9.19934ZM19.2504 9.44489V11.2904C19.2504 11.3766 19.2747 11.4409 19.3228 11.4842C19.3709 11.5274 19.4568 11.5495 19.5817 11.5495H20.1315C20.4951 11.5495 20.7641 11.4644 20.9381 11.2951C21.1118 11.1257 21.199 10.8624 21.199 10.504C21.199 10.1753 21.1088 9.9175 20.9287 9.72839C20.7486 9.53928 20.5001 9.44522 20.183 9.44522H19.2508L19.2504 9.44489Z" fill="white"/>
<path d="M20.8641 11.7093V14.0525C20.8641 14.3357 20.8873 14.5492 20.9344 14.6931C21.0045 14.9066 21.1314 15.0773 21.3155 15.2043C21.501 15.3317 21.7417 15.3957 22.0404 15.3957C22.4531 15.3957 22.7676 15.2829 22.984 15.0571C23.2008 14.8327 23.3089 14.5304 23.3089 14.1532V11.9545C23.3089 11.7607 23.2961 11.6136 23.2702 11.5129C23.2449 11.4132 23.2083 11.3347 23.1601 11.2782C23.113 11.2218 23.0524 11.1809 22.979 11.1541C22.9046 11.1264 22.783 11.1132 22.6113 11.1132V10.8677H24.3209V11.1132H24.1984C24.0065 11.1132 23.8641 11.1673 23.7698 11.2769C23.6765 11.3855 23.6294 11.5436 23.6294 11.7505V14.103C23.6294 14.6165 23.49 15.0103 23.2126 15.2848C22.8995 15.5934 22.4834 15.7472 21.9639 15.7472C21.5145 15.7472 21.1607 15.6796 20.9038 15.5446C20.6462 15.4096 20.4587 15.2159 20.3422 14.9637C20.2544 14.7723 20.2103 14.5297 20.2103 14.239V11.7947C20.4442 11.7934 20.6624 11.7647 20.8641 11.7086V11.7093Z" fill="white"/>
<path fill-rule="evenodd" clip-rule="evenodd" d="M17.9321 35.3937H17.9324C19.5642 35.1584 20.5749 34.4604 21.0765 33.3832C21.5781 34.4604 22.5888 35.1584 24.2206 35.3937H24.2209H24.2206C22.5888 35.6291 21.5781 36.3271 21.0765 37.4043C20.5749 36.3271 19.5642 35.6291 17.9324 35.3937H17.9321Z" fill="white"/>
<path fill-rule="evenodd" clip-rule="evenodd" d="M10.7783 36.042C12.967 37.0647 14.6301 36.7697 15.6434 34.8456C13.6847 34.3631 12.0593 34.7519 10.7783 36.042Z" fill="white"/>
<path fill-rule="evenodd" clip-rule="evenodd" d="M7.80353 34.0116C9.64979 35.3766 11.2217 35.3568 12.4545 33.6244C10.7338 32.8297 9.18183 32.9479 7.80353 34.0116Z" fill="white"/>
<path fill-rule="evenodd" clip-rule="evenodd" d="M5.11255 31.24C6.61171 32.966 8.15027 33.2819 9.73798 31.8538C8.23511 30.7112 6.69352 30.4957 5.11255 31.24Z" fill="white"/>
<path fill-rule="evenodd" clip-rule="evenodd" d="M2.86737 28.2291C4.05007 30.1769 5.51287 30.7413 7.32243 29.5944C6.03604 28.2208 4.55338 27.7555 2.86737 28.2291Z" fill="white"/>
<path fill-rule="evenodd" clip-rule="evenodd" d="M1.10461 24.7311C2.28731 26.6789 3.61478 28.0991 5.42401 26.9522C4.67998 25.7198 2.79063 24.2575 1.10461 24.7311Z" fill="white"/>
<path fill-rule="evenodd" clip-rule="evenodd" d="M0.307739 21.1251C0.889493 22.8159 1.61231 24.7746 4.06793 23.9446C3.32391 22.7122 1.99375 20.6515 0.307739 21.1251Z" fill="white"/>
<path fill-rule="evenodd" clip-rule="evenodd" d="M0 17.4198C0.257211 19.1753 0.747393 20.9743 3.17204 20.8281C2.87342 19.505 1.7456 17.1805 0 17.4198Z" fill="white"/>
<path fill-rule="evenodd" clip-rule="evenodd" d="M0.43332 13.7069C0.366661 15.4792 0.521526 17.3353 2.93405 17.6155C2.8812 16.2614 2.19474 13.7772 0.43332 13.7069Z" fill="white"/>
<path fill-rule="evenodd" clip-rule="evenodd" d="M1.48133 10.1284C1.13086 11.8684 0.985424 13.7251 3.32288 14.3743C3.48818 13.0287 3.20943 10.4697 1.48133 10.1284Z" fill="white"/>
<path fill-rule="evenodd" clip-rule="evenodd" d="M3.35081 6.71387C2.64348 8.34621 2.11223 10.134 4.26384 11.2399C4.70756 9.95644 4.97083 7.39572 3.35081 6.71387Z" fill="white"/>
<path fill-rule="evenodd" clip-rule="evenodd" d="M5.84652 3.82642C4.79209 5.26734 3.87502 6.89836 5.72768 8.43863C6.44679 7.2812 7.27498 4.83896 5.84652 3.82642Z" fill="white"/>
<path fill-rule="evenodd" clip-rule="evenodd" d="M11.0695 3.5703C10.3339 3.32475 7.25881 4.32277 7.51265 6.69142C8.87345 6.60759 10.3632 5.59406 11.0695 3.5703Z" fill="white"/>
<path fill-rule="evenodd" clip-rule="evenodd" d="M10.4056 7.96504C9.08558 8.9789 7.97055 9.61884 6.17041 8.59276C6.80367 7.43138 8.78427 6.66867 10.4056 7.96504Z" fill="white"/>
<path fill-rule="evenodd" clip-rule="evenodd" d="M8.78119 9.97463C7.70959 11.2393 6.75751 12.0954 4.77692 11.4654C5.14556 10.199 6.91708 9.04328 8.78119 9.97463Z" fill="white"/>
<path fill-rule="evenodd" clip-rule="evenodd" d="M7.44798 12.3344C6.5979 13.7515 5.799 14.7469 3.74097 14.438C3.89684 13.1297 5.45526 11.7096 7.44798 12.3344Z" fill="white"/>
<path fill-rule="evenodd" clip-rule="evenodd" d="M6.65112 14.8858C6.07206 16.4565 5.4664 17.5934 3.38515 17.6241C3.30098 16.2789 4.5766 14.5872 6.65112 14.8858Z" fill="white"/>
<path fill-rule="evenodd" clip-rule="evenodd" d="M6.36461 17.5934C6.04309 19.2333 5.62597 20.4492 3.57467 20.798C3.27706 19.4822 4.26786 17.6162 6.36461 17.5934Z" fill="white"/>
<path fill-rule="evenodd" clip-rule="evenodd" d="M6.51447 20.1584C6.48955 21.8284 6.2953 23.0967 4.3376 23.7911C3.81038 22.5466 4.45375 20.5393 6.51447 20.1584Z" fill="white"/>
<path fill-rule="evenodd" clip-rule="evenodd" d="M7.04808 22.6248C7.44197 24.2495 7.57092 25.5258 5.84686 26.6697C5.02405 25.5898 5.14559 23.4895 7.04808 22.6248Z" fill="white"/>
<path fill-rule="evenodd" clip-rule="evenodd" d="M8.08193 25.0654C8.76671 26.5947 9.12694 27.8277 7.64023 29.2561C6.63327 28.3383 6.36865 26.2505 8.08193 25.0654Z" fill="white"/>
<path fill-rule="evenodd" clip-rule="evenodd" d="M9.70636 27.239C10.6517 28.6284 11.2254 29.7809 10.0147 31.441C8.86066 30.709 8.22942 28.6981 9.70636 27.239Z" fill="white"/>
<path fill-rule="evenodd" clip-rule="evenodd" d="M11.6203 29.1126C12.8043 30.3132 13.5797 31.3462 12.6919 33.1925C11.4223 32.675 10.4339 30.8076 11.6203 29.1126Z" fill="white"/>
<path fill-rule="evenodd" clip-rule="evenodd" d="M13.9469 30.442C15.332 31.6426 16.2797 32.676 15.701 34.5218C14.294 34.2294 13.005 32.3109 13.9469 30.442Z" fill="white"/>
<path fill-rule="evenodd" clip-rule="evenodd" d="M31.2216 36.042C29.0329 37.0647 27.3698 36.7697 26.3564 34.8456C28.3152 34.3631 29.9406 34.7519 31.2216 36.042Z" fill="white"/>
<path fill-rule="evenodd" clip-rule="evenodd" d="M34.1963 34.0116C32.35 35.3766 30.7782 35.3568 29.5453 33.6244C31.266 32.8297 32.818 32.9479 34.1963 34.0116Z" fill="white"/>
<path fill-rule="evenodd" clip-rule="evenodd" d="M36.8876 31.24C35.3885 32.966 33.8499 33.2819 32.2622 31.8538C33.7651 30.7112 35.3066 30.4957 36.8876 31.24Z" fill="white"/>
<path fill-rule="evenodd" clip-rule="evenodd" d="M39.1324 28.2291C37.9497 30.1769 36.4866 30.7413 34.6774 29.5944C35.9638 28.2208 37.4464 27.7555 39.1324 28.2291Z" fill="white"/>
<path fill-rule="evenodd" clip-rule="evenodd" d="M40.8956 24.7311C39.7129 26.6789 38.3854 28.0991 36.5762 26.9522C37.3199 25.7198 39.2096 24.2575 40.8956 24.7311Z" fill="white"/>
<path fill-rule="evenodd" clip-rule="evenodd" d="M41.6921 21.1251C41.1103 22.8159 40.3875 24.7746 37.9319 23.9446C38.6759 22.7122 40.0061 20.6515 41.6921 21.1251Z" fill="white"/>
<path fill-rule="evenodd" clip-rule="evenodd" d="M41.9998 17.4198C41.7426 19.1753 41.2524 20.9743 38.8278 20.8281C39.1264 19.505 40.2542 17.1805 41.9998 17.4198Z" fill="white"/>
<path fill-rule="evenodd" clip-rule="evenodd" d="M41.5665 13.7069C41.6332 15.4792 41.4783 17.3353 39.0658 17.6155C39.1187 16.2614 39.8051 13.7772 41.5665 13.7069Z" fill="white"/>
<path fill-rule="evenodd" clip-rule="evenodd" d="M40.5189 10.1284C40.8693 11.8684 41.0148 13.7251 38.6773 14.3743C38.512 13.0287 38.7908 10.4697 40.5189 10.1284Z" fill="white"/>
<path fill-rule="evenodd" clip-rule="evenodd" d="M38.649 6.71387C39.3563 8.34621 39.8876 10.134 37.736 11.2399C37.2922 9.95644 37.0293 7.39572 38.649 6.71387Z" fill="white"/>
<path fill-rule="evenodd" clip-rule="evenodd" d="M36.1533 3.82642C37.2078 5.26734 38.1248 6.89836 36.2722 8.43863C35.5531 7.2812 34.7249 4.83896 36.1533 3.82642Z" fill="white"/>
<path fill-rule="evenodd" clip-rule="evenodd" d="M30.9303 3.5703C31.6659 3.32475 34.741 4.32277 34.4872 6.69142C33.126 6.60759 31.6366 5.59406 30.9303 3.5703Z" fill="white"/>
<path fill-rule="evenodd" clip-rule="evenodd" d="M31.5942 7.96504C32.9143 8.9789 34.0293 9.61884 35.8295 8.59276C35.1962 7.43138 33.2156 6.66867 31.5942 7.96504Z" fill="white"/>
<path fill-rule="evenodd" clip-rule="evenodd" d="M33.2186 9.97463C34.2902 11.2393 35.2423 12.0954 37.2229 11.4654C36.8543 10.199 35.0827 9.04328 33.2186 9.97463Z" fill="white"/>
<path fill-rule="evenodd" clip-rule="evenodd" d="M34.5518 12.3344C35.4019 13.7515 36.2008 14.7469 38.2588 14.438C38.1029 13.1297 36.5445 11.7096 34.5518 12.3344Z" fill="white"/>
<path fill-rule="evenodd" clip-rule="evenodd" d="M35.3487 14.8858C35.9278 16.4565 36.5334 17.5934 38.6147 17.6241C38.6988 16.2789 37.4232 14.5872 35.3487 14.8858Z" fill="white"/>
<path fill-rule="evenodd" clip-rule="evenodd" d="M35.6352 17.5934C35.957 19.2333 36.3738 20.4492 38.4251 20.798C38.7227 19.4822 37.7319 17.6162 35.6352 17.5934Z" fill="white"/>
<path fill-rule="evenodd" clip-rule="evenodd" d="M35.4854 20.1584C35.5103 21.8284 35.7045 23.0967 37.6622 23.7911C38.1894 22.5466 37.5461 20.5393 35.4854 20.1584Z" fill="white"/>
<path fill-rule="evenodd" clip-rule="evenodd" d="M34.9518 22.6248C34.5579 24.2495 34.429 25.5258 36.153 26.6697C36.9755 25.5898 36.854 23.4895 34.9518 22.6248Z" fill="white"/>
<path fill-rule="evenodd" clip-rule="evenodd" d="M33.9179 25.0654C33.2331 26.5947 32.8729 27.8277 34.3596 29.2561C35.3666 28.3383 35.6312 26.2505 33.9179 25.0654Z" fill="white"/>
<path fill-rule="evenodd" clip-rule="evenodd" d="M32.2935 27.239C31.3481 28.6284 30.7745 29.7809 31.9851 31.441C33.1395 30.709 33.7704 28.6981 32.2935 27.239Z" fill="white"/>
<path fill-rule="evenodd" clip-rule="evenodd" d="M30.3798 29.1126C29.1958 30.3132 28.4208 31.3462 29.3082 33.1925C30.5778 32.675 31.5662 30.8076 30.3798 29.1126Z" fill="white"/>
<path fill-rule="evenodd" clip-rule="evenodd" d="M28.0529 30.442C26.6678 31.6426 25.7201 32.676 26.2988 34.5218C27.7057 34.2294 28.9948 32.3109 28.0529 30.442Z" fill="white"/>
<path fill-rule="evenodd" clip-rule="evenodd" d="M14.1527 1.96073L14.1779 1.79902L14.2826 1.75248L14.5513 2.31651L14.4469 2.36271C14.3264 2.21321 14.2106 2.11981 14.0998 2.08318C13.9891 2.04621 13.8843 2.05017 13.7844 2.0944C13.7019 2.13103 13.6453 2.18483 13.6157 2.25578C13.5857 2.32608 13.5867 2.39605 13.6184 2.46469C13.6386 2.50859 13.6659 2.54192 13.6999 2.56502C13.7342 2.58846 13.7756 2.60133 13.8251 2.60463C13.8746 2.60727 13.9625 2.59539 14.089 2.56865C14.2729 2.53004 14.4079 2.51453 14.494 2.5208C14.5802 2.52773 14.654 2.55182 14.7152 2.59407C14.7762 2.63598 14.8243 2.69506 14.8593 2.77096C14.9223 2.90727 14.9277 3.04126 14.8748 3.17261C14.8223 3.30397 14.7223 3.40265 14.5748 3.46832C14.4159 3.53862 14.2617 3.54885 14.1113 3.49869L14.0682 3.68054L13.9645 3.72641L13.6877 3.12674L13.7995 3.07723C13.9035 3.22641 14.022 3.32278 14.1557 3.36766C14.289 3.41255 14.4139 3.40892 14.5301 3.35743C14.623 3.31618 14.6863 3.25611 14.7199 3.17657C14.7533 3.09704 14.7526 3.01915 14.7169 2.94225C14.6974 2.90034 14.6694 2.86799 14.6338 2.84555C14.5977 2.82278 14.5509 2.81123 14.4924 2.80991C14.4338 2.80859 14.323 2.82377 14.1597 2.85578C13.9756 2.8911 13.8409 2.8977 13.7564 2.87591C13.6359 2.84456 13.5457 2.76436 13.4861 2.63532C13.4248 2.50298 13.4181 2.37525 13.4659 2.25116C13.5137 2.12773 13.6056 2.03565 13.7413 1.97525C13.8059 1.94654 13.8729 1.9307 13.9419 1.9274C14.0113 1.92377 14.0816 1.93499 14.153 1.96007L14.1527 1.96073ZM14.7139 1.60958L15.4643 1.35149L15.5061 1.46832L15.3633 1.5175C15.3155 1.534 15.2882 1.54852 15.2812 1.56106C15.2748 1.5736 15.2781 1.59836 15.2913 1.63466L15.698 2.77129C15.7124 2.81189 15.7249 2.83433 15.7353 2.83862C15.7522 2.84621 15.7794 2.84357 15.8171 2.8307L15.9744 2.77657L16.0161 2.89341L15.2653 3.15149L15.2236 3.03499L15.3795 2.98153C15.4202 2.96733 15.4438 2.9538 15.4505 2.9406C15.4569 2.92773 15.4529 2.901 15.4384 2.86073L15.0314 1.72443C15.0182 1.68813 15.0071 1.66799 14.998 1.66436C14.9775 1.65776 14.9445 1.66205 14.898 1.67789L14.7556 1.72674L14.7139 1.61024V1.60958ZM15.8134 1.20067L16.2238 1.1076L17.4331 2.11453L17.2308 1.25512C17.2113 1.17228 17.1783 1.11585 17.1321 1.08549C17.0904 1.05842 17.0281 1.05314 16.9453 1.07063L16.917 0.950502L17.5112 0.815848L17.5395 0.93631C17.4722 0.951492 17.4277 0.968323 17.4069 0.987465C17.386 1.00595 17.3705 1.03598 17.3604 1.07756C17.35 1.11882 17.3503 1.16172 17.3611 1.20661L17.6563 2.45974L17.525 2.48945L16.2696 1.43598L16.4851 2.35083C16.5039 2.4307 16.5376 2.48549 16.5857 2.51387C16.6339 2.54258 16.7083 2.54654 16.8083 2.52542L16.8366 2.64522L16.1888 2.79176L16.1609 2.67261C16.243 2.65083 16.2996 2.6142 16.3299 2.56337C16.3605 2.51222 16.3686 2.45611 16.3541 2.39506L16.1094 1.35545L16.0905 1.34258C16.0501 1.3142 16.0232 1.29869 16.0104 1.29572C15.9902 1.29143 15.9659 1.29242 15.9363 1.29902L15.8424 1.32047L15.8141 1.20001L15.8134 1.20067ZM19.0828 0.703637L19.1326 0.545221L19.2376 0.53301L19.3504 1.20793L19.237 1.22113C19.1649 1.0406 19.0983 0.914528 19.0377 0.842581C18.9195 0.748521 18.802 0.708257 18.6845 0.721789C18.5572 0.73664 18.4599 0.805287 18.3923 0.928389C18.3246 1.05116 18.3081 1.25149 18.3418 1.52971C18.3701 1.7637 18.4249 1.93334 18.5067 2.03928C18.6249 2.134 18.7545 2.17327 18.8966 2.15677C19.0212 2.14225 19.1205 2.0911 19.1959 2.00265C19.271 1.9142 19.312 1.78153 19.3188 1.60496L19.439 1.59077C19.4406 1.80166 19.3915 1.96634 19.2912 2.0845C19.1905 2.20265 19.0545 2.27162 18.8828 2.29176C18.7438 2.30793 18.6125 2.28846 18.4882 2.23334C18.3643 2.17855 18.2596 2.09143 18.1755 1.97195C18.091 1.85215 18.0395 1.71618 18.0209 1.56403C18.0014 1.40331 18.0186 1.24852 18.0724 1.09902C18.1263 0.949842 18.2048 0.83268 18.3081 0.747861C18.4111 0.663043 18.528 0.612878 18.6579 0.597696C18.7303 0.589445 18.802 0.593076 18.8727 0.609247C18.9437 0.625749 19.0141 0.657102 19.0838 0.702977L19.0828 0.703637ZM19.7389 0.513208L21.0731 0.468983L21.1246 1.04753L21.0085 1.05149C20.9718 0.875584 20.9226 0.756772 20.861 0.695056C20.7987 0.63367 20.7206 0.604627 20.626 0.607927L20.3072 0.618488C20.2884 0.619148 20.2746 0.624099 20.2661 0.63367C20.2574 0.642911 20.2534 0.658752 20.2544 0.680535L20.2732 1.22674L20.3897 1.22278C20.457 1.22047 20.5109 1.19473 20.5523 1.14555C20.593 1.09572 20.6136 1.01255 20.6136 0.896046L20.7341 0.892086L20.761 1.67129L20.6405 1.67525C20.6318 1.54489 20.6055 1.45578 20.5601 1.40892C20.5153 1.36205 20.4557 1.33961 20.382 1.34225L20.2773 1.34555L20.2985 1.95512C20.2988 1.97228 20.3049 1.98483 20.316 1.99275C20.3271 2.001 20.348 2.00463 20.3789 2.00331L20.6304 1.99506C20.8893 1.98648 21.0337 1.81057 21.0637 1.46799L21.1852 1.46403L21.1782 2.10067L19.7958 2.14654L19.7915 2.02311L19.9254 2.01849C19.9628 2.01717 19.9877 2.01123 20.0005 2.00001C20.0133 1.98846 20.019 1.97228 20.0184 1.94951L19.9746 0.689776C19.9739 0.668983 19.9682 0.653802 19.9568 0.644231C19.9453 0.63532 19.9268 0.63103 19.8995 0.63202L19.7433 0.6373L19.7389 0.513538V0.513208ZM23.3032 0.415848L23.1066 2.03928C23.1046 2.05578 23.1116 2.07162 23.1271 2.08615C23.1392 2.09704 23.1608 2.10463 23.1918 2.10826L23.4735 2.14093L23.4557 2.28813L22.4585 2.17195L22.4767 2.02476L22.7204 2.05314C22.7578 2.05743 22.7857 2.05248 22.8039 2.03829C22.8228 2.02476 22.8335 2.00331 22.8369 1.97426L22.9834 0.766673C22.9854 0.750172 22.9797 0.73499 22.9665 0.720799C22.9534 0.706937 22.9345 0.698356 22.9106 0.695716L22.5918 0.658752L22.6083 0.522449C22.7608 0.521459 22.88 0.511228 22.9659 0.493076C23.052 0.474594 23.1318 0.444891 23.2052 0.404297L23.3025 0.415518L23.3032 0.415848ZM25.0118 1.65842C24.967 1.73037 24.9 1.77921 24.8111 1.80496C24.7226 1.8307 24.63 1.83268 24.533 1.81057C24.3977 1.77954 24.2866 1.70496 24.1984 1.58747C24.1102 1.46931 24.088 1.3208 24.1304 1.14159C24.1714 0.969314 24.2671 0.83565 24.4169 0.741591C24.5664 0.647201 24.7263 0.619478 24.8949 0.658092C25.0808 0.700667 25.2168 0.810898 25.3036 0.988125C25.3905 1.16601 25.4023 1.38681 25.339 1.65215C25.2865 1.87129 25.209 2.04951 25.105 2.18714C25.0013 2.32443 24.8842 2.41816 24.7542 2.46766C24.6243 2.51717 24.4889 2.52575 24.3479 2.49341C24.2108 2.46205 24.1092 2.40694 24.0442 2.32773C23.9789 2.24852 23.9567 2.16568 23.9775 2.07855C23.9913 2.02113 24.0199 1.97789 24.064 1.94918C24.1082 1.92047 24.1576 1.91255 24.2118 1.92509C24.261 1.93631 24.299 1.96205 24.326 2.00232C24.3526 2.04225 24.3603 2.0845 24.3499 2.12872C24.3418 2.16238 24.3182 2.1944 24.2788 2.22542C24.2623 2.23829 24.2533 2.24918 24.2512 2.25842C24.2475 2.2736 24.2549 2.29044 24.2738 2.30859C24.2926 2.32674 24.3307 2.34225 24.3879 2.35545C24.4711 2.37459 24.5492 2.36898 24.6226 2.33862C24.6963 2.30793 24.766 2.24456 24.8323 2.1472C24.8983 2.04984 24.9512 1.91585 24.9922 1.74423L25.0124 1.65776L25.0118 1.65842ZM24.8653 0.798356C24.7785 0.778554 24.698 0.798356 24.6239 0.857762C24.5502 0.917498 24.4946 1.02311 24.4583 1.17492C24.4253 1.3142 24.4293 1.42311 24.4704 1.50199C24.5115 1.57987 24.5771 1.62971 24.6677 1.6505C24.7569 1.67096 24.8411 1.65281 24.9209 1.59572C25 1.53928 25.0552 1.44456 25.0872 1.31222C25.1195 1.17657 25.1124 1.06172 25.0663 0.968653C25.0198 0.875254 24.9532 0.818488 24.8656 0.798356H24.8653ZM26.4954 2.01816C26.6015 2.07129 26.6782 2.14258 26.7254 2.234C26.787 2.35182 26.7967 2.47624 26.754 2.60661C26.7055 2.75578 26.6123 2.85842 26.4746 2.91486C26.3204 2.97955 26.1467 2.98153 25.9537 2.92113C25.8376 2.88483 25.7433 2.83466 25.6713 2.7703C25.5992 2.70628 25.5524 2.63433 25.5306 2.55545C25.509 2.47591 25.5117 2.39572 25.5386 2.31354C25.5605 2.24654 25.5959 2.19737 25.6447 2.16733C25.6935 2.1373 25.7457 2.13103 25.8006 2.14819C25.8511 2.16403 25.8861 2.19275 25.9063 2.23532C25.9265 2.27756 25.9278 2.32443 25.9107 2.37723C25.8992 2.41288 25.8814 2.44027 25.8571 2.46007C25.8332 2.47988 25.7992 2.4944 25.7551 2.50265C25.7238 2.50826 25.707 2.51453 25.7046 2.52146C25.6982 2.54093 25.7019 2.56832 25.7154 2.60199C25.7289 2.63532 25.7558 2.66832 25.7958 2.69935C25.8356 2.73004 25.8925 2.75743 25.9659 2.78054C26.0894 2.81915 26.1897 2.81816 26.2672 2.77756C26.3443 2.7373 26.4049 2.64984 26.4486 2.51552C26.4944 2.37525 26.5022 2.26898 26.4712 2.19704C26.4406 2.12509 26.3763 2.07393 26.2786 2.04324C26.253 2.03532 26.2177 2.02806 26.1726 2.02146C26.1369 2.01585 26.1103 2.01057 26.0924 2.00496C26.0615 1.99506 26.0386 1.97987 26.0234 1.95908C26.009 1.93796 26.0059 1.91552 26.014 1.8911C26.0221 1.86667 26.0376 1.85017 26.0605 1.84258C26.0834 1.834 26.11 1.83466 26.1389 1.8439L26.2167 1.87162L26.2672 1.89011C26.3705 1.92212 26.4537 1.92179 26.518 1.88879C26.582 1.85611 26.6311 1.78714 26.6651 1.68186C26.7072 1.55281 26.7136 1.45446 26.6843 1.3878C26.655 1.3208 26.5941 1.27294 26.5015 1.24423C26.4136 1.21684 26.3409 1.20991 26.283 1.22344C26.2244 1.2373 26.1928 1.25281 26.1867 1.27063C26.1827 1.28318 26.1887 1.30199 26.2039 1.32773C26.2423 1.39671 26.2534 1.45611 26.2369 1.50661C26.2237 1.5472 26.1972 1.57657 26.1581 1.59506C26.1184 1.61321 26.076 1.61519 26.0302 1.601C25.9797 1.58516 25.9453 1.5538 25.9265 1.50793C25.9073 1.46205 25.908 1.40793 25.9285 1.34588C25.9585 1.2538 26.0194 1.18218 26.111 1.13202C26.2382 1.06205 26.3904 1.05413 26.5658 1.10925C26.7298 1.1604 26.8469 1.24555 26.9173 1.3637C26.988 1.48185 27.0025 1.60463 26.9607 1.73268C26.9304 1.82608 26.8769 1.89803 26.8005 1.94918C26.7247 2.00034 26.623 2.02311 26.4948 2.01849L26.4954 2.01816ZM28.1683 2.73829C28.1104 2.80067 28.0357 2.83631 27.9431 2.84522C27.8512 2.85413 27.7599 2.83895 27.669 2.79902C27.5421 2.74357 27.4472 2.64984 27.3832 2.51816C27.3193 2.38582 27.326 2.23598 27.4024 2.06799C27.4758 1.90628 27.5953 1.79242 27.7606 1.72806C27.9259 1.66271 28.0879 1.66535 28.2461 1.73466C28.4201 1.81057 28.5329 1.94423 28.5838 2.134C28.6353 2.32476 28.604 2.5439 28.4908 2.79275C28.3972 2.99836 28.2868 3.15908 28.1582 3.27459C28.0299 3.39011 27.897 3.4604 27.7596 3.48516C27.6222 3.50991 27.4879 3.49341 27.3553 3.43532C27.2267 3.37922 27.1375 3.30628 27.089 3.21651C27.0402 3.12674 27.0344 3.04093 27.0715 2.95941C27.096 2.90562 27.1324 2.86865 27.1812 2.84819C27.23 2.82839 27.2802 2.82938 27.331 2.85182C27.3772 2.87195 27.4095 2.9043 27.428 2.94885C27.4465 2.99308 27.4462 3.03598 27.427 3.07723C27.4125 3.10892 27.3832 3.13598 27.3388 3.15908C27.3203 3.16865 27.3092 3.17757 27.3051 3.18615C27.2987 3.20034 27.3024 3.21849 27.3176 3.23994C27.3324 3.26106 27.3671 3.28351 27.4206 3.30694C27.4987 3.34093 27.5765 3.35017 27.6546 3.334C27.7327 3.3175 27.8135 3.26799 27.8973 3.18483C27.9808 3.10166 28.0589 2.97955 28.132 2.81882L28.1683 2.73796V2.73829ZM28.1902 1.86667C28.1091 1.83103 28.0259 1.83565 27.9421 1.8802C27.8579 1.92509 27.7832 2.01882 27.7182 2.16106C27.6589 2.29176 27.6421 2.39935 27.667 2.48417C27.6923 2.56865 27.7472 2.62938 27.832 2.66634C27.9158 2.70298 28.002 2.701 28.0912 2.65974C28.1798 2.61882 28.2521 2.53631 28.3087 2.41189C28.3666 2.28483 28.3818 2.17063 28.3545 2.07096C28.3269 1.97063 28.2727 1.90265 28.1899 1.86667H28.1902Z" fill="white"/>
</svg>
