<svg width="42" height="37" fill="none" xmlns="http://www.w3.org/2000/svg"><g clip-path="url(#a)" fill="#151515"><path fill-rule="evenodd" clip-rule="evenodd" d="M21.009 4.844c7.076 0 12.813 5.623 12.813 12.56 0 6.938-5.737 12.561-12.813 12.561-7.077 0-12.814-5.623-12.814-12.56 0-6.938 5.737-12.561 12.814-12.561Zm0-.585c7.405 0 13.41 5.886 13.41 13.145 0 7.26-6.004 13.146-13.41 13.146-7.406 0-13.41-5.886-13.41-13.146 0-7.26 6.004-13.145 13.41-13.145Z"/><path d="M19.287 16.595V16.5h.086l1.692.003v.169l-1.606-.003v.011h-.073v.085l-.68-.002.002.029.004.087h-2.325l.004.252.002.086-.088-.001-1.473-.009-.01.54 1.44.002h.087v.085l-.001.128h3.376v-.016l.172.001v.1l-.001.084h-3.546l-.003.216v.086l-.008.437 4.727.002v.17l-4.79-.003-.013.273-.004.08h-.083l-1.455-.005h-.095l.086.115.015.02v.003l1.456-.002v.163l.086.002-.12 7.402h.957v.098h-.971l-.014.012-.019.018 1.103-.001v.074h.026v.098l-1.198.002-.013.102-.007.06-.06.012-.029.006-.004.098-.005.081h-.082l-1.829-.008-1.242.028a5.865 5.865 0 0 1-.175-.137l1.094-.009.848-.143.1-7.799-.069-.01-.002-.07v-.02l-.1-.133-.017-.021V19.4l-.003-.094-.002-.085.087-.001.113-.002.004-.2-6.94-.005a14.049 14.049 0 0 1-.02-.17l6.963.006v-.05l-.286-.415-.014-.02-.001-.022-.008-.15-.177-.325-.068-.126.145.002.418.003.008-.52-.038-.058-.085-.131h.158l1.524.01-.002-.166-.027-.037-.094-.133h2.412l-.102-.118h.188l.694.002ZM13.977 28.6l7.087-.01v.17l-6.8.008a15.495 15.495 0 0 1-.287-.168Zm4.878-1.384 1.415-.003v.077h.017v.098h-1.446v-.098h.014v-.074Zm.116-.125 1.197.002v.098l-1.197-.002v-.098Zm-4.16-8.072-.004.2 1.285.004.012-.238.002-.046.04-.023.018-.01.008-.474-1.583-.01.211.305.016.022-.001.027-.003.16-.001.082Zm-.013.675-.1 7.86v.021l1.05.005.005-.082.003-.065.065-.014.034-.007.025-.198.004-.03.023-.02.068-.063.12-7.41-1.296.003Zm2.089-.35 2.318-.024.001.169-2.318.023-.001-.169Zm3.008-.026 1.17-.008v.17l-1.17.007v-.17Zm-5.387-1.065 1.665.01.001-.345-1.355-.002v.001h-.086l-.358-.004.117.216.01.016v.02l.005.088Z"/><path d="m19.945 19.395.02.069v.012l.006.15v.019l-.011.014-.044.053.024.069.01.03-.023.021-.02.019-.017.015-.021-.002-.196-.016-.271-.003-.199.053-.056.015-.006-.057-.008-.07-.001-.012.005-.012.016-.035-.052-.059-.012-.013v-.018l-.003-.146v-.019l.012-.013.067-.08.03-.067.012-.026.03-.002c.103-.007.205-.01.309-.008.104.001.206.006.312.012l.026.002.014.023.042.071.003.006.002.006v-.001Zm-.079.09-.016-.058-.026-.044a6.62 6.62 0 0 0-.28-.01c-.09-.002-.18 0-.27.006l-.022.045-.003.007-.004.005-.06.07.002.11.06.069.022.023-.013.029-.022.051.148-.04.007-.001h.006l.281.003h.004l.147.012-.015-.044-.009-.025.017-.021.05-.06-.004-.127Zm-3.638.305.078-.023.006-.002h.008l.36-.004h.006l.004.001.208.04.001-.219-.006-.067-.045-.059-.004-.005-.002-.005-.017-.039a3.527 3.527 0 0 0-.63.007l-.01.005v.126l.016.008.025.014v.028l.002.194Zm.1.073-.135.04-.063.019-.001-.066-.002-.23-.015-.009-.025-.014v-.028l-.003-.183v-.03l.026-.014.046-.024.008-.005.01-.001a4.012 4.012 0 0 1 .69-.005l.03.002.012.027.026.061.05.065.009.012.001.014.008.081v.005l-.003.28v.06l-.059-.011-.262-.05-.347.004h-.001Z"/><path fill-rule="evenodd" clip-rule="evenodd" d="m8.481 22.101 6.18-.064.02.212-6.13.028-.07-.176Zm.233.557 5.933-.074.027.21-5.878.046-.082-.182Zm4.557-.815 1.009.002.002-1.288-1.009-.002-.002 1.288Zm.126-.502.33.001.002-.679h-.331l-.001.678Zm0 .392h.328v-.274h-.328v.274Zm.43-.392.33.001v-.679h-.33v.678Zm0 .392h.327v-.274h-.328v.274Z"/><path d="M21.065 17.125a.746.746 0 0 0-.585.21.716.716 0 0 0-.001 1.026.745.745 0 0 0 .586.21v.152a.9.9 0 0 1-.695-.256.864.864 0 0 1 .002-1.24.902.902 0 0 1 .633-.255c.02 0 .04 0 .06.002v.15Z"/><path fill-rule="evenodd" clip-rule="evenodd" d="m19.932 17.6-4.123-.002.008.124.114.18.001.153.332-.002v.043h.138v.098h.32v-.098h.237v.097h.319v-.097h.237v.1h.319v-.1h.176v.099h.319v-.099h.151v.097h.32v-.097h.153v.1h.32v-.1h.146v.096h.319v-.096h.12l.074-.496Zm-8.284 4.243 1.009.002.002-1.288-1.009-.002-.002 1.288Zm.126-.502.33.001.001-.679h-.33l-.001.678Zm0 .392h.328v-.274h-.328v.274Zm.429-.392.33.001.001-.679h-.33l-.001.678Zm0 .392h.328v-.274h-.328v.274Zm-2.166.11 1.009.002.002-1.288-1.009-.002-.002 1.288Zm.126-.502.33.001.001-.679h-.33l-.001.678Zm0 .392h.327v-.274h-.327v.274Zm.429-.392.33.001.002-.679h-.331l-.001.678Zm0 .392h.327l.001-.274h-.328v.274Zm-2.206.11 1.009.002.002-1.288-1.009-.002-.002 1.288Zm.126-.502.33.001.001-.679h-.33l-.001.678Zm0 .392h.327v-.274h-.327v.274Zm.429-.392.33.001.002-.679h-.33l-.002.678Zm0 .392h.327l.001-.274h-.328v.274Zm4.33 2.733 1.009.002.002-1.289-1.009-.002-.002 1.289Zm.126-.502h.33l.002-.678h-.331l-.001.678Zm0 .391h.328v-.273l-.328-.001v.274Zm.43-.39h.33v-.68h-.33v.679Zm0 .39h.327v-.273l-.328-.001v.274Zm-2.179.111 1.009.002.002-1.289-1.009-.002-.002 1.289Zm.126-.502h.33l.001-.678h-.33l-.001.678Zm0 .391h.328v-.273l-.328-.001v.274Zm.429-.39h.33l.001-.68h-.33l-.001.679Zm0 .39h.328v-.273l-.328-.001v.274Zm-2.166.111 1.009.002.002-1.289-1.009-.002-.002 1.289Zm.126-.502h.33l.001-.678h-.33l-.001.678Zm0 .391h.327v-.273l-.327-.001v.274Zm.429-.39h.33l.002-.68h-.331l-.001.679Zm0 .39h.327l.001-.273-.328-.001v.274Zm2.679 2.685 1.009.001.002-1.288-1.009-.002-.002 1.289Zm.126-.502h.33l.002-.678-.331-.001-.001.678Zm0 .39.328.002v-.275h-.328v.274Zm.43-.39h.33v-.678l-.33-.001v.678Zm0 .39.327.002v-.275h-.328v.274Zm-1.939.112.77.001.002-1.288-1.01-.002-.001 1.066c.078.075.158.15.239.223Zm-.114-.503.33.001.002-.679h-.331l-.001.678Zm0 .392h.328v-.274h-.327l-.001.273Zm.43-.392.33.001v-.679h-.33v.678Zm0 .392h.327v-.274h-.327v.273Zm12.589.738.012-.156.058-.037.085-.27.07-.066.085-7.445-2.26-.018-.036.041.027.065-.007.069.097 7.29.083.065.02.134.06.158.04.012v.153l1.665.005Zm-.239-6.06v.187h-.158v.11h-.123v-.11l-.899.003v.106h-.115v-.106h-.142v-.188c.48 0 .96-.002 1.438-.003Zm-1.251-.104-.003-1.551 1.019-.002.003 1.553h-1.02Zm1.256 2.863v.189h-.158v.108h-.123v-.108l-.899.002v.106h-.116v-.106h-.142v-.188c.48 0 .961-.002 1.438-.003Zm-1.251-.103-.003-1.551 1.02-.002.002 1.553h-1.019Zm1.024 2.76-1.019.003-.003-1.52 1.02-.002.003 1.52Zm-2.52.644-.747.001h-.859l-.005-.177-.062-.152-.023-.133-.072-.065-.092-3.653-.08-3.674.02-.018-.032-.094.018-.023 1.073-.009h.113l1.073.009.02.023-.033.094.02.018-.08 3.674-.093 3.653-.07.065-.024.133-.062.152-.005.176h.001Zm-.747-.155.501-.003.006-2h-.507v-.001h-.113l-.507.002.006 2 .501.002h.113Zm0-2.956h.419v.107h.116v-.106h.141v-.188h-.676l-.113-.001-.648-.002-.001.189h.16l-.001.108h.123v-.108h.48Zm0-.293h.465l.003-1.551-.468-.001h-.113l-.438-.001-.003 1.553h.554Zm0-2.473h.419v.107h.116v-.106h.141v-.188h-.789l-.648-.002-.001.188h.16l-.001.11h.123v-.11l.367.001h.113Zm0-.293h.465l.003-1.551-.468-.001h-.551l-.003 1.552h.554Zm-3.602.11v.187h.158v.11h.124v-.11l.898.003v.106h.116v-.106h.141v-.188c-.48 0-.96-.002-1.438-.003Zm1.251-.104.003-1.551-1.02-.002-.002 1.553h1.02Zm-1.256 2.863v.189h.158v.108h.123v-.108l.898.002v.106h.117v-.106h.141v-.188c-.48 0-.96-.002-1.438-.003Zm1.25-.103.004-1.551-1.02-.002-.002 1.553h1.019Zm-1.024 2.76 1.02.003.002-1.52-1.019-.002-.003 1.52Zm-.46.644-.012-.156-.058-.037-.085-.27-.071-.066-.084-7.445 2.26-.018.037.041-.028.065.007.069-.097 7.29-.084.065-.02.134-.058.158-.04.012-.001.153-1.666.005Z"/><path d="M22.73 16.595V16.5h-.086l-1.692.003v.169l1.606-.003v.011h.073v.085l.68-.002-.002.029-.004.087h2.324l-.003.252-.002.086.088-.001 1.473-.009.01.54-1.44.002h-.087v.085l.001.128h-3.376v-.016l-.172.001v.1l.002.084h3.545l.003.216v.086h.001l.007.437-4.727.002v.17l4.79-.003.014.273.004.08h.082l1.455-.005h.095l-.085.115-.016.02v.003l-1.456-.002v.163l-.086.002.12 7.402h-.957v.098h.972l.013.012.02.018-1.104-.001v.074h-.026v.098l1.198.002.013.102.008.06.06.012.028.006.005.098.003.081h.083l1.836-.008 1.234.029.191-.15-1.202-.014-.755-.126-.099-7.799.068-.01.003-.07v-.02l.1-.133.017-.021V19.4l.003-.094.002-.085-.088-.001-.113-.002-.003-.2 6.939-.005.02-.17-6.963.006v-.05l.286-.415.014-.02.001-.022.009-.15.176-.325.069-.126-.145.002-.418.003-.009-.52.039-.058.085-.131h-.158l-1.525.01.003-.166.026-.037.095-.133H23.51l.102-.118h-.187l-.695.002ZM28.04 28.6l-7.087-.01v.17l6.8.008c.096-.055.192-.11.287-.168Zm-4.877-1.384-1.415-.003v.077h-.018v.098h1.446v-.098h-.013v-.074Zm-.117-.125-1.197.002v.098l1.197-.002v-.098Zm4.161-8.072.004.2-1.286.004-.012-.238-.002-.046-.04-.023-.018-.01-.007-.474 1.582-.01-.21.305-.016.022v.027l.003.16.002.082Zm.012.675.1 7.86v.021l-1.05.005-.004-.082-.003-.065-.065-.014-.034-.007-.025-.198-.004-.03-.023-.02-.068-.063-.12-7.41 1.296.003Zm-2.088-.35-2.319-.024v.169l2.317.023.002-.169Zm-3.008-.026-1.17-.008v.17l1.17.007v-.17Zm5.387-1.065-1.665.01-.002-.345 1.356-.002v.001h.085l.358-.004-.117.216-.01.016v.02l-.005.088Z"/><path d="m22.072 19.395-.02.069v.012l-.005.15-.001.019.012.014.043.053-.024.069-.01.03.024.021.02.019.016.015.022-.002.196-.016.27-.003.2.053.056.015.006-.057.008-.07v-.012l-.004-.012-.016-.035.052-.059.012-.013v-.018l.003-.146v-.019l-.011-.013-.068-.08-.03-.067-.012-.026-.03-.002a3.829 3.829 0 0 0-.309-.008 6.332 6.332 0 0 0-.311.012l-.027.002-.013.023-.043.071-.003.006-.002.006v-.001Zm.079.09.016-.058.026-.044c.097-.005.19-.01.28-.01.09-.002.18 0 .271.006l.021.045.003.007.004.005.06.07-.002.11-.06.069-.021.023.012.029.023.051-.149-.04-.006-.001h-.007l-.281.003h-.004l-.147.012.015-.044.009-.025-.017-.021-.05-.06.005-.127h-.001Zm3.638.305-.078-.023-.006-.002h-.007l-.36-.004h-.006l-.005.001-.207.04-.002-.219.006-.067.045-.059.004-.005.003-.005.016-.039a3.53 3.53 0 0 1 .63.007l.011.005-.001.126-.015.008-.025.014v.028l-.003.194Zm-.1.073.134.04.064.019v-.066l.003-.23.015-.009.026-.014v-.028l.002-.183v-.03l-.026-.014-.045-.024-.01-.005-.01-.001a4 4 0 0 0-.69-.005l-.03.002-.01.027-.027.061-.05.065-.009.012-.001.014-.008.081v.005l.003.28v.06l.059-.011.261-.05.348.004Zm1.686-.347 6.856.001v.165l-6.857-.001v-.165Zm6.776.591-6.844-.086.002-.165 6.844.086-.002.165Zm-26.286-.165 6.843-.086.002.165-6.843.086-.002-.165Zm6.778-.261-6.857.001v-.165l6.857-.001v.164Z"/><path fill-rule="evenodd" clip-rule="evenodd" d="m33.536 22.101-6.18-.064-.02.212 6.13.028.07-.176Zm-.233.557-5.933-.074-.027.21 5.878.046.083-.182Zm-4.557-.815-1.01.002-.002-1.288 1.01-.002.002 1.288Zm-.126-.502-.33.001-.001-.679h.33l.001.678Zm0 .392h-.328v-.274h.328v.274Zm-.429-.392-.33.001-.002-.679h.33l.002.678Zm0 .392h-.328v-.274h.328v.274Z"/><path d="M20.952 17.125a.745.745 0 0 1 .584.21.716.716 0 0 1 .002 1.026.745.745 0 0 1-.586.21v.152l.063.002a.9.9 0 0 0 .632-.258.866.866 0 0 0-.002-1.24.902.902 0 0 0-.633-.255c-.02 0-.04 0-.06.002v.15Z"/><path fill-rule="evenodd" clip-rule="evenodd" d="m22.085 17.6 4.124-.002-.009.124-.114.18v.153l-.333-.002v.043h-.138v.098h-.32v-.098h-.237v.097h-.319v-.097h-.237v.1h-.319v-.1h-.175v.099h-.32v-.099h-.151v.097h-.32v-.097h-.153v.1h-.319v-.1h-.146v.096h-.32v-.096h-.119l-.074-.496Zm8.284 4.243-1.01.002-.002-1.288 1.01-.002.002 1.288Zm-.126-.502-.33.001-.001-.679h.33l.001.678Zm0 .392h-.327l-.001-.274h.328v.274Zm-.429-.392-.33.001-.002-.679h.33l.002.678Zm0 .392h-.328v-.274h.328v.274Zm2.166.11-1.009.002-.002-1.288 1.009-.002.002 1.288Zm-.126-.502-.33.001-.002-.679h.331l.001.678Zm0 .392h-.327v-.274h.327v.274Zm-.429-.392-.33.001-.002-.679h.33l.002.678Zm0 .392h-.328v-.274h.327l.001.274Zm2.206.11-1.009.002-.002-1.288 1.009-.002.002 1.288Zm-.126-.502-.33.001-.001-.679h.33l.002.678Zm0 .392h-.327v-.274h.327v.274Zm-.429-.392-.33.001-.001-.679h.33l.001.678Zm0 .392h-.328v-.274h.328v.274Zm-4.33 2.733-1.01.002-.002-1.289 1.01-.002.002 1.289Zm-.126-.502h-.33l-.001-.678h.33l.001.678Zm0 .391h-.328v-.273l.328-.001v.274Zm-.429-.39h-.33l-.002-.68h.33l.002.679Zm0 .39h-.328v-.273l.328-.001v.274Zm2.178.111-1.01.002-.002-1.289 1.01-.002.002 1.289Zm-.126-.502h-.33l-.001-.678h.33l.001.678Zm0 .391h-.327l-.001-.273.328-.001v.274Zm-.429-.39h-.33l-.002-.68h.33l.002.679Zm0 .39h-.328v-.273l.328-.001v.274Zm2.166.111-1.009.002-.002-1.289 1.009-.002.002 1.289Zm-.126-.502h-.33l-.002-.678h.331l.001.678Zm0 .391h-.327v-.273l.327-.001v.274Zm-.429-.39h-.33l-.002-.68h.33l.002.679Zm0 .39h-.328v-.273l.327-.001.001.274Zm-2.679 2.685-1.01.001-.002-1.288 1.01-.002.002 1.289Zm-.126-.502h-.33l-.001-.678.33-.001.001.678Zm0 .39-.328.002v-.275h.328v.274Zm-.429-.39h-.33l-.002-.678.33-.001.002.678Zm0 .39-.328.002v-.275h.328v.274Zm1.939.112-.77.001-.002-1.288 1.008-.002.003 1.066-.24.223Zm.113-.503-.33.001-.001-.679h.33l.001.678Zm0 .392h-.327l-.001-.274h.328v.273Zm-.429-.392-.33.001-.002-.679h.33l.002.678Zm0 .392h-.328v-.274h.328v.273Z"/><path d="M17.9 6.598h2.361c.464 0 .82.107 1.066.323.246.216.368.487.368.812a.995.995 0 0 1-.258.693c-.172.189-.431.34-.777.449.429.095.75.245.965.449.215.205.322.462.322.775 0 .237-.061.449-.183.633-.121.184-.324.34-.607.468a2.33 2.33 0 0 1-.964.191h-2.294v-.246h.373c.112 0 .195-.02.247-.058.051-.039.077-.083.077-.133V7.119c0-.091-.025-.16-.076-.206-.052-.047-.126-.07-.223-.07h-.399v-.245h.001Zm1.35 2.197h.858c.264 0 .474-.082.63-.245.156-.162.235-.429.235-.8 0-.23-.038-.409-.113-.537a.648.648 0 0 0-.324-.281c-.142-.059-.388-.089-.737-.089-.247 0-.401.02-.46.057-.06.038-.089.103-.089.198v1.697Zm0 .246v1.845c0 .086.025.15.073.194.048.043.134.065.259.065h.55c.363 0 .632-.085.806-.254.174-.17.261-.433.261-.791 0-.33-.09-.587-.27-.776-.18-.19-.429-.283-.746-.283h-.932Z"/><path d="M20.864 11.305v2.343c0 .283.023.497.07.64.07.214.197.385.382.512s.426.191.725.191c.412 0 .727-.113.943-.338.217-.225.325-.527.325-.904V11.55c0-.194-.013-.34-.039-.442a.577.577 0 0 0-.11-.234.416.416 0 0 0-.18-.124 1.156 1.156 0 0 0-.369-.041v-.246h1.71v.246h-.123c-.191 0-.334.054-.428.164-.093.108-.14.266-.14.473v2.352c0 .514-.14.908-.417 1.182-.313.309-.73.463-1.249.463-.45 0-.803-.068-1.06-.203a1.224 1.224 0 0 1-.562-.58 1.764 1.764 0 0 1-.132-.726V11.39c.234-.001.453-.03.654-.086Z"/><path fill-rule="evenodd" clip-rule="evenodd" d="M17.932 34.99c1.632-.236 2.643-.934 3.145-2.011.501 1.077 1.512 1.775 3.144 2.01-1.632.235-2.643.933-3.144 2.01-.502-1.077-1.513-1.775-3.145-2.01Zm-7.154.647c2.189 1.023 3.852.728 4.865-1.196-1.958-.483-3.584-.094-4.865 1.196Zm-2.974-2.03c1.846 1.365 3.418 1.345 4.65-.387-1.72-.795-3.272-.677-4.65.387Zm-2.691-2.772c1.499 1.726 3.037 2.042 4.625.614-1.503-1.142-3.044-1.358-4.625-.614Zm-2.246-3.01c1.183 1.947 2.646 2.512 4.456 1.365-1.287-1.374-2.77-1.84-4.456-1.366Zm-1.762-3.499c1.182 1.948 2.51 3.369 4.32 2.222-.745-1.233-2.634-2.695-4.32-2.221ZM.308 20.72c.582 1.691 1.304 3.65 3.76 2.82-.744-1.232-2.074-3.293-3.76-2.82ZM0 17.015c.257 1.756.747 3.555 3.172 3.409C2.874 19.1 1.746 16.776 0 17.015Zm.433-3.712c-.066 1.772.089 3.628 2.501 3.908-.053-1.354-.74-3.838-2.5-3.908Zm1.048-3.579c-.35 1.74-.495 3.597 1.842 4.246.165-1.346-.113-3.905-1.842-4.246ZM3.35 6.31c-.706 1.632-1.238 3.42.914 4.526.444-1.284.707-3.845-.913-4.526Zm2.497-2.888c-1.055 1.441-1.972 3.072-.12 4.612.72-1.157 1.548-3.6.12-4.612Zm5.223-.256c-.736-.246-3.811.752-3.557 3.121 1.36-.084 2.85-1.097 3.557-3.121Zm-.664 4.394c-1.32 1.015-2.435 1.654-4.236.628.634-1.161 2.614-1.924 4.236-.627ZM8.781 9.57c-1.071 1.265-2.023 2.121-4.004 1.491.369-1.266 2.14-2.422 4.004-1.49Zm-1.333 2.36c-.85 1.417-1.649 2.412-3.707 2.104.156-1.309 1.714-2.729 3.707-2.104Zm-.797 2.551c-.579 1.571-1.184 2.708-3.266 2.739-.084-1.346 1.192-3.037 3.266-2.739Zm-.286 2.708c-.322 1.64-.739 2.856-2.79 3.204-.298-1.315.693-3.181 2.79-3.204Zm.15 2.565c-.025 1.67-.22 2.938-2.177 3.633-.528-1.245.116-3.252 2.177-3.633Zm.533 2.466c.394 1.625.523 2.901-1.201 4.045-.823-1.08-.701-3.18 1.201-4.045Zm1.034 2.44c.685 1.53 1.045 2.763-.442 4.192-1.007-.918-1.271-3.006.442-4.191Zm1.624 2.174c.946 1.39 1.52 2.542.309 4.202-1.154-.732-1.785-2.742-.309-4.202Zm1.914 1.874c1.184 1.2 1.96 2.234 1.072 4.08a2.707 2.707 0 0 1-1.072-4.08Zm2.327 1.329c1.385 1.201 2.333 2.234 1.754 4.08-1.407-.292-2.696-2.21-1.754-4.08Zm17.275 5.6c-2.189 1.023-3.852.728-4.866-1.196 1.96-.483 3.585-.094 4.866 1.196Zm2.974-2.03c-1.846 1.365-3.418 1.345-4.65-.387 1.72-.795 3.272-.677 4.65.387Zm2.692-2.772c-1.5 1.726-3.038 2.042-4.626.614 1.503-1.142 3.045-1.358 4.626-.614Zm2.245-3.01c-1.183 1.947-2.646 2.512-4.456 1.365 1.287-1.374 2.77-1.84 4.456-1.366Zm1.763-3.499c-1.183 1.948-2.51 3.369-4.32 2.222.744-1.233 2.634-2.695 4.32-2.221Zm.796-3.606c-.582 1.691-1.304 3.65-3.76 2.82.744-1.232 2.074-3.293 3.76-2.82ZM42 17.015c-.257 1.756-.748 3.555-3.172 3.409.298-1.323 1.426-3.648 3.172-3.409Zm-.433-3.712c.066 1.772-.089 3.628-2.501 3.908.053-1.354.74-3.838 2.5-3.908Zm-1.048-3.579c.35 1.74.496 3.597-1.842 4.246-.165-1.346.114-3.905 1.842-4.246ZM38.65 6.31c.706 1.632 1.238 3.42-.914 4.526-.444-1.284-.707-3.845.913-4.526Zm-2.497-2.888c1.055 1.441 1.972 3.072.12 4.612-.72-1.157-1.548-3.6-.12-4.612Zm-5.223-.256c.736-.246 3.811.752 3.557 3.121-1.36-.084-2.85-1.097-3.557-3.121Zm.664 4.394c1.32 1.015 2.435 1.654 4.236.628-.634-1.161-2.614-1.924-4.236-.627Zm1.625 2.01c1.071 1.265 2.023 2.121 4.004 1.491-.369-1.266-2.14-2.422-4.004-1.49Zm1.333 2.36c.85 1.417 1.649 2.412 3.707 2.104-.156-1.309-1.714-2.729-3.707-2.104Zm.797 2.551c.579 1.571 1.184 2.708 3.266 2.739.084-1.346-1.192-3.037-3.266-2.739Zm.286 2.708c.322 1.64.739 2.856 2.79 3.204.298-1.315-.693-3.181-2.79-3.204Zm-.15 2.565c.025 1.67.22 2.938 2.177 3.633.528-1.245-.116-3.252-2.177-3.633Zm-.533 2.466c-.394 1.625-.523 2.901 1.201 4.045.822-1.08.701-3.18-1.201-4.045Zm-1.034 2.44c-.685 1.53-1.045 2.763.442 4.192 1.007-.918 1.271-3.006-.442-4.191Zm-1.624 2.174c-.946 1.39-1.52 2.542-.309 4.202 1.155-.732 1.785-2.742.309-4.202Zm-1.914 1.874c-1.184 1.2-1.96 2.234-1.072 4.08a2.707 2.707 0 0 0 1.072-4.08Zm-2.327 1.329c-1.385 1.201-2.333 2.234-1.754 4.08 1.407-.292 2.696-2.21 1.754-4.08Zm-13.9-28.481.025-.161.105-.047.268.564-.104.046c-.12-.15-.236-.242-.347-.28a.422.422 0 0 0-.316.012.307.307 0 0 0-.168.161c-.03.07-.03.14.002.21.02.043.048.077.082.1a.246.246 0 0 0 .125.04c.05.002.138-.01.264-.037a1.67 1.67 0 0 1 .405-.048.41.41 0 0 1 .365.251c.063.136.069.27.016.401a.542.542 0 0 1-.3.296.623.623 0 0 1-.464.03l-.043.182-.103.046-.277-.6.112-.05c.104.15.222.246.356.291a.5.5 0 0 0 .374-.01.346.346 0 0 0 .19-.18.278.278 0 0 0-.003-.235.222.222 0 0 0-.083-.097.273.273 0 0 0-.142-.035 1.895 1.895 0 0 0-.332.045c-.184.036-.319.042-.403.02a.405.405 0 0 1-.27-.24.475.475 0 0 1 .254-.66.556.556 0 0 1 .412-.015Zm.561-.35.75-.259.042.117-.143.05c-.047.016-.075.03-.082.043-.006.012-.003.037.01.073l.407 1.137c.014.04.027.063.037.067.017.008.045.005.082-.008l.158-.054.041.117-.75.258-.042-.116.156-.054c.04-.014.064-.028.07-.04.007-.014.003-.04-.011-.08L15.03 1.32c-.013-.036-.024-.056-.033-.06-.02-.007-.053-.002-.1.014l-.142.048-.042-.116Zm1.1-.41.41-.093 1.21 1.007-.203-.86c-.02-.082-.053-.138-.099-.169-.042-.027-.104-.032-.187-.015l-.028-.12.594-.134.029.12a.318.318 0 0 0-.133.051.171.171 0 0 0-.047.09.266.266 0 0 0 .001.13l.295 1.252-.13.03-1.256-1.053.215.915c.019.08.053.134.1.163.049.028.123.032.223.011l.029.12-.648.146-.028-.119c.082-.021.139-.058.169-.109a.218.218 0 0 0 .024-.168L16.11.95l-.02-.013a.33.33 0 0 0-.08-.047.176.176 0 0 0-.074.004l-.094.021-.028-.12ZM19.082.3l.05-.158.105-.012.113.675-.114.013a1.47 1.47 0 0 0-.2-.379.474.474 0 0 0-.352-.12.37.37 0 0 0-.293.206c-.067.123-.084.323-.05.601.028.234.083.404.165.51a.509.509 0 0 0 .39.117.444.444 0 0 0 .299-.154c.075-.088.116-.22.123-.397l.12-.015c.002.211-.047.376-.148.494a.607.607 0 0 1-.408.207.743.743 0 0 1-.707-.32.88.88 0 0 1-.155-.407.999.999 0 0 1 .052-.465.788.788 0 0 1 .235-.351.661.661 0 0 1 .565-.14.654.654 0 0 1 .21.095Zm.656-.19 1.334-.044.052.578-.116.004c-.037-.176-.086-.295-.148-.356a.305.305 0 0 0-.235-.087l-.319.01c-.018 0-.032.006-.04.015-.01.01-.014.025-.012.047l.018.546.117-.004a.212.212 0 0 0 .162-.077c.041-.05.062-.133.062-.25l.12-.003.027.779-.12.004c-.01-.13-.035-.22-.08-.266a.223.223 0 0 0-.179-.067l-.105.003.022.61c0 .017.006.03.017.037.011.009.032.012.063.011l.252-.008c.258-.009.403-.185.433-.527l.121-.004-.007.636-1.382.046-.005-.123.134-.005c.038-.001.063-.007.076-.018.012-.012.018-.028.017-.05l-.043-1.26c-.001-.021-.007-.036-.018-.046-.012-.009-.03-.013-.057-.012l-.157.005-.004-.124Zm3.564-.097-.196 1.623c-.002.016.005.032.02.047.012.01.034.018.065.022l.282.033-.018.147-.997-.116.018-.148.244.029c.037.004.065 0 .083-.015a.086.086 0 0 0 .033-.064l.146-1.208a.056.056 0 0 0-.016-.046.088.088 0 0 0-.056-.025l-.32-.037.017-.136a1.87 1.87 0 0 0 .358-.03.868.868 0 0 0 .24-.088l.097.011Zm1.709 1.242a.337.337 0 0 1-.2.147.568.568 0 0 1-.613-.217c-.089-.119-.111-.268-.069-.447a.627.627 0 0 1 .287-.4.61.61 0 0 1 .478-.083.582.582 0 0 1 .409.33c.087.178.098.398.035.664-.052.219-.13.397-.234.535a.805.805 0 0 1-.35.28.686.686 0 0 1-.407.026.532.532 0 0 1-.304-.166.276.276 0 0 1-.066-.249.204.204 0 0 1 .086-.13.184.184 0 0 1 .148-.023.18.18 0 0 1 .114.077c.027.04.034.082.024.126a.183.183 0 0 1-.071.097c-.017.013-.026.024-.028.033-.003.015.004.032.023.05a.257.257 0 0 0 .114.047c.083.02.161.014.235-.017a.5.5 0 0 0 .21-.191c.065-.097.118-.231.16-.403l.02-.087-.001.001Zm-.147-.86a.273.273 0 0 0-.241.06c-.074.06-.13.165-.166.317-.033.139-.029.248.013.327a.284.284 0 0 0 .197.148c.089.02.173.002.253-.055.08-.056.134-.15.166-.283a.5.5 0 0 0-.02-.344.295.295 0 0 0-.201-.17Zm1.63 1.22a.498.498 0 0 1 .23.216.463.463 0 0 1 .03.372.473.473 0 0 1-.28.309.742.742 0 0 1-.521.006.756.756 0 0 1-.283-.151.413.413 0 0 1-.133-.457.258.258 0 0 1 .107-.146.182.182 0 0 1 .156-.02c.05.017.085.045.105.088.02.042.022.09.005.142a.17.17 0 0 1-.054.083.222.222 0 0 1-.102.042c-.031.006-.048.012-.05.02-.007.019-.003.046.01.08a.25.25 0 0 0 .08.097.58.58 0 0 0 .171.081c.123.039.224.038.301-.003.077-.04.138-.127.182-.262.045-.14.053-.246.022-.318-.03-.072-.095-.123-.192-.154a.736.736 0 0 0-.106-.022.608.608 0 0 1-.08-.016.132.132 0 0 1-.07-.046.073.073 0 0 1-.009-.068.072.072 0 0 1 .047-.049.119.119 0 0 1 .078.002l.078.027.05.019c.104.032.187.031.251-.002.064-.032.113-.101.147-.206.042-.13.049-.228.02-.295-.03-.067-.09-.114-.183-.143a.425.425 0 0 0-.219-.02c-.059.013-.09.029-.096.046-.004.013.002.032.017.057.038.07.05.129.033.18a.144.144 0 0 1-.079.088.174.174 0 0 1-.128.006.157.157 0 0 1-.103-.093.228.228 0 0 1 .002-.162.37.37 0 0 1 .182-.214c.127-.07.28-.078.455-.023a.594.594 0 0 1 .351.254.43.43 0 0 1 .044.37.4.4 0 0 1-.16.216.504.504 0 0 1-.306.07v-.001Zm1.673.72a.34.34 0 0 1-.225.107.562.562 0 0 1-.56-.327c-.064-.132-.057-.282.02-.45a.632.632 0 0 1 .358-.34.608.608 0 0 1 .485.006c.174.076.287.21.338.4.051.19.02.41-.093.658a1.437 1.437 0 0 1-.333.482.815.815 0 0 1-.398.21.684.684 0 0 1-.405-.049.525.525 0 0 1-.266-.219.276.276 0 0 1-.017-.257.207.207 0 0 1 .11-.111.185.185 0 0 1 .15.003c.045.02.078.053.096.098a.153.153 0 0 1 0 .128.184.184 0 0 1-.09.082c-.018.01-.029.018-.033.027-.006.014-.003.032.013.054.014.02.05.043.103.067a.38.38 0 0 0 .234.027.508.508 0 0 0 .242-.15 1.23 1.23 0 0 0 .235-.365l.036-.081Zm.022-.872a.272.272 0 0 0-.248.014c-.084.045-.159.139-.224.28-.059.131-.076.239-.05.324.024.084.08.145.164.182a.3.3 0 0 0 .26-.007.47.47 0 0 0 .217-.247.5.5 0 0 0 .046-.341.29.29 0 0 0-.165-.205Z"/></g><defs><clipPath id="a"><path fill="#fff" d="M0 0h42v37H0z"/></clipPath></defs></svg>