<svg width="42" height="38" fill="none" xmlns="http://www.w3.org/2000/svg"><path fill-rule="evenodd" clip-rule="evenodd" d="M21.009 5.248c7.076 0 12.813 5.624 12.813 12.56 0 6.938-5.737 12.562-12.814 12.562-7.076 0-12.813-5.624-12.813-12.561S13.932 5.248 21.01 5.248Zm0-.585c7.405 0 13.41 5.886 13.41 13.146 0 7.26-6.005 13.145-13.41 13.145-7.406 0-13.41-5.885-13.41-13.145S13.603 4.663 21.01 4.663Z" fill="#fff"/><path d="M19.287 17v-.095h.086l1.692.002v.17l-1.606-.003v.01h-.073v.085l-.68-.002.002.03.004.087h-2.325l.004.251.002.086h-.088l-1.474-.01-.008.54 1.439.003h.086v.212h3.375v-.016l.173.002v.1l-.002.084H16.35l-.003.215v.087h-.001l-.007.436 4.727.003v.169l-4.79-.003-.013.273-.005.081h-.082l-1.455-.006-.095.001.085.114.016.021v.003l1.456-.002v.163l.086.001-.12 7.402h.957v.098h-.971l-.014.013-.02.017h1.104v.073h.026v.098l-1.198.003-.013.102-.008.06-.06.012-.028.006-.005.098-.004.08h-.082l-1.829-.008-1.242.029a9.662 9.662 0 0 1-.175-.137l1.094-.01.848-.142.099-7.8-.068-.01-.002-.07-.001-.02-.1-.132-.016-.022v-.026l-.003-.094-.002-.086h.087l.113-.002.004-.2-6.94-.006a14.543 14.543 0 0 1-.02-.169l6.963.006v-.05l-.286-.415-.014-.02-.001-.023-.009-.149-.176-.326-.068-.125.145.001.418.004.008-.52-.038-.06-.086-.13.159.001 1.524.01-.002-.166-.027-.038-.094-.133h2.412l-.102-.117h.188l.694.002V17Zm-5.309 12.004 7.087-.009v.169l-6.8.009a15.49 15.49 0 0 1-.287-.169Zm4.877-1.384 1.415-.003v.077h.018v.098h-1.446v-.098h.014v-.074Zm.117-.124 1.197.001v.098l-1.197-.001v-.098Zm-4.16-8.073-.005.2 1.286.004.012-.238.002-.045.04-.024.018-.01.008-.473-1.583-.01.211.305.016.022-.001.026-.003.16-.001.083Zm-.013.675-.1 7.86v.022l1.05.005.005-.083.003-.065.065-.014.034-.006.025-.198.004-.03.023-.021.067-.063.121-7.409-1.297.002Zm2.089-.35 2.318-.024.001.17-2.318.023-.001-.17Zm3.007-.026 1.17-.007v.169l-1.169.007v-.169Zm-5.386-1.065 1.665.01.001-.345-1.355-.001h-.086l-.358-.004.117.217.01.016v.019l.005.089Z" fill="#fff"/><path d="m19.945 19.799.02.07v.011l.006.15v.019l-.011.014-.044.053.024.069.01.03-.023.021-.02.019-.017.015-.021-.002-.196-.016-.271-.003-.199.053-.056.015-.006-.057-.008-.07-.001-.012.005-.011.016-.036-.052-.059-.012-.013v-.018l-.003-.146v-.018l.012-.014.067-.08.03-.066.012-.027.03-.002c.103-.007.205-.01.309-.008.103.002.206.006.311.013l.027.001.014.023.042.072.003.005.002.007v-.002Zm-.079.09-.016-.057-.026-.044a6.445 6.445 0 0 0-.28-.011c-.09-.001-.18 0-.271.006l-.02.046-.004.006-.004.005-.06.071.002.11.06.068.022.023-.013.029-.022.051.148-.04h.013l.281.002h.004l.147.012-.015-.044-.009-.025.017-.021.05-.06-.005-.127h.001Zm-3.638.305.078-.022.006-.002h.007l.361-.005h.006l.004.001.207.04.002-.218-.006-.068-.045-.058-.004-.006-.002-.005-.017-.038a3.488 3.488 0 0 0-.63.006l-.01.006v.125l.016.009.025.013v.029l.002.193Zm.1.073-.135.04-.064.019v-.066l-.003-.23-.015-.009-.025-.014v-.028l-.002-.183v-.03l.026-.013.045-.025.01-.005h.01a4.012 4.012 0 0 1 .689-.006l.03.003.012.027.026.06.05.065.009.012.001.014.008.081v.005l-.003.28v.06l-.06-.011-.26-.05-.349.004Z" fill="#fff"/><path fill-rule="evenodd" clip-rule="evenodd" d="m8.481 22.506 6.18-.064.02.212-6.13.028-.07-.176Zm.232.556 5.934-.074.027.21-5.878.046-.082-.182Zm4.557-.815 1.01.002.002-1.288-1.009-.002-.002 1.288Zm.127-.502h.33l.002-.677-.331-.001-.002.678Zm0 .391h.327v-.273l-.327-.001v.274Zm.43-.39h.33v-.678l-.33-.001v.678Zm0 .39h.327v-.273l-.328-.001v.274Z" fill="#fff"/><path d="M21.065 17.53a.746.746 0 0 0-.585.21.716.716 0 0 0-.001 1.025.745.745 0 0 0 .586.211v.151a.901.901 0 0 1-.695-.256.863.863 0 0 1 .002-1.24.902.902 0 0 1 .633-.255c.02 0 .04 0 .06.002v.151Z" fill="#fff"/><path fill-rule="evenodd" clip-rule="evenodd" d="m19.932 18.004-4.124-.001.009.123.114.18v.153l.333-.002v.043h.138v.098h.32V18.5h.237v.097h.319V18.5h.237v.1h.319v-.1h.175v.099h.32V18.5h.151v.097h.32V18.5h.153v.1h.319v-.1h.146v.096h.32V18.5h.12l.074-.496Zm-8.284 4.243 1.009.002.002-1.288-1.009-.002-.002 1.288Zm.126-.502h.33l.001-.677-.33-.001-.002.678Zm0 .391h.327v-.273l-.327-.001v.274Zm.429-.39h.33l.001-.678-.33-.001-.001.678Zm0 .39h.328v-.273l-.328-.001v.274Zm-2.166.111 1.009.002.002-1.288-1.009-.002-.002 1.288Zm.125-.502h.331l.001-.677-.33-.001-.002.678Zm0 .391h.328v-.273l-.327-.001v.274Zm.43-.39h.33l.001-.678-.33-.001-.001.678Zm0 .39h.327l.001-.273-.328-.001v.274Zm-2.206.111 1.009.002.002-1.288-1.009-.002-.002 1.288Zm.126-.502h.33l.001-.677-.33-.001-.002.678Zm0 .391h.327v-.273l-.327-.001v.274Zm.429-.39h.33l.002-.678-.33-.001-.002.678Zm0 .39h.327l.001-.273-.328-.001v.274Zm4.329 2.734 1.01.001.002-1.287-1.009-.002-.002 1.287Zm.127-.502h.33l.002-.678h-.331l-.002.678Zm0 .39.327.002v-.275h-.327v.274Zm.43-.39h.33v-.678h-.33v.678Zm0 .39.327.002v-.275h-.328v.274Zm-2.179.112 1.009.001.002-1.287-1.009-.002-.002 1.287Zm.126-.502h.33l.001-.678h-.33l-.002.678Zm0 .39.327.002v-.275h-.327v.274Zm.429-.39h.33l.001-.678h-.33l-.001.678Zm0 .39.328.002v-.275h-.328v.274Zm-2.166.112 1.009.001.002-1.287-1.009-.002-.002 1.287Zm.125-.502h.331l.001-.678h-.33l-.002.678Zm0 .39.328.002v-.275h-.327v.274Zm.43-.39h.33l.001-.678h-.33l-.001.678Zm0 .39.327.002.001-.275h-.328v.274Zm2.678 2.685 1.01.002.002-1.288-1.009-.001-.002 1.287Zm.127-.501h.33l.002-.678h-.331l-.002.677Zm0 .39.327.001v-.274h-.327v.273Zm.43-.39h.33v-.678h-.33v.677Zm0 .39.327.001v-.274h-.328v.273Zm-1.939.111.77.002.002-1.288-1.01-.002-.001 1.065a8.4 8.4 0 0 0 .239.223Zm-.114-.502.33.001.001-.678-.33-.001-.001.678Zm0 .391h.328v-.273l-.328-.001v.274Zm.429-.39h.33l.002-.678-.33-.001-.002.678Zm0 .39h.328v-.273l-.327-.001-.001.274Zm12.59.74.012-.156.058-.037.085-.27.07-.067.085-7.444-2.26-.018-.036.04.027.065-.007.07.097 7.29.083.064.02.135.059.157.04.012v.154l1.666.005Zm-.239-6.061v.188h-.158v.109h-.124v-.109l-.898.002v.106h-.116v-.106h-.141v-.188l1.438-.002Zm-1.252-.103-.002-1.552 1.019-.002.003 1.554h-1.02Zm1.257 2.863v.188h-.158v.109h-.123v-.108l-.9.001.001.106h-.116v-.106h-.142v-.187l1.438-.003Zm-1.251-.103-.003-1.552 1.019-.002.003 1.554h-1.02Zm1.024 2.76-1.019.002-.003-1.52 1.02-.001.002 1.52Zm-2.52.644-.747.001h-.113l-.746-.001-.005-.177-.062-.151-.023-.134-.072-.064-.092-3.653-.08-3.674.02-.019-.033-.094.019-.023 1.073-.008v-.001h.113l1.073.01.02.022-.034.094.02.019-.08 3.674-.092 3.653-.07.064-.024.134-.062.151-.005.177h.001Zm-.747-.155.501-.003.006-2-.507-.001h-.113l-.507.001.006 2 .5.002h.114Zm0-2.957.418.001v.106h.117v-.106h.141v-.187l-.676-.001h-.113l-.649-.002v.188h.16l-.001.109h.123v-.108h.48Zm0-.292h.465l.003-1.552h-.581l-.438-.002-.003 1.554h.554Zm0-2.473h.418v.107h.117v-.106h.141v-.188l-.676-.001h-.113l-.649-.001v.188h.16l-.001.109h.123v-.109h.367l.113.001Zm0-.293h.465l.003-1.552h-.581l-.438-.001-.003 1.553h.554Zm-3.602.109v.188h.158v.109h.123v-.109l.899.002v.106h.116v-.106h.141v-.188l-1.438-.002Zm1.251-.103.003-1.552-1.02-.002-.002 1.554h1.02Zm-1.257 2.863v.188h.159v.109h.123v-.108l.898.001v.106h.116v-.106h.142v-.187l-1.438-.003Zm1.252-.103.003-1.552-1.02-.002-.002 1.554h1.019Zm-1.025 2.76 1.02.002.002-1.52-1.019-.001-.003 1.52Zm-.46.644-.012-.156-.058-.037-.085-.27-.071-.067-.084-7.444 2.26-.018.036.04-.028.065.008.07-.097 7.29-.084.064-.02.135-.058.157-.04.012-.001.154-1.666.005Z" fill="#fff"/><path d="M22.73 17v-.095h-.086l-1.692.002v.17l1.606-.003v.01h.073v.085l.68-.002-.002.03-.004.087h2.324l-.004.251v.086h.087l1.473-.01.009.54-1.44.003h-.086v.212h-3.375v-.016l-.172.002v.1l.002.084h3.545l.003.215v.087h.001l.007.436-4.727.003v.169l4.79-.003.014.273.003.081h.083l1.455-.006.095.001-.085.114-.016.021v.003l-1.456-.002v.163l-.086.001.12 7.402h-.957v.098h.971l.014.013.019.017h-1.103v.073h-.026v.098l1.198.003.013.102.008.06.06.012.028.006.005.098.003.08h.083l1.836-.008 1.234.03.191-.15-1.202-.014-.755-.126-.099-7.8.068-.01.003-.07v-.02l.1-.132.017-.022v-.026l.003-.094.002-.086h-.088l-.113-.002-.004-.2 6.94-.006.02-.169-6.963.006v-.05l.286-.415.014-.02.001-.023.009-.149.176-.326.069-.125-.145.001-.418.004-.009-.52.039-.06.085-.13-.158.001-1.525.01.003-.166.026-.038.095-.133H23.51l.102-.117h-.187l-.695.002V17Zm5.309 12.004-7.087-.009v.169l6.8.009c.096-.055.192-.111.287-.169ZM23.16 27.62l-1.415-.003v.077h-.017v.098h1.446v-.098h-.014v-.074Zm-.116-.124-1.197.001v.098l1.197-.001v-.098Zm4.161-8.073.004.2-1.286.004-.012-.238-.002-.045-.04-.024-.018-.01-.007-.473 1.582-.01-.21.305-.016.022v.026l.003.16.002.083Zm.012.675.1 7.86v.022l-1.05.005-.004-.083-.003-.065-.065-.014-.034-.006-.025-.198-.005-.03-.022-.021-.068-.063-.12-7.409 1.296.002Zm-2.088-.35-2.319-.024-.001.17 2.318.023.002-.17Zm-3.008-.026-1.17-.007v.169l1.17.007v-.169Zm5.387-1.065-1.665.01-.002-.345 1.356-.001h.085l.358-.004-.117.217-.01.016v.019l-.005.089Z" fill="#fff"/><path d="m22.072 19.799-.02.07v.011l-.006.15v.019l.012.014.043.053-.024.069-.01.03.024.021.02.019.016.015.022-.002.196-.016.27-.003.2.053.056.015.006-.057.007-.07.002-.012-.005-.011-.016-.036.052-.059.012-.013v-.018l.003-.146v-.018l-.012-.014-.067-.08-.03-.066-.012-.027-.03-.002a3.874 3.874 0 0 0-.309-.008 6.206 6.206 0 0 0-.311.013l-.027.001-.014.023-.042.072-.003.005-.002.007v-.002Zm.079.09.016-.057.026-.044c.097-.006.19-.01.28-.011.09-.001.18 0 .271.006l.02.046.004.006.004.005.06.071-.002.11-.06.068-.022.023.013.029.022.051-.148-.04h-.013l-.281.002h-.004l-.147.012.015-.044.009-.025-.017-.021-.05-.06.005-.127h-.001Zm3.638.305-.078-.022-.006-.002h-.007l-.361-.005h-.005l-.005.001-.207.04-.002-.218.006-.068.045-.058.004-.006.002-.005.017-.038a3.493 3.493 0 0 1 .63.006l.011.006-.001.125-.015.009-.026.013v.029l-.002.193Zm-.1.073.134.04.064.019v-.066l.003-.23.015-.009.025-.014v-.028l.003-.183v-.03l-.026-.013-.046-.025-.008-.005h-.011a4 4 0 0 0-.69-.006l-.03.003-.01.027-.027.06-.05.065-.01.012v.014l-.008.081v.005l.003.28v.06l.059-.011.261-.05.348.004Zm1.686-.347 6.856.002v.164l-6.857-.001v-.165Zm6.776.591-6.844-.086.002-.165 6.844.086-.002.165Zm-26.286-.165 6.843-.085.002.164-6.843.086-.002-.165Zm6.777-.261-6.856.001v-.164l6.857-.002v.165Z" fill="#fff"/><path fill-rule="evenodd" clip-rule="evenodd" d="m33.536 22.506-6.18-.064-.02.212 6.13.028.07-.176Zm-.233.556-5.933-.074-.027.21 5.878.046.082-.182Zm-4.557-.815-1.01.002-.002-1.288 1.01-.002.002 1.288Zm-.126-.502h-.33l-.002-.677.331-.001.001.678Zm0 .391h-.328v-.273l.328-.001v.274Zm-.43-.39h-.33v-.678l.33-.001v.678Zm0 .39h-.327v-.273l.328-.001v.274Z" fill="#fff"/><path d="M20.952 17.53a.746.746 0 0 1 .585.21.716.716 0 0 1 .001 1.025.746.746 0 0 1-.586.211v.151l.063.002a.9.9 0 0 0 .632-.258.866.866 0 0 0-.002-1.24.902.902 0 0 0-.633-.255c-.02 0-.04 0-.06.002v.151Z" fill="#fff"/><path fill-rule="evenodd" clip-rule="evenodd" d="m22.085 18.004 4.124-.001-.009.123-.114.18-.001.153-.333-.002v.043h-.137v.098h-.32V18.5h-.237v.097h-.319V18.5h-.237v.1h-.32v-.1h-.174v.099h-.32V18.5h-.151v.097h-.32V18.5h-.153v.1h-.319v-.1h-.146v.096h-.32V18.5h-.12l-.074-.496Zm8.284 4.243-1.01.002-.002-1.288 1.01-.002.002 1.288Zm-.126-.502h-.33l-.001-.677.33-.001.001.678Zm0 .391h-.327l-.001-.273.328-.001v.274Zm-.43-.39h-.33l-.001-.678.33-.001.002.678Zm0 .39h-.327v-.273l.328-.001v.274Zm2.167.111-1.009.002-.002-1.288 1.009-.002.002 1.288Zm-.126-.502h-.33l-.002-.677.331-.001.001.678Zm0 .391h-.328v-.273l.328-.001v.274Zm-.43-.39h-.33v-.678l.33-.001v.678Zm0 .39h-.327v-.273l.327-.001v.274Zm2.207.111-1.009.002-.002-1.288 1.009-.002.002 1.288Zm-.126-.502h-.33l-.001-.677.33-.001.002.678Zm0 .391h-.328v-.273l.328-.001v.274Zm-.429-.39h-.33l-.001-.678.33-.001.001.678Zm0 .39h-.328v-.273l.328-.001v.274Zm-4.33 2.734-1.01.001-.002-1.287 1.01-.002.002 1.287Zm-.126-.502h-.33l-.002-.678h.331l.001.678Zm0 .39-.328.002v-.275h.328v.274Zm-.43-.39h-.33v-.678h.33v.678Zm0 .39-.327.002v-.275h.328v.274Zm2.179.112-1.01.001-.002-1.287 1.01-.002.002 1.287Zm-.126-.502h-.33l-.001-.678h.33l.001.678Zm0 .39-.327.002-.001-.275h.328v.274Zm-.43-.39h-.33l-.001-.678h.33l.002.678Zm0 .39-.327.002v-.275h.328v.274Zm2.167.112-1.009.001-.002-1.287 1.009-.002.002 1.287Zm-.126-.502h-.33l-.002-.678h.331l.001.678Zm0 .39-.328.002v-.275h.328v.274Zm-.43-.39h-.33v-.678h.33v.678Zm0 .39-.327.002v-.275h.327v.274Zm-2.678 2.685-1.01.002-.002-1.288 1.01-.001.002 1.287Zm-.126-.501h-.33l-.002-.678h.331l.001.677Zm0 .39-.328.001v-.274h.328v.273Zm-.43-.39h-.33v-.678h.33v.677Zm0 .39-.327.001v-.274h.328v.273Zm1.94.111-.77.002-.003-1.288 1.01-.002.001 1.065a8.4 8.4 0 0 1-.239.223Zm.113-.502-.33.001-.001-.678.33-.001.001.678Zm0 .391h-.327l-.001-.273.328-.001v.274Zm-.43-.39h-.33l-.001-.678.33-.001.002.678Zm0 .39h-.327v-.273l.328-.001v.274Z" fill="#fff"/><path d="M17.899 7.002h2.362c.464 0 .82.107 1.066.323.246.216.368.487.368.812a.995.995 0 0 1-.258.693c-.172.19-.431.34-.777.45.429.094.75.245.965.448.215.205.321.463.321.775 0 .238-.06.45-.182.633-.121.185-.324.34-.607.468a2.33 2.33 0 0 1-.964.191h-2.294v-.245h.373c.112 0 .195-.02.247-.059.051-.038.077-.083.077-.133V7.523c0-.09-.025-.16-.076-.206a.326.326 0 0 0-.223-.07h-.399v-.245h.001Zm1.351 2.197h.858c.264 0 .474-.082.63-.244.156-.163.235-.43.235-.8 0-.23-.038-.41-.113-.538a.648.648 0 0 0-.324-.28c-.142-.06-.388-.09-.737-.09-.247 0-.401.02-.46.057-.06.038-.089.103-.089.198V9.2Zm0 .246v1.845c0 .087.025.15.073.194.048.043.134.066.259.066h.55c.363 0 .632-.086.806-.255.174-.17.261-.433.261-.791 0-.329-.09-.586-.27-.776-.18-.189-.429-.283-.746-.283h-.932Z" fill="#fff"/><path d="M20.864 11.71v2.342c0 .284.023.497.07.641.07.214.197.384.381.511.186.128.427.192.725.192.413 0 .728-.113.944-.339.217-.224.325-.527.325-.904v-2.199c0-.193-.013-.34-.039-.441a.577.577 0 0 0-.11-.235.416.416 0 0 0-.181-.124 1.156 1.156 0 0 0-.368-.04v-.246h1.71v.245h-.123c-.192 0-.334.054-.428.164-.093.109-.14.267-.14.474v2.352c0 .514-.14.907-.417 1.182-.314.308-.73.462-1.25.462-.448 0-.802-.067-1.06-.202a1.224 1.224 0 0 1-.56-.581c-.089-.192-.133-.434-.133-.725v-2.444c.234-.002.452-.03.654-.086Z" fill="#fff"/><path fill-rule="evenodd" clip-rule="evenodd" d="M17.932 35.394c1.632-.236 2.643-.934 3.145-2.01.501 1.076 1.512 1.774 3.144 2.01-1.632.235-2.643.933-3.145 2.01-.501-1.077-1.512-1.775-3.144-2.01Zm-7.154.648c2.189 1.023 3.852.728 4.865-1.196-1.958-.483-3.584-.094-4.865 1.196Zm-2.974-2.03c1.846 1.365 3.418 1.345 4.65-.388-1.72-.794-3.272-.676-4.65.388ZM5.113 31.24c1.499 1.726 3.037 2.042 4.625.614-1.503-1.143-3.044-1.358-4.625-.614Zm-2.246-3.01c1.183 1.947 2.646 2.511 4.455 1.364-1.286-1.373-2.769-1.838-4.455-1.365Zm-1.762-3.499c1.182 1.948 2.51 3.368 4.319 2.221-.744-1.232-2.633-2.695-4.32-2.22Zm-.797-3.606c.581 1.69 1.304 3.65 3.76 2.82-.744-1.233-2.074-3.294-3.76-2.82ZM0 17.42c.257 1.755.747 3.554 3.172 3.408C2.873 19.505 1.746 17.18 0 17.42Zm.433-3.713c-.066 1.772.089 3.628 2.501 3.909-.053-1.355-.74-3.839-2.5-3.91Zm1.048-3.579c-.35 1.74-.496 3.597 1.842 4.246.165-1.345-.114-3.904-1.842-4.246ZM3.35 6.714c-.707 1.632-1.238 3.42.914 4.526.444-1.284.707-3.844-.913-4.526Zm2.497-2.888c-1.055 1.441-1.972 3.072-.12 4.613.72-1.158 1.548-3.6.12-4.613Zm5.223-.256c-.736-.245-3.811.753-3.557 3.121 1.36-.083 2.85-1.097 3.556-3.12Zm-.664 4.395c-1.32 1.014-2.435 1.654-4.236.628.634-1.162 2.614-1.924 4.236-.628Zm-1.625 2.01c-1.071 1.264-2.023 2.12-4.004 1.49.369-1.266 2.14-2.422 4.004-1.49Zm-1.333 2.359c-.85 1.418-1.649 2.413-3.707 2.104.156-1.308 1.714-2.728 3.707-2.104Zm-.797 2.552c-.579 1.57-1.185 2.707-3.266 2.738-.084-1.345 1.192-3.037 3.266-2.738Zm-.286 2.707c-.322 1.64-.739 2.856-2.79 3.205-.298-1.316.693-3.182 2.79-3.205Zm.149 2.565c-.024 1.67-.219 2.939-2.176 3.633-.528-1.244.116-3.252 2.176-3.633Zm.534 2.467c.394 1.625.523 2.9-1.201 4.045-.823-1.08-.701-3.18 1.201-4.045Zm1.034 2.44c.685 1.53 1.045 2.763-.442 4.191-1.007-.918-1.271-3.006.442-4.19Zm1.624 2.174c.946 1.39 1.52 2.542.309 4.202-1.154-.732-1.786-2.743-.309-4.202Zm1.914 1.874c1.184 1.2 1.96 2.233 1.072 4.08a2.707 2.707 0 0 1-1.072-4.08Zm2.327 1.329c1.385 1.2 2.333 2.234 1.754 4.08-1.407-.293-2.696-2.211-1.754-4.08Zm17.275 5.6c-2.19 1.023-3.852.728-4.866-1.196 1.96-.483 3.585-.094 4.866 1.196Zm2.974-2.03c-1.846 1.365-3.418 1.345-4.65-.388 1.72-.794 3.272-.676 4.65.388Zm2.692-2.772c-1.5 1.726-3.038 2.042-4.626.614 1.503-1.143 3.045-1.358 4.626-.614Zm2.244-3.01c-1.182 1.947-2.645 2.511-4.455 1.364 1.287-1.373 2.77-1.838 4.455-1.365Zm1.764-3.499c-1.183 1.948-2.51 3.368-4.32 2.221.744-1.232 2.634-2.695 4.32-2.22Zm.796-3.606c-.582 1.69-1.304 3.65-3.76 2.82.744-1.233 2.074-3.294 3.76-2.82ZM42 17.42c-.257 1.755-.748 3.554-3.172 3.408.298-1.323 1.426-3.648 3.172-3.408Zm-.434-3.713c.067 1.772-.088 3.628-2.5 3.909.053-1.355.74-3.839 2.5-3.91Zm-1.047-3.579c.35 1.74.496 3.597-1.842 4.246-.165-1.345.114-3.904 1.842-4.246Zm-1.87-3.414c.707 1.632 1.239 3.42-.913 4.526-.444-1.284-.707-3.844.913-4.526Zm-2.496-2.888c1.055 1.441 1.972 3.072.12 4.613-.72-1.158-1.548-3.6-.12-4.613ZM30.93 3.57c.736-.245 3.811.753 3.557 3.121-1.361-.083-2.85-1.097-3.557-3.12Zm.664 4.395c1.32 1.014 2.435 1.654 4.236.628-.634-1.162-2.614-1.924-4.236-.628Zm1.625 2.01c1.071 1.264 2.023 2.12 4.004 1.49-.369-1.266-2.14-2.422-4.004-1.49Zm1.333 2.359c.85 1.418 1.649 2.413 3.707 2.104-.156-1.308-1.715-2.728-3.707-2.104Zm.797 2.552c.579 1.57 1.184 2.707 3.266 2.738.084-1.345-1.192-3.037-3.266-2.738Zm.286 2.707c.322 1.64.739 2.856 2.79 3.205.298-1.316-.693-3.182-2.79-3.205Zm-.15 2.565c.025 1.67.22 2.939 2.177 3.633.527-1.244-.116-3.252-2.177-3.633Zm-.533 2.467c-.394 1.625-.523 2.9 1.201 4.045.822-1.08.701-3.18-1.201-4.045Zm-1.034 2.44c-.685 1.53-1.045 2.763.442 4.191 1.007-.918 1.271-3.006-.442-4.19Zm-1.624 2.174c-.946 1.39-1.52 2.542-.309 4.202 1.154-.732 1.785-2.743.309-4.202Zm-1.914 1.874c-1.184 1.2-1.96 2.233-1.072 4.08a2.707 2.707 0 0 0 1.072-4.08Zm-2.327 1.329c-1.385 1.2-2.333 2.234-1.754 4.08 1.407-.293 2.696-2.211 1.754-4.08ZM14.153 1.96l.025-.161.105-.047.268.565-.104.046c-.12-.15-.236-.243-.347-.28a.422.422 0 0 0-.316.011.307.307 0 0 0-.168.162c-.03.07-.03.14.002.209.02.044.048.077.082.1a.246.246 0 0 0 .125.04c.05.002.138-.01.264-.036a1.62 1.62 0 0 1 .405-.048c.086.007.16.03.221.073.061.042.11.101.144.177.063.136.069.27.016.402a.542.542 0 0 1-.3.295.623.623 0 0 1-.464.03l-.043.183-.104.045-.276-.6.111-.049c.104.15.223.246.357.29a.5.5 0 0 0 .374-.01.346.346 0 0 0 .19-.18.278.278 0 0 0-.003-.235.222.222 0 0 0-.083-.096.273.273 0 0 0-.142-.036 1.895 1.895 0 0 0-.332.046c-.184.035-.32.042-.404.02a.405.405 0 0 1-.27-.24.475.475 0 0 1 .255-.66.556.556 0 0 1 .412-.016Zm.56-.35.751-.259.042.117-.143.05c-.047.016-.075.03-.082.043-.006.013-.003.037.01.074l.407 1.136c.014.04.027.063.037.068.017.007.044.005.082-.008l.157-.054.042.116-.75.258-.042-.116.155-.053c.041-.015.065-.028.072-.041.006-.013.002-.04-.013-.08l-.407-1.137c-.013-.036-.024-.056-.033-.06-.02-.006-.053-.002-.1.014l-.142.049-.042-.117Zm1.1-.41.41-.092 1.21 1.007-.202-.86c-.02-.083-.053-.14-.099-.17-.042-.027-.104-.032-.187-.014l-.028-.12.594-.135.029.12a.318.318 0 0 0-.133.051.171.171 0 0 0-.047.09.266.266 0 0 0 .001.13l.295 1.253-.131.03-1.255-1.054.215.915c.019.08.053.134.1.163.049.029.123.033.223.011l.029.12-.648.147-.028-.12c.082-.021.139-.058.169-.109a.218.218 0 0 0 .024-.168l-.245-1.04-.019-.012a.33.33 0 0 0-.08-.047.176.176 0 0 0-.074.003l-.094.021-.028-.12Zm3.27-.496.05-.159.105-.012.112.675-.113.013a1.47 1.47 0 0 0-.2-.378.474.474 0 0 0-.352-.121.37.37 0 0 0-.293.206c-.067.123-.084.323-.05.602.028.234.083.403.165.51a.509.509 0 0 0 .39.117.444.444 0 0 0 .299-.154c.075-.089.116-.221.123-.398l.12-.014c.002.21-.047.375-.148.493a.607.607 0 0 1-.408.208.743.743 0 0 1-.707-.32.881.881 0 0 1-.155-.408.999.999 0 0 1 .051-.465.788.788 0 0 1 .236-.351.661.661 0 0 1 .565-.139.654.654 0 0 1 .21.094Zm.656-.19 1.334-.045.052.579-.116.003c-.037-.175-.086-.294-.148-.356a.305.305 0 0 0-.235-.087l-.319.01c-.019.001-.032.006-.04.016-.01.009-.014.025-.013.047l.02.546.116-.004a.212.212 0 0 0 .162-.077c.041-.05.062-.133.062-.25l.12-.004.027.78-.12.003c-.01-.13-.035-.22-.08-.266a.224.224 0 0 0-.179-.067l-.105.004.021.61c0 .016.007.029.018.037.011.008.032.012.063.01l.251-.008c.26-.009.404-.184.434-.527l.121-.004-.007.637-1.382.046-.005-.124.134-.005c.038 0 .063-.007.075-.018.013-.012.019-.028.018-.05L19.975.69c-.001-.021-.007-.036-.018-.046-.012-.009-.03-.013-.058-.012l-.156.005-.004-.123Zm3.564-.098-.196 1.623c-.002.017.005.033.02.047.012.011.034.019.065.022l.282.033-.018.147-.997-.116.018-.147.243.028c.038.004.066 0 .084-.015.019-.013.03-.035.033-.064l.146-1.207a.056.056 0 0 0-.017-.046.088.088 0 0 0-.055-.025l-.32-.037.017-.137c.153 0 .272-.01.358-.029a.868.868 0 0 0 .24-.089l.096.012h.001Zm1.709 1.242a.337.337 0 0 1-.2.147.568.568 0 0 1-.613-.217c-.089-.119-.111-.267-.069-.446a.627.627 0 0 1 .287-.4.61.61 0 0 1 .478-.084.582.582 0 0 1 .409.33c.087.178.098.399.035.664-.052.22-.13.398-.234.535a.805.805 0 0 1-.35.28.686.686 0 0 1-.407.026.532.532 0 0 1-.304-.165.276.276 0 0 1-.067-.25.204.204 0 0 1 .087-.129.185.185 0 0 1 .148-.024.18.18 0 0 1 .114.077c.027.04.034.083.024.127a.183.183 0 0 1-.071.096c-.017.013-.026.024-.028.033-.004.016.004.032.023.05a.257.257 0 0 0 .114.047c.083.02.161.014.235-.016a.5.5 0 0 0 .21-.192c.065-.097.118-.231.16-.403l.02-.086h-.001Zm-.147-.86a.273.273 0 0 0-.241.06c-.074.06-.13.165-.166.317-.033.14-.029.248.012.327a.284.284 0 0 0 .198.149c.089.02.173.002.253-.055a.468.468 0 0 0 .166-.284.5.5 0 0 0-.02-.343.295.295 0 0 0-.201-.17Zm1.63 1.22a.498.498 0 0 1 .23.216.463.463 0 0 1 .029.373.473.473 0 0 1-.28.308.742.742 0 0 1-.52.006.756.756 0 0 1-.283-.15.413.413 0 0 1-.133-.457.258.258 0 0 1 .107-.147.182.182 0 0 1 .156-.019c.05.016.085.045.105.087.02.043.022.09.005.142a.17.17 0 0 1-.054.083.222.222 0 0 1-.102.043c-.031.005-.048.012-.05.018-.007.02-.003.047.01.081.014.033.04.066.08.097s.097.058.17.082c.124.038.225.037.302-.003.077-.04.138-.128.182-.262.045-.14.053-.247.022-.319-.03-.072-.095-.123-.192-.154a.736.736 0 0 0-.106-.022.608.608 0 0 1-.08-.016.132.132 0 0 1-.07-.046.073.073 0 0 1-.009-.068.072.072 0 0 1 .047-.048.119.119 0 0 1 .078 0l.078.029.05.018c.104.032.187.032.251-.001s.113-.102.147-.207c.042-.13.049-.228.02-.294-.03-.067-.09-.115-.183-.144a.425.425 0 0 0-.219-.02c-.059.013-.09.029-.096.047-.004.012.002.031.017.057.038.069.05.128.033.179a.144.144 0 0 1-.079.088.174.174 0 0 1-.128.006.157.157 0 0 1-.104-.093.228.228 0 0 1 .003-.162.37.37 0 0 1 .182-.214c.127-.07.28-.078.455-.023a.593.593 0 0 1 .351.255.43.43 0 0 1 .044.369.4.4 0 0 1-.16.216.505.505 0 0 1-.306.07Zm1.673.72a.34.34 0 0 1-.225.107.562.562 0 0 1-.56-.327c-.064-.132-.057-.282.02-.45a.632.632 0 0 1 .358-.34.608.608 0 0 1 .485.007c.174.076.287.21.338.399.051.19.02.41-.093.659a1.437 1.437 0 0 1-.333.482.815.815 0 0 1-.398.21.683.683 0 0 1-.405-.05.526.526 0 0 1-.266-.218.276.276 0 0 1-.017-.258.207.207 0 0 1 .11-.11.185.185 0 0 1 .149.003c.046.02.079.052.097.097a.153.153 0 0 1-.001.128.184.184 0 0 1-.088.082c-.019.01-.03.019-.034.027-.006.014-.003.032.013.054.014.021.05.044.103.067a.38.38 0 0 0 .234.027.508.508 0 0 0 .242-.15c.084-.082.162-.204.235-.365l.036-.081Zm.022-.871a.272.272 0 0 0-.248.013c-.084.045-.159.139-.224.281-.06.13-.076.238-.051.323a.28.28 0 0 0 .165.182c.084.037.17.035.26-.006a.469.469 0 0 0 .217-.248.5.5 0 0 0 .046-.341.29.29 0 0 0-.165-.204Z" fill="#fff"/></svg>