<svg width="42" height="37" viewBox="0 0 42 37" fill="none" xmlns="http://www.w3.org/2000/svg">
<g clip-path="url(#clip0)">
<path fill-rule="evenodd" clip-rule="evenodd" d="M21.0086 4.84352C28.0853 4.84352 33.822 10.4672 33.822 17.4045C33.822 24.3417 28.0853 29.9654 21.0086 29.9654C13.9319 29.9654 8.19517 24.3417 8.19517 17.4045C8.19517 10.4672 13.9319 4.84352 21.0086 4.84352ZM21.0086 4.25903C28.4145 4.25903 34.4182 10.1445 34.4182 17.4045C34.4182 24.6645 28.4145 30.5499 21.0086 30.5499C13.6027 30.5499 7.59927 24.6645 7.59927 17.4045C7.59927 10.1445 13.603 4.25903 21.0086 4.25903Z" fill="#151515"/>
<path d="M19.2865 16.5952V16.5847L19.2869 16.5002H19.3727L21.0651 16.5028V16.6718L19.4589 16.6695V16.68H19.3859V16.7645L18.7065 16.7629L18.7078 16.7916L18.7119 16.8794H18.6216L16.3875 16.8797L16.3912 17.1305L16.3926 17.2167L16.3047 17.216L14.8315 17.2074L14.8227 17.7474L16.262 17.7493L16.3485 17.7497L16.3481 17.8338L16.3478 17.9619H19.7235V17.9457L19.8959 17.947L19.8952 18.0474L19.8946 18.1315H19.809H16.3498L16.3465 18.347V18.348L16.3461 18.4332H16.3451L16.338 18.8698L21.0655 18.8721V19.0411L16.2751 19.0388L16.2616 19.3117L16.2576 19.3926L16.1754 19.3922L14.7204 19.387L14.6248 19.3879L14.7106 19.5018L14.7264 19.5229V19.5252L16.1822 19.5233V19.6863L16.2683 19.6876L16.1478 27.0895H17.105V27.1875H16.1337L16.1199 27.2004L16.101 27.2176L17.2039 27.2166V27.2908H17.2299V27.3889L16.0323 27.3912L16.0192 27.4932L16.0115 27.5529L15.9515 27.5654L15.9233 27.5714L15.9186 27.6694L15.9145 27.7502L15.832 27.7499L14.0033 27.7417L12.7606 27.7701C12.7017 27.7252 12.6438 27.6793 12.5859 27.6331L13.6797 27.6242L14.5281 27.4813L14.6271 19.682L14.5594 19.6711L14.5567 19.6018L14.5561 19.582L14.4561 19.4493L14.4399 19.4279L14.4393 19.4011L14.4369 19.3071L14.4349 19.2216L14.5224 19.2206L14.6352 19.2193L14.6389 19.019L7.69958 19.0137C7.69251 18.9573 7.68611 18.9012 7.67972 18.8447L14.6419 18.8503L14.6429 18.8005L14.3558 18.3853L14.3423 18.3658L14.3409 18.3427L14.3325 18.1936L14.1558 17.8678L14.0878 17.7424L14.2329 17.7437L14.6507 17.7474L14.6591 17.2276L14.6207 17.1685L14.5355 17.0378L14.6938 17.0388L16.2182 17.0477L16.2158 16.882L16.1892 16.8447L16.095 16.7117H16.2603L18.5072 16.7114L18.4052 16.5942L18.5927 16.5946L19.2872 16.5962L19.2865 16.5952ZM13.9784 28.5997L21.0651 28.5905V28.7595L14.2649 28.7684C14.1686 28.7133 14.073 28.6568 13.978 28.5997H13.9784ZM18.8556 27.2159L20.2706 27.213V27.2899H20.2878V27.3879H18.8418V27.2899H18.8556V27.2156V27.2159ZM18.9721 27.0912L20.1689 27.0925V27.1905L18.9721 27.1892V27.0912ZM14.8113 19.0186L14.8076 19.2183L16.0933 19.2229L16.1051 18.9846L16.1074 18.9391L16.1475 18.9157L16.1653 18.9054L16.1727 18.4322L14.5904 18.4226L14.8012 18.7272L14.8167 18.7493L14.816 18.7757L14.8133 18.9351L14.8119 19.0183L14.8113 19.0186ZM14.7991 19.6939L14.6995 27.5532L14.6992 27.5753L15.7499 27.58L15.7539 27.4978L15.757 27.4328L15.8223 27.4189L15.8556 27.412L15.8812 27.2143L15.8852 27.1839L15.9078 27.1631L15.9755 27.1007L16.0963 19.6919L14.7995 19.6936L14.7991 19.6939ZM16.8878 19.3431L19.2061 19.32L19.2074 19.4889L16.8892 19.512L16.8878 19.3431ZM19.8956 19.3176L21.0651 19.3104L21.0658 19.4794L19.8962 19.4866L19.8956 19.3176ZM14.5086 18.253L16.1741 18.2629L16.1751 17.918L14.8197 17.9163V17.917L14.7342 17.9163L14.3763 17.913L14.4935 18.1292L14.5022 18.1454L14.5032 18.1645L14.5083 18.2533L14.5086 18.253Z" fill="#151515"/>
<path d="M19.9447 19.3946L19.9642 19.4639L19.9659 19.4695V19.4757L19.9706 19.6266L19.9713 19.6447L19.9599 19.6589L19.9164 19.712L19.9403 19.7807L19.9508 19.8107L19.9269 19.8325L19.9067 19.851L19.8905 19.8658L19.8686 19.8639L19.6727 19.8477L19.402 19.845L19.2034 19.8982L19.1468 19.9134L19.1408 19.8559L19.1334 19.7866L19.132 19.7741L19.1371 19.7625L19.1529 19.7266L19.1007 19.6681L19.0886 19.6546L19.0882 19.6365L19.0862 19.4906L19.0859 19.4724L19.0977 19.4586L19.165 19.3787L19.195 19.3124L19.2071 19.2856L19.2371 19.2837C19.3401 19.2767 19.4424 19.2744 19.5458 19.2757C19.6495 19.2771 19.7521 19.2817 19.8575 19.2883L19.8841 19.2899L19.8976 19.3127L19.9403 19.3843L19.9434 19.3896L19.9451 19.3962L19.9447 19.3946ZM19.8663 19.4843L19.8501 19.4272L19.8239 19.3833C19.7272 19.3777 19.6343 19.3738 19.5438 19.3724C19.4542 19.3715 19.3646 19.3731 19.2731 19.3787L19.2522 19.4243L19.2492 19.4309L19.2451 19.4358L19.1852 19.5068L19.1869 19.6167L19.2478 19.685L19.2687 19.7081L19.2562 19.7365L19.2337 19.7883L19.3818 19.7487L19.3886 19.747H19.3953L19.6764 19.75H19.6801L19.8272 19.7622L19.8121 19.7183L19.8033 19.6929L19.8205 19.6718L19.8696 19.6117L19.8656 19.485L19.8663 19.4843ZM16.2283 19.7903L16.3057 19.7675L16.3121 19.7655H16.3195L16.6804 19.7612H16.6858L16.6902 19.7622L16.8976 19.8015L16.8993 19.5833L16.8932 19.516L16.8481 19.4573L16.844 19.452L16.842 19.447L16.8252 19.4084C16.7225 19.4005 16.6205 19.3972 16.5198 19.3982C16.4118 19.3988 16.3034 19.4048 16.1946 19.4147L16.1842 19.4203L16.1855 19.5457L16.2007 19.5543L16.2259 19.5682L16.2263 19.5965L16.2283 19.7903ZM16.3279 19.8632L16.1933 19.9031L16.1296 19.9219L16.129 19.8563L16.1266 19.6252L16.1115 19.617L16.0866 19.6031L16.0862 19.5748L16.0842 19.3916L16.0839 19.3625L16.1101 19.3484L16.1556 19.3236L16.1643 19.319L16.1748 19.318C16.2896 19.3071 16.4044 19.3008 16.5192 19.2998C16.6353 19.2988 16.7501 19.3031 16.8639 19.3127L16.8939 19.3153L16.9057 19.3424L16.9323 19.4031L16.9821 19.4682L16.9908 19.4797L16.9922 19.4936L16.9996 19.5751V19.5754V19.5797L16.9972 19.8609L16.9969 19.92L16.938 19.9087L16.6764 19.8592L16.3286 19.8635L16.3279 19.8632Z" fill="#151515"/>
<path fill-rule="evenodd" clip-rule="evenodd" d="M8.48132 22.1014L14.6604 22.0374L14.681 22.2493L8.55135 22.2773C8.52745 22.2189 8.50455 22.1602 8.48132 22.1011V22.1014ZM8.71362 22.6579L14.647 22.5836L14.6739 22.7945L8.79577 22.84C8.76782 22.7797 8.74089 22.7189 8.71362 22.6579Z" fill="#151515"/>
<path fill-rule="evenodd" clip-rule="evenodd" d="M13.271 21.843L14.28 21.845L14.2824 20.5566L13.2734 20.5546L13.271 21.843ZM13.3966 21.3414L13.7272 21.342L13.7286 20.6632L13.3976 20.6625L13.3966 21.3411V21.3414ZM13.3966 21.7325L13.7245 21.7331L13.7248 21.4589L13.3973 21.4582L13.3966 21.7325ZM13.8262 21.3414L14.1568 21.342L14.1578 20.6632L13.8272 20.6625L13.8262 21.3411V21.3414ZM13.8262 21.7325L14.1538 21.7331L14.1541 21.4589L13.8265 21.4582L13.8262 21.7325Z" fill="#151515"/>
<path d="M21.0651 17.1249C21.0453 17.1233 21.0254 17.1223 21.0049 17.1223V17.1226V17.1223C20.8002 17.122 20.6147 17.2028 20.4804 17.3342C20.346 17.4652 20.2629 17.6467 20.2625 17.847C20.2622 18.0474 20.3447 18.2292 20.4787 18.3609C20.6123 18.4926 20.7975 18.5741 21.0018 18.5744C21.0234 18.5744 21.0443 18.5734 21.0651 18.5718V18.7226C21.0443 18.7239 21.0231 18.7249 21.0018 18.7246C20.7547 18.7243 20.5315 18.6256 20.3699 18.4668C20.2083 18.3081 20.1087 18.0886 20.1093 17.8467C20.11 17.6045 20.2103 17.3853 20.3723 17.2272C20.5342 17.0692 20.7581 16.9715 21.0049 16.9718V16.9715V16.9718C21.0251 16.9718 21.0453 16.9725 21.0651 16.9738V17.1246V17.1249Z" fill="#151515"/>
<path fill-rule="evenodd" clip-rule="evenodd" d="M19.9319 17.5998L15.8085 17.5985L15.8169 17.7216L15.931 17.9011L15.932 18.0546L16.2643 18.053V18.0955H16.4023V18.1444L16.402 18.1936H16.4522L16.6717 18.1939H16.7218V18.1447V18.0955H16.9589L16.9585 18.1434V18.1926H17.0087L17.2278 18.1929H17.278V18.1441V18.0955H17.5147V18.1464V18.1952H17.5645L17.784 18.1959H17.8342V18.1467V18.0955H18.0096L18.0092 18.1457V18.1945L18.0594 18.1949L18.2789 18.1952H18.3287V18.146V18.0955H18.4802V18.1437V18.1929H18.5301L18.7496 18.1932H18.7994V18.1444L18.7997 18.0955H18.9529V18.1467L18.9526 18.1955H19.0027L19.2222 18.1959H19.2721V18.147L19.2724 18.0955H19.4185V18.1427L19.4182 18.1919H19.4683L19.6878 18.1922H19.7377V18.1431V18.0955H19.8087H19.8582L19.9319 17.5998Z" fill="#151515"/>
<path fill-rule="evenodd" clip-rule="evenodd" d="M11.648 21.843L12.657 21.845L12.6593 20.5566L11.6503 20.5546L11.648 21.843ZM11.7736 21.3414L12.1042 21.342L12.1052 20.6632L11.7746 20.6625L11.7736 21.3411V21.3414ZM11.7736 21.7325L12.1015 21.7331L12.1018 21.4589L11.7742 21.4582L11.7736 21.7325ZM12.2028 21.3414L12.5334 21.342L12.5344 20.6632L12.2038 20.6625L12.2028 21.3411V21.3414ZM12.2028 21.7325L12.5307 21.7331L12.531 21.4589L12.2035 21.4582L12.2028 21.7325Z" fill="#151515"/>
<path fill-rule="evenodd" clip-rule="evenodd" d="M10.037 21.843L11.046 21.845L11.0484 20.5566L10.0394 20.5546L10.037 21.843ZM10.1626 21.3414L10.4932 21.342L10.4942 20.6632L10.1636 20.6625L10.1626 21.3411V21.3414ZM10.1626 21.7325L10.4902 21.7331L10.4909 21.4589L10.163 21.4582L10.1626 21.7325ZM10.5919 21.3414L10.9225 21.342L10.9235 20.6632L10.5929 20.6625L10.5919 21.3411V21.3414ZM10.5919 21.7325L10.9194 21.7331L10.9201 21.4589L10.5922 21.4582L10.5919 21.7325Z" fill="#151515"/>
<path fill-rule="evenodd" clip-rule="evenodd" d="M8.38605 21.843L9.39503 21.845L9.39739 20.5566L8.3884 20.5546L8.38605 21.843ZM8.51162 21.3414L8.84223 21.342L8.84324 20.6632L8.51263 20.6625L8.51162 21.3411V21.3414ZM8.51162 21.7325L8.8392 21.7331L8.83987 21.4589L8.51196 21.4582L8.51162 21.7325ZM8.94087 21.3414L9.27147 21.342L9.27282 20.6632L8.94222 20.6625L8.94121 21.3411L8.94087 21.3414ZM8.94087 21.7325L9.26844 21.7331L9.26912 21.4589L8.94121 21.4582L8.94087 21.7325Z" fill="#151515"/>
<path fill-rule="evenodd" clip-rule="evenodd" d="M13.271 24.4658L14.28 24.4678L14.2824 23.1793L13.2734 23.1773L13.271 24.4658ZM13.3966 23.9641L13.7272 23.9648L13.7286 23.2859L13.3976 23.2853L13.3966 23.9638V23.9641ZM13.3966 24.3552L13.7245 24.3559L13.7248 24.0816L13.3973 24.081L13.3966 24.3552ZM13.8262 23.9641L14.1568 23.9648L14.1578 23.2859L13.8272 23.2853L13.8262 23.9638V23.9641ZM13.8262 24.3552L14.1538 24.3559L14.1541 24.0816L13.8265 24.081L13.8262 24.3552Z" fill="#151515"/>
<path fill-rule="evenodd" clip-rule="evenodd" d="M11.648 24.4658L12.657 24.4678L12.6593 23.1793L11.6503 23.1773L11.648 24.4658ZM11.7736 23.9641L12.1042 23.9648L12.1052 23.2859L11.7746 23.2853L11.7736 23.9638V23.9641ZM11.7736 24.3552L12.1015 24.3559L12.1018 24.0816L11.7742 24.081L11.7736 24.3552ZM12.2028 23.9641L12.5334 23.9648L12.5344 23.2859L12.2038 23.2853L12.2028 23.9638V23.9641ZM12.2028 24.3552L12.5307 24.3559L12.531 24.0816L12.2035 24.081L12.2028 24.3552Z" fill="#151515"/>
<path fill-rule="evenodd" clip-rule="evenodd" d="M10.037 24.4658L11.046 24.4678L11.0484 23.1793L10.0394 23.1773L10.037 24.4658ZM10.1626 23.9641L10.4932 23.9648L10.4942 23.2859L10.1636 23.2853L10.1626 23.9638V23.9641ZM10.1626 24.3552L10.4902 24.3559L10.4909 24.0816L10.163 24.081L10.1626 24.3552ZM10.5919 23.9641L10.9225 23.9648L10.9235 23.2859L10.5929 23.2853L10.5919 23.9638V23.9641ZM10.5919 24.3552L10.9194 24.3559L10.9201 24.0816L10.5922 24.081L10.5919 24.3552Z" fill="#151515"/>
<path fill-rule="evenodd" clip-rule="evenodd" d="M13.271 27.0394L14.28 27.0413L14.2824 25.7529L13.2734 25.7513L13.271 27.0397V27.0394ZM13.3966 26.5377L13.7272 26.5384L13.7286 25.8595L13.3976 25.8588L13.3966 26.5374V26.5377ZM13.3966 26.9288L13.7245 26.9295L13.7248 26.6552L13.3973 26.6545L13.3966 26.9288ZM13.8262 26.5377L14.1568 26.5384L14.1578 25.8595L13.8272 25.8588L13.8262 26.5374V26.5377ZM13.8262 26.9288L14.1538 26.9295L14.1541 26.6552L13.8265 26.6545L13.8262 26.9288Z" fill="#151515"/>
<path fill-rule="evenodd" clip-rule="evenodd" d="M11.888 27.0397L12.6573 27.041L12.6597 25.7526L11.6507 25.7509L11.6487 26.8166C11.7274 26.8918 11.8072 26.9664 11.888 27.0397ZM11.7739 26.5374L12.1045 26.538L12.1055 25.8592L11.7749 25.8585L11.7739 26.537V26.5374ZM11.7739 26.9285L12.1018 26.9291L12.1021 26.6549L11.7746 26.6542L11.7739 26.9285ZM12.2031 26.5374L12.5337 26.538L12.5348 25.8592L12.2041 25.8585L12.2031 26.537V26.5374ZM12.2031 26.9285L12.531 26.9291L12.5314 26.6549L12.2038 26.6542L12.2031 26.9285Z" fill="#151515"/>
<path fill-rule="evenodd" clip-rule="evenodd" d="M24.7927 27.6671L24.8052 27.5113L24.8631 27.474L24.9482 27.204L25.0189 27.1377L25.1031 19.6932L22.8431 19.6754L22.8067 19.7163L22.8343 19.7807L22.8269 19.85L22.9239 27.1397L23.0074 27.2047L23.0272 27.339L23.0862 27.4965L23.1266 27.5087V27.6621L24.7924 27.6671H24.7927ZM24.5543 21.6064L24.5547 21.7942L24.3958 21.7945L24.3961 21.9031L24.2726 21.9034L24.2722 21.7949L23.3743 21.7965L23.3747 21.9028H23.2585L23.2582 21.7965L23.1171 21.7968L23.1168 21.609C23.5965 21.6081 24.0776 21.6071 24.5547 21.6064H24.5543ZM23.3026 21.5031L23.2999 19.9516L24.319 19.9497L24.3217 21.5031H23.3026ZM24.5594 24.3664L24.5597 24.5546L24.4008 24.5549L24.4012 24.6635L24.2776 24.6638L24.2773 24.5552L23.379 24.5565L23.3794 24.6628L23.2632 24.6631L23.2629 24.5569L23.1215 24.5572L23.1212 24.3691C23.6009 24.3684 24.082 24.3674 24.5591 24.3664H24.5594ZM23.308 24.2631L23.305 22.7117L24.3241 22.71L24.3271 24.2631H23.308ZM24.3325 27.0235L23.3134 27.0255L23.3104 25.506L24.3295 25.5041L24.3325 27.0235ZM21.8112 27.6671L21.0652 27.6684H21.0086H20.952L20.206 27.6671L20.2013 27.4908L20.1393 27.3394L20.1158 27.2057L20.0444 27.1413L19.9521 23.4882L19.872 19.8143L19.8922 19.7959L19.8596 19.7018L19.8781 19.679L20.9514 19.6701V19.6691L21.0079 19.6695L21.0645 19.6691V19.6701L22.1374 19.679L22.1563 19.7018L22.1236 19.7959L22.1438 19.8143L22.0637 23.4882L21.9715 27.1413L21.9004 27.2057L21.8769 27.3394L21.8149 27.4908L21.8105 27.6671H21.8112ZM21.0652 27.512V27.5116L21.5661 27.5093L21.5718 25.5097L21.0652 25.5084V25.508L21.0086 25.5084L20.952 25.508V25.5084L20.445 25.5097L20.4511 27.5093L20.952 27.5116V27.512L21.0086 27.5116L21.0652 27.512ZM21.0652 24.5559L21.4836 24.5565V24.6628L21.5998 24.6631V24.5569L21.7412 24.5572L21.7415 24.3691L21.0652 24.3681L20.952 24.3678L20.3036 24.3664L20.303 24.5546L20.4622 24.5549L20.4619 24.6635L20.5854 24.6638V24.5552L20.9517 24.5559H21.0648H21.0652ZM21.0652 24.2631H21.5304L21.5331 22.7117L21.0652 22.711L20.952 22.7107L20.514 22.71L20.511 24.2631H20.952H21.0652ZM21.0652 21.7902L21.4836 21.7909V21.8972L21.5998 21.8975V21.7912H21.7412L21.7415 21.6034L21.0652 21.6024L20.952 21.6021L20.3036 21.6011L20.303 21.7892H20.4622L20.4619 21.8982L20.5854 21.8985V21.7896L20.9517 21.7902L21.0648 21.7906L21.0652 21.7902ZM21.0652 21.4975H21.5304L21.5331 19.946L21.0652 19.945H20.952L20.514 19.9444L20.511 21.4975H20.952H21.0652ZM17.4629 21.6064L17.4625 21.7942L17.6214 21.7945L17.6211 21.9031L17.7446 21.9034L17.745 21.7949L18.6429 21.7965L18.6425 21.9028H18.7587L18.759 21.7965L18.9001 21.7968L18.9004 21.609C18.4207 21.6081 17.9396 21.6071 17.4625 21.6064H17.4629ZM18.7142 21.5031L18.7169 19.9516L17.6978 19.9497L17.6948 21.5031H18.7142ZM17.4575 24.3664L17.4571 24.5546L17.616 24.5549L17.6157 24.6635L17.7393 24.6638L17.7396 24.5552L18.6375 24.5565V24.6628L18.7536 24.6631V24.5569L18.895 24.5572L18.8954 24.3691C18.4156 24.3684 17.9345 24.3674 17.4575 24.3664ZM18.7088 24.2631L18.7119 22.7117L17.6928 22.71L17.6898 24.2631H18.7088ZM17.6844 27.0235L18.7035 27.0255L18.7065 25.506L17.6871 25.5041L17.684 27.0235H17.6844ZM17.2245 27.6671L17.212 27.5113L17.1538 27.474L17.0686 27.204L16.9979 27.1377L16.9138 19.6932L19.1738 19.6754L19.2105 19.7163L19.1825 19.7807L19.1899 19.85L19.093 27.1397L19.0095 27.2047L18.9896 27.339L18.9307 27.4965L18.8903 27.5087L18.89 27.6621L17.2242 27.6671H17.2245Z" fill="#151515"/>
<path d="M22.7306 16.5952V16.5847L22.7303 16.5002H22.6444L20.952 16.5028V16.6718L22.5582 16.6695V16.68H22.6313V16.7645L23.3104 16.7629L23.309 16.7916L23.3053 16.8794H23.3952L25.6293 16.8797L25.6256 17.1305L25.6242 17.2167L25.7121 17.216L27.1854 17.2074L27.1941 17.7474L25.7549 17.7493L25.6683 17.7497L25.6687 17.8338L25.669 17.9619H22.2933V17.9457L22.1209 17.947L22.1219 18.0474L22.1226 18.1315H22.2081H25.6673L25.6707 18.347V18.348L25.671 18.4332H25.6721L25.6791 18.8698L20.9517 18.8721V19.0411L25.7421 19.0388L25.7555 19.3117L25.7596 19.3926L25.8417 19.3922L27.2968 19.387L27.3924 19.3879L27.3066 19.5018L27.2907 19.5229V19.5252L25.835 19.5233V19.6863L25.7488 19.6876L25.8693 27.0895H24.9122V27.1875H25.8835L25.8973 27.2004L25.9161 27.2176L24.8132 27.2166V27.2908H24.7873V27.3889L25.9848 27.3912L25.9979 27.4932L26.0057 27.5529L26.0656 27.5654L26.0939 27.5714L26.0986 27.6694L26.1023 27.7502L26.1851 27.7499L28.0213 27.7417L29.2548 27.771C29.3191 27.7219 29.3828 27.6717 29.4461 27.6212L28.2438 27.6073L27.489 27.4813L27.3904 19.682L27.4581 19.6711L27.4607 19.6018L27.4614 19.582L27.5614 19.4493L27.5776 19.4279L27.5782 19.4011L27.5806 19.3071L27.5826 19.2216L27.4951 19.2206L27.3823 19.2193L27.3786 19.019L34.3179 19.0137C34.325 18.9573 34.3314 18.9012 34.3374 18.8447L27.3752 18.8503L27.3742 18.8005L27.6614 18.3853L27.6749 18.3658L27.6762 18.3427L27.6846 18.1936L27.8614 17.8678L27.9297 17.7424L27.7846 17.7437L27.3668 17.7474L27.3584 17.2276L27.3968 17.1685L27.482 17.0378L27.3237 17.0388L25.7993 17.0477L25.802 16.882L25.8283 16.8447L25.9229 16.7117H25.7572L23.5103 16.7114L23.6123 16.5942L23.4248 16.5946L22.7303 16.5962L22.7306 16.5952ZM28.0388 28.5997L20.952 28.5905V28.7595L27.752 28.7684C27.8482 28.7133 27.9439 28.6572 28.0388 28.5997ZM23.1616 27.2159L21.7466 27.213V27.2899H21.7294V27.3879H23.1754V27.2899H23.1616V27.2156V27.2159ZM23.0451 27.0912L21.8482 27.0925V27.1905L23.0451 27.1892V27.0912ZM27.2062 19.0186L27.2099 19.2183L25.9242 19.2229L25.9124 18.9846L25.9101 18.9391L25.87 18.9157L25.8522 18.9054L25.8448 18.4322L27.4271 18.4226L27.2167 18.7272L27.2012 18.7493L27.2015 18.7757L27.2042 18.9351L27.2056 19.0183L27.2062 19.0186ZM27.2183 19.6939L27.318 27.5532L27.3183 27.5753L26.2679 27.58L26.2639 27.4978L26.2609 27.4328L26.1959 27.4189L26.1622 27.412L26.1366 27.2143L26.1326 27.1839L26.1101 27.1631L26.0424 27.1007L25.9215 19.6919L27.2183 19.6936V19.6939ZM25.1297 19.3431L22.8114 19.32L22.8101 19.4889L25.1283 19.512L25.1297 19.3431ZM22.1223 19.3176L20.9527 19.3104L20.952 19.4794L22.1216 19.4866L22.1223 19.3176ZM27.5092 18.253L25.8438 18.2629L25.8424 17.918L27.1978 17.9163V17.917L27.2833 17.9163L27.6412 17.913L27.5237 18.1292L27.5149 18.1454L27.5139 18.1645L27.5089 18.2533L27.5092 18.253Z" fill="#151515"/>
<path d="M22.0724 19.3946L22.0529 19.4639L22.0512 19.4695V19.4757L22.0465 19.6266L22.0458 19.6447L22.0576 19.6589L22.1011 19.712L22.0771 19.7807L22.0667 19.8107L22.0906 19.8325L22.1108 19.851L22.1273 19.8658L22.1492 19.8639L22.3451 19.8477L22.6158 19.845L22.8144 19.8982L22.871 19.9134L22.8771 19.8559L22.8845 19.7866L22.8858 19.7741L22.8808 19.7625L22.8649 19.7266L22.9171 19.6681L22.9292 19.6546L22.9296 19.6365L22.9319 19.4906L22.9323 19.4724L22.9205 19.4586L22.8532 19.3787L22.8232 19.3124L22.8111 19.2856L22.7811 19.2837C22.6781 19.2767 22.5757 19.2744 22.4724 19.2757C22.3687 19.2771 22.266 19.2817 22.1606 19.2883L22.134 19.2899L22.1206 19.3127L22.0778 19.3843L22.0748 19.3896L22.0731 19.3962L22.0724 19.3946ZM22.1509 19.4843L22.167 19.4272L22.1933 19.3833C22.2899 19.3777 22.3828 19.3738 22.4734 19.3724C22.563 19.3715 22.6522 19.3731 22.7441 19.3787L22.765 19.4243L22.768 19.4309L22.772 19.4358L22.8319 19.5068L22.8303 19.6167L22.7693 19.685L22.7485 19.7081L22.7609 19.7365L22.7835 19.7883L22.6353 19.7487L22.6286 19.747H22.6219L22.3408 19.75H22.3371L22.1899 19.7622L22.2051 19.7183L22.2138 19.6929L22.1967 19.6718L22.1475 19.6117L22.1515 19.485L22.1509 19.4843ZM25.7889 19.7903L25.7114 19.7675L25.705 19.7655H25.6976L25.3371 19.7612H25.3317L25.3273 19.7622L25.1199 19.8015L25.1179 19.5833L25.124 19.516L25.1691 19.4573L25.1731 19.452L25.1755 19.447L25.1923 19.4084C25.2953 19.4005 25.397 19.3972 25.4976 19.3982C25.6057 19.3988 25.7141 19.4048 25.8229 19.4147L25.8333 19.4203L25.832 19.5457L25.8168 19.5543L25.7916 19.5682L25.7912 19.5965L25.7895 19.7903H25.7889ZM25.6889 19.8632L25.8235 19.9031L25.8872 19.9219L25.8878 19.8563L25.8902 19.6252L25.9053 19.617L25.9306 19.6031L25.9309 19.5748L25.933 19.3916L25.9333 19.3625L25.907 19.3484L25.8616 19.3236L25.8528 19.319L25.8421 19.318C25.7276 19.3071 25.6128 19.3008 25.4976 19.2998C25.3815 19.2988 25.2667 19.3031 25.1529 19.3127L25.1229 19.3153L25.1112 19.3424L25.0846 19.4031L25.0347 19.4682L25.026 19.4797L25.0246 19.4936L25.0172 19.5751V19.5754V19.5797L25.0196 19.8609L25.0199 19.92L25.0788 19.9087L25.3404 19.8592L25.6882 19.8635L25.6889 19.8632Z" fill="#151515"/>
<path d="M27.3745 19.5157L34.231 19.5173V19.682L27.3745 19.6807V19.516V19.5157ZM34.1506 20.1071L27.3072 20.0209L27.3092 19.8562L34.1526 19.9424L34.1506 20.1071ZM7.86488 19.9424L14.7082 19.8562L14.7103 20.0209L7.8669 20.1071L7.86488 19.9424ZM14.6426 19.6807L7.7861 19.682V19.5173L14.6426 19.5157V19.6803V19.6807Z" fill="#151515"/>
<path fill-rule="evenodd" clip-rule="evenodd" d="M33.5358 22.1014L27.3567 22.0374L27.3362 22.2493L33.4658 22.2773C33.4897 22.2189 33.5126 22.1602 33.5358 22.1011V22.1014ZM33.3035 22.6579L27.3702 22.5836L27.3433 22.7945L33.2214 22.84C33.2493 22.7797 33.2763 22.7189 33.3035 22.6579Z" fill="#151515"/>
<path fill-rule="evenodd" clip-rule="evenodd" d="M28.7458 21.843L27.7368 21.845L27.7344 20.5566L28.7438 20.5546L28.7461 21.843H28.7458ZM28.6202 21.3414L28.2896 21.342L28.2886 20.6632L28.6192 20.6625L28.6202 21.3411V21.3414ZM28.6202 21.7325L28.2923 21.7331L28.2919 21.4589L28.6199 21.4582L28.6202 21.7325ZM28.191 21.3414L27.8603 21.342L27.8593 20.6632L28.1899 20.6625L28.191 21.3411V21.3414ZM28.191 21.7325L27.8634 21.7331L27.8627 21.4589L28.1906 21.4582L28.191 21.7325Z" fill="#151515"/>
<path d="M20.952 17.1249C20.9719 17.1233 20.9921 17.1223 21.0123 17.1223V17.1226V17.1223C21.217 17.122 21.4021 17.2028 21.5365 17.3342C21.6708 17.4652 21.754 17.6467 21.7543 17.847C21.7546 18.0474 21.6721 18.2292 21.5382 18.3609C21.4045 18.4926 21.2193 18.5741 21.015 18.5744C20.9934 18.5744 20.9726 18.5734 20.9517 18.5718V18.7226C20.9726 18.7239 20.9938 18.7249 21.015 18.7246C21.2621 18.7243 21.4856 18.6256 21.6469 18.4668C21.8082 18.3081 21.9078 18.0886 21.9075 17.8467C21.9071 17.6045 21.8065 17.3853 21.6445 17.2272C21.4826 17.0692 21.2587 16.9715 21.012 16.9718V16.9715V16.9718C20.9918 16.9718 20.9716 16.9725 20.9517 16.9738V17.1246L20.952 17.1249Z" fill="#151515"/>
<path fill-rule="evenodd" clip-rule="evenodd" d="M22.0849 17.5998L26.2087 17.5985L26.2003 17.7216L26.0862 17.9011L26.0851 18.0546L25.7525 18.053V18.0955H25.6148V18.1444V18.1936H25.565L25.3452 18.1939H25.2953V18.1447V18.0955H25.0583L25.0587 18.1434V18.1926H25.0085L24.789 18.1929H24.7392V18.1441V18.0955H24.5021L24.5025 18.1464V18.1952H24.4523L24.2328 18.1959H24.183V18.1467V18.0955H24.0076L24.0079 18.1457V18.1945L23.9578 18.1949L23.7383 18.1952H23.6884V18.146L23.6881 18.0955H23.5369V18.1437V18.1929H23.4871L23.2676 18.1932H23.2178L23.2174 18.1444V18.0955H23.0643V18.1467L23.0646 18.1955H23.0144L22.7949 18.1959H22.7451L22.7448 18.147V18.0955H22.5986V18.1427V18.1919H22.5488L22.3293 18.1922H22.2795V18.1431L22.2792 18.0955H22.2085H22.159L22.0849 17.5998Z" fill="#151515"/>
<path fill-rule="evenodd" clip-rule="evenodd" d="M30.3688 21.843L29.3598 21.845L29.3575 20.5566L30.3665 20.5546L30.3688 21.843ZM30.2432 21.3414L29.9126 21.342L29.9116 20.6632L30.2422 20.6625L30.2432 21.3411V21.3414ZM30.2432 21.7325L29.9157 21.7331L29.915 21.4589L30.2429 21.4582L30.2432 21.7325ZM29.814 21.3414L29.4834 21.342L29.482 20.6632L29.8127 20.6625L29.8137 21.3411L29.814 21.3414ZM29.814 21.7325L29.4864 21.7331L29.4858 21.4589L29.8137 21.4582L29.814 21.7325Z" fill="#151515"/>
<path fill-rule="evenodd" clip-rule="evenodd" d="M31.9801 21.843L30.9711 21.845L30.9688 20.5566L31.9778 20.5546L31.9801 21.843ZM31.8542 21.3414L31.5236 21.342L31.5223 20.6632L31.8532 20.6625L31.8542 21.3411V21.3414ZM31.8542 21.7325L31.5266 21.7331L31.5263 21.4589L31.8539 21.4582L31.8542 21.7325ZM31.425 21.3414L31.0944 21.342L31.0933 20.6632L31.4239 20.6625L31.425 21.3411V21.3414ZM31.425 21.7325L31.097 21.7331L31.0967 21.4589L31.4243 21.4582L31.425 21.7325Z" fill="#151515"/>
<path fill-rule="evenodd" clip-rule="evenodd" d="M33.6311 21.843L32.6221 21.845L32.6198 20.5566L33.6288 20.5546L33.6311 21.843ZM33.5055 21.3414L33.1749 21.342L33.1739 20.6632L33.5045 20.6625L33.5055 21.3411V21.3414ZM33.5055 21.7325L33.1776 21.7331L33.1773 21.4589L33.5049 21.4582L33.5055 21.7325ZM33.0763 21.3414L32.7457 21.342L32.7447 20.6632L33.0753 20.6625L33.0763 21.3411V21.3414ZM33.0763 21.7325L32.7484 21.7331L32.748 21.4589L33.0756 21.4582L33.0763 21.7325Z" fill="#151515"/>
<path fill-rule="evenodd" clip-rule="evenodd" d="M28.7458 24.4658L27.7368 24.4678L27.7344 23.1793L28.7438 23.1773L28.7461 24.4658H28.7458ZM28.6202 23.9641L28.2896 23.9648L28.2886 23.2859L28.6192 23.2853L28.6202 23.9638V23.9641ZM28.6202 24.3552L28.2923 24.3559L28.2919 24.0816L28.6199 24.081L28.6202 24.3552ZM28.191 23.9641L27.8603 23.9648L27.8593 23.2859L28.1899 23.2853L28.191 23.9638V23.9641ZM28.191 24.3552L27.8634 24.3559L27.8627 24.0816L28.1906 24.081L28.191 24.3552Z" fill="#151515"/>
<path fill-rule="evenodd" clip-rule="evenodd" d="M30.3688 24.4658L29.3598 24.4678L29.3575 23.1793L30.3665 23.1773L30.3688 24.4658ZM30.2432 23.9641L29.9126 23.9648L29.9116 23.2859L30.2422 23.2853L30.2432 23.9638V23.9641ZM30.2432 24.3552L29.9157 24.3559L29.915 24.0816L30.2429 24.081L30.2432 24.3552ZM29.814 23.9641L29.4834 23.9648L29.482 23.2859L29.8127 23.2853L29.8137 23.9638L29.814 23.9641ZM29.814 24.3552L29.4864 24.3559L29.4858 24.0816L29.8137 24.081L29.814 24.3552Z" fill="#151515"/>
<path fill-rule="evenodd" clip-rule="evenodd" d="M31.9801 24.4658L30.9711 24.4678L30.9688 23.1793L31.9778 23.1773L31.9801 24.4658ZM31.8542 23.9641L31.5236 23.9648L31.5223 23.2859L31.8532 23.2853L31.8542 23.9638V23.9641ZM31.8542 24.3552L31.5266 24.3559L31.5263 24.0816L31.8539 24.081L31.8542 24.3552ZM31.425 23.9641L31.0944 23.9648L31.0933 23.2859L31.4239 23.2853L31.425 23.9638V23.9641ZM31.425 24.3552L31.097 24.3559L31.0967 24.0816L31.4243 24.081L31.425 24.3552Z" fill="#151515"/>
<path fill-rule="evenodd" clip-rule="evenodd" d="M28.7458 27.0394L27.7368 27.0413L27.7344 25.7529L28.7438 25.7513L28.7461 27.0397L28.7458 27.0394ZM28.6202 26.5377L28.2896 26.5384L28.2886 25.8595L28.6192 25.8588L28.6202 26.5374V26.5377ZM28.6202 26.9288L28.2923 26.9295L28.2919 26.6552L28.6199 26.6545L28.6202 26.9288ZM28.191 26.5377L27.8603 26.5384L27.8593 25.8595L28.1899 25.8588L28.191 26.5374V26.5377ZM28.191 26.9288L27.8634 26.9295L27.8627 26.6552L28.1906 26.6545L28.191 26.9288Z" fill="#151515"/>
<path fill-rule="evenodd" clip-rule="evenodd" d="M30.1291 27.0397L29.3598 27.041L29.3575 25.7526L30.3665 25.7509L30.3685 26.8166C30.2897 26.8918 30.2099 26.9664 30.1291 27.0397ZM30.2432 26.5374L29.9126 26.538L29.9116 25.8592L30.2422 25.8585L30.2432 26.537V26.5374ZM30.2432 26.9285L29.9157 26.9291L29.915 26.6549L30.2429 26.6542L30.2432 26.9285ZM29.814 26.5374L29.4834 26.538L29.482 25.8592L29.8127 25.8585L29.8137 26.537L29.814 26.5374ZM29.814 26.9285L29.4864 26.9291L29.4858 26.6549L29.8137 26.6542L29.814 26.9285Z" fill="#151515"/>
<path d="M17.8991 6.59763H20.2612C20.7251 6.59763 21.0803 6.70489 21.3267 6.92073C21.5728 7.13656 21.6954 7.40752 21.6954 7.73293C21.6954 8.0052 21.6095 8.23524 21.4375 8.42566C21.2648 8.61477 21.0059 8.76526 20.6601 8.87483C21.0887 8.96988 21.4102 9.12038 21.625 9.324C21.8398 9.52862 21.9465 9.78638 21.9465 10.0986C21.9465 10.3365 21.8856 10.5478 21.7644 10.7316C21.6428 10.9164 21.4398 11.0712 21.1567 11.1996C20.8739 11.3266 20.5524 11.391 20.1928 11.391H17.8988V11.1454H18.2718C18.3839 11.1454 18.4668 11.1253 18.5189 11.0867C18.5704 11.0481 18.5964 11.0039 18.5964 10.954V7.11874C18.5964 7.02798 18.5711 6.95934 18.5199 6.9128C18.4684 6.86627 18.3944 6.84317 18.2967 6.84317H17.8985V6.59763H17.8991ZM19.2505 8.79497H20.1083C20.3723 8.79497 20.5817 8.71312 20.7379 8.55041C20.8941 8.38771 20.9725 8.12104 20.9725 7.75042C20.9725 7.52039 20.9348 7.34118 20.8604 7.2128C20.786 7.08442 20.6783 6.99036 20.5359 6.93195C20.3945 6.8732 20.1484 6.8435 19.7993 6.8435C19.5522 6.8435 19.398 6.86231 19.3394 6.89993C19.2795 6.93756 19.2502 7.0029 19.2502 7.09795V8.7953L19.2505 8.79497ZM19.2505 9.04051V10.886C19.2505 10.9722 19.2747 11.0365 19.3229 11.0798C19.371 11.123 19.4569 11.1451 19.5818 11.1451H20.1316C20.4952 11.1451 20.7642 11.06 20.9382 10.8907C21.1119 10.7214 21.1991 10.458 21.1991 10.0996C21.1991 9.77087 21.1089 9.51311 20.9288 9.324C20.7487 9.1349 20.5002 9.04084 20.1831 9.04084H19.2508L19.2505 9.04051Z" fill="#151515"/>
<path d="M20.8642 11.3048V13.648C20.8642 13.9312 20.8874 14.1447 20.9345 14.2886C21.0045 14.5022 21.1315 14.6728 21.3156 14.7999C21.5011 14.9272 21.7418 14.9913 22.0405 14.9913C22.4532 14.9913 22.7677 14.8784 22.9841 14.6527C23.2009 14.4282 23.309 14.1259 23.309 13.7487V11.55C23.309 11.3563 23.2962 11.2091 23.2703 11.1085C23.245 11.0088 23.2083 10.9302 23.1602 10.8738C23.1131 10.8174 23.0525 10.7765 22.9791 10.7497C22.9047 10.722 22.7831 10.7088 22.6114 10.7088V10.4633H24.321V10.7088H24.1985C24.0066 10.7088 23.8642 10.7629 23.7699 10.8725C23.6766 10.9811 23.6295 11.1392 23.6295 11.3461V13.6985C23.6295 14.2121 23.4901 14.6058 23.2127 14.8804C22.8996 15.189 22.4835 15.3428 21.964 15.3428C21.5146 15.3428 21.1608 15.2751 20.9039 15.1401C20.6463 15.0051 20.4588 14.8114 20.3423 14.5593C20.2545 14.3678 20.2104 14.1253 20.2104 13.8345V11.3903C20.4443 11.389 20.6625 11.3603 20.8642 11.3042V11.3048Z" fill="#151515"/>
<path fill-rule="evenodd" clip-rule="evenodd" d="M17.9321 34.9891H17.9325C19.5643 34.7538 20.5749 34.0558 21.0766 32.9786C21.5782 34.0558 22.5889 34.7538 24.2207 34.9891H24.221H24.2207C22.5889 35.2244 21.5782 35.9224 21.0766 36.9997C20.5749 35.9224 19.5643 35.2244 17.9325 34.9891H17.9321Z" fill="#151515"/>
<path fill-rule="evenodd" clip-rule="evenodd" d="M10.7784 35.6373C12.967 36.66 14.6302 36.365 15.6435 34.4409C13.6848 33.9584 12.0594 34.3472 10.7784 35.6373Z" fill="#151515"/>
<path fill-rule="evenodd" clip-rule="evenodd" d="M7.80362 33.607C9.64988 34.972 11.2218 34.9522 12.4546 33.2198C10.7339 32.4251 9.18192 32.5433 7.80362 33.607Z" fill="#151515"/>
<path fill-rule="evenodd" clip-rule="evenodd" d="M5.11267 30.8354C6.61183 32.5614 8.15039 32.8773 9.73809 31.4492C8.23523 30.3066 6.69364 30.0911 5.11267 30.8354Z" fill="#151515"/>
<path fill-rule="evenodd" clip-rule="evenodd" d="M2.86746 27.8245C4.05016 29.7723 5.51297 30.3367 7.32253 29.1898C6.03614 27.8162 4.55347 27.3509 2.86746 27.8245Z" fill="#151515"/>
<path fill-rule="evenodd" clip-rule="evenodd" d="M1.10471 24.3265C2.28741 26.2743 3.61487 27.6945 5.4241 26.5476C4.68007 25.3153 2.79072 23.8529 1.10471 24.3265Z" fill="#151515"/>
<path fill-rule="evenodd" clip-rule="evenodd" d="M0.3078 20.7206C0.889555 22.4113 1.61237 24.3701 4.068 23.54C3.32397 22.3077 1.99381 20.247 0.3078 20.7206Z" fill="#151515"/>
<path fill-rule="evenodd" clip-rule="evenodd" d="M9.15527e-05 17.0154C0.257303 18.7708 0.747485 20.5698 3.17214 20.4236C2.87352 19.1005 1.74569 16.7761 9.15527e-05 17.0154Z" fill="#151515"/>
<path fill-rule="evenodd" clip-rule="evenodd" d="M0.433381 13.3025C0.366722 15.0748 0.521587 16.9309 2.93412 17.2111C2.88126 15.857 2.19481 13.3728 0.433381 13.3025Z" fill="#151515"/>
<path fill-rule="evenodd" clip-rule="evenodd" d="M1.48142 9.724C1.13095 11.4639 0.985515 13.3207 3.32297 13.9698C3.48827 12.6243 3.20952 10.0653 1.48142 9.724Z" fill="#151515"/>
<path fill-rule="evenodd" clip-rule="evenodd" d="M3.3509 6.30951C2.64357 7.94184 2.11232 9.72961 4.26394 10.8355C4.70766 9.55205 4.97093 6.99135 3.3509 6.30951Z" fill="#151515"/>
<path fill-rule="evenodd" clip-rule="evenodd" d="M5.84658 3.42209C4.79215 4.863 3.87508 6.49401 5.72774 8.03426C6.44685 6.87684 7.27505 4.43462 5.84658 3.42209Z" fill="#151515"/>
<path fill-rule="evenodd" clip-rule="evenodd" d="M11.0696 3.16597C10.334 2.92043 7.2589 3.91844 7.51274 6.28707C8.87354 6.20324 10.3633 5.18972 11.0696 3.16597Z" fill="#151515"/>
<path fill-rule="evenodd" clip-rule="evenodd" d="M10.4057 7.56065C9.08564 8.5745 7.97061 9.21443 6.17047 8.18836C6.80374 7.02699 8.78433 6.26429 10.4057 7.56065Z" fill="#151515"/>
<path fill-rule="evenodd" clip-rule="evenodd" d="M8.78129 9.57021C7.70969 10.8349 6.7576 11.691 4.77701 11.061C5.14565 9.79463 6.91718 8.63886 8.78129 9.57021Z" fill="#151515"/>
<path fill-rule="evenodd" clip-rule="evenodd" d="M7.44809 11.9299C6.59802 13.3471 5.79911 14.3424 3.74109 14.0335C3.89696 12.7253 5.45538 11.3052 7.44809 11.9299Z" fill="#151515"/>
<path fill-rule="evenodd" clip-rule="evenodd" d="M6.65122 14.4814C6.07215 16.052 5.4665 17.189 3.38524 17.2196C3.30108 15.8744 4.57669 14.1827 6.65122 14.4814Z" fill="#151515"/>
<path fill-rule="evenodd" clip-rule="evenodd" d="M6.36473 17.1889C6.04321 18.8289 5.62609 20.0447 3.57479 20.3935C3.27718 19.0777 4.26798 17.2117 6.36473 17.1889Z" fill="#151515"/>
<path fill-rule="evenodd" clip-rule="evenodd" d="M6.51453 19.7539C6.48961 21.4239 6.29536 22.6922 4.33766 23.3866C3.81044 22.142 4.45381 20.1348 6.51453 19.7539Z" fill="#151515"/>
<path fill-rule="evenodd" clip-rule="evenodd" d="M7.04814 22.2203C7.44203 23.845 7.57098 25.1212 5.84692 26.2651C5.02411 25.1853 5.14565 23.085 7.04814 22.2203Z" fill="#151515"/>
<path fill-rule="evenodd" clip-rule="evenodd" d="M8.08203 24.6608C8.7668 26.1902 9.12703 27.4232 7.64032 28.8515C6.63336 27.9337 6.36874 25.846 8.08203 24.6608Z" fill="#151515"/>
<path fill-rule="evenodd" clip-rule="evenodd" d="M9.70646 26.8344C10.6518 28.2238 11.2255 29.3763 10.0148 31.0364C8.86076 30.3043 8.22951 28.2935 9.70646 26.8344Z" fill="#151515"/>
<path fill-rule="evenodd" clip-rule="evenodd" d="M11.6204 28.708C12.8044 29.9086 13.5798 30.9416 12.692 32.7878C11.4224 32.2703 10.434 30.403 11.6204 28.708Z" fill="#151515"/>
<path fill-rule="evenodd" clip-rule="evenodd" d="M13.9471 30.0374C15.3321 31.238 16.2798 32.2713 15.7011 34.1172C14.2942 33.8248 13.0051 31.9063 13.9471 30.0374Z" fill="#151515"/>
<path fill-rule="evenodd" clip-rule="evenodd" d="M31.2216 35.6373C29.033 36.66 27.3699 36.365 26.3565 34.4409C28.3152 33.9584 29.9406 34.3472 31.2216 35.6373Z" fill="#151515"/>
<path fill-rule="evenodd" clip-rule="evenodd" d="M34.1964 33.607C32.3501 34.972 30.7782 34.9522 29.5453 33.2198C31.266 32.4251 32.8181 32.5433 34.1964 33.607Z" fill="#151515"/>
<path fill-rule="evenodd" clip-rule="evenodd" d="M36.8877 30.8354C35.3885 32.5614 33.85 32.8773 32.2623 31.4492C33.7651 30.3066 35.3067 30.0911 36.8877 30.8354Z" fill="#151515"/>
<path fill-rule="evenodd" clip-rule="evenodd" d="M39.1325 27.8245C37.9498 29.7723 36.4867 30.3367 34.6775 29.1898C35.9639 27.8162 37.4465 27.3509 39.1325 27.8245Z" fill="#151515"/>
<path fill-rule="evenodd" clip-rule="evenodd" d="M40.8957 24.3265C39.713 26.2743 38.3855 27.6945 36.5763 26.5476C37.32 25.3153 39.2097 23.8529 40.8957 24.3265Z" fill="#151515"/>
<path fill-rule="evenodd" clip-rule="evenodd" d="M41.6922 20.7206C41.1104 22.4113 40.3876 24.3701 37.932 23.54C38.676 22.3077 40.0062 20.247 41.6922 20.7206Z" fill="#151515"/>
<path fill-rule="evenodd" clip-rule="evenodd" d="M41.9999 17.0154C41.7427 18.7708 41.2525 20.5698 38.8279 20.4236C39.1265 19.1005 40.2543 16.7761 41.9999 17.0154Z" fill="#151515"/>
<path fill-rule="evenodd" clip-rule="evenodd" d="M41.5666 13.3025C41.6333 15.0748 41.4784 16.9309 39.0659 17.2111C39.1187 15.857 39.8052 13.3728 41.5666 13.3025Z" fill="#151515"/>
<path fill-rule="evenodd" clip-rule="evenodd" d="M40.5189 9.724C40.8694 11.4639 41.0148 13.3207 38.6774 13.9698C38.5121 12.6243 38.7908 10.0653 40.5189 9.724Z" fill="#151515"/>
<path fill-rule="evenodd" clip-rule="evenodd" d="M38.6491 6.30951C39.3564 7.94184 39.8877 9.72961 37.7361 10.8355C37.2923 9.55205 37.0294 6.99135 38.6491 6.30951Z" fill="#151515"/>
<path fill-rule="evenodd" clip-rule="evenodd" d="M36.1534 3.42209C37.2078 4.863 38.1249 6.49401 36.2722 8.03426C35.5531 6.87684 34.7249 4.43462 36.1534 3.42209Z" fill="#151515"/>
<path fill-rule="evenodd" clip-rule="evenodd" d="M30.9304 3.16597C31.666 2.92043 34.7411 3.91844 34.4872 6.28707C33.1261 6.20324 31.6367 5.18972 30.9304 3.16597Z" fill="#151515"/>
<path fill-rule="evenodd" clip-rule="evenodd" d="M31.5943 7.56065C32.9144 8.5745 34.0294 9.21443 35.8295 8.18836C35.1963 7.02699 33.2157 6.26429 31.5943 7.56065Z" fill="#151515"/>
<path fill-rule="evenodd" clip-rule="evenodd" d="M33.2187 9.57021C34.2903 10.8349 35.2424 11.691 37.223 11.061C36.8543 9.79463 35.0828 8.63886 33.2187 9.57021Z" fill="#151515"/>
<path fill-rule="evenodd" clip-rule="evenodd" d="M34.5519 11.9299C35.402 13.3471 36.2009 14.3424 38.2589 14.0335C38.103 12.7253 36.5446 11.3052 34.5519 11.9299Z" fill="#151515"/>
<path fill-rule="evenodd" clip-rule="evenodd" d="M35.3488 14.4814C35.9278 16.052 36.5335 17.189 38.6148 17.2196C38.6989 15.8744 37.4233 14.1827 35.3488 14.4814Z" fill="#151515"/>
<path fill-rule="evenodd" clip-rule="evenodd" d="M35.6353 17.1889C35.9571 18.8289 36.3739 20.0447 38.4252 20.3935C38.7228 19.0777 37.732 17.2117 35.6353 17.1889Z" fill="#151515"/>
<path fill-rule="evenodd" clip-rule="evenodd" d="M35.4854 19.7539C35.5104 21.4239 35.7046 22.6922 37.6623 23.3866C38.1895 22.142 37.5462 20.1348 35.4854 19.7539Z" fill="#151515"/>
<path fill-rule="evenodd" clip-rule="evenodd" d="M34.9519 22.2203C34.558 23.845 34.429 25.1212 36.1531 26.2651C36.9755 25.1853 36.854 23.085 34.9519 22.2203Z" fill="#151515"/>
<path fill-rule="evenodd" clip-rule="evenodd" d="M33.918 24.6608C33.2332 26.1902 32.873 27.4232 34.3597 28.8515C35.3666 27.9337 35.6312 25.846 33.918 24.6608Z" fill="#151515"/>
<path fill-rule="evenodd" clip-rule="evenodd" d="M32.2936 26.8344C31.3482 28.2238 30.7745 29.3763 31.9852 31.0364C33.1396 30.3043 33.7705 28.2935 32.2936 26.8344Z" fill="#151515"/>
<path fill-rule="evenodd" clip-rule="evenodd" d="M30.38 28.708C29.1959 29.9086 28.4209 30.9416 29.3084 32.7878C30.5779 32.2703 31.5664 30.403 30.38 28.708Z" fill="#151515"/>
<path fill-rule="evenodd" clip-rule="evenodd" d="M28.0529 30.0374C26.6679 31.238 25.7202 32.2713 26.2989 34.1172C27.7058 33.8248 28.9949 31.9063 28.0529 30.0374Z" fill="#151515"/>
<path fill-rule="evenodd" clip-rule="evenodd" d="M14.1528 1.55642L14.178 1.39471L14.2827 1.34817L14.5514 1.91219L14.447 1.9584C14.3265 1.80889 14.2107 1.7155 14.0999 1.67886C13.9891 1.6419 13.8844 1.64586 13.7845 1.69008C13.702 1.72672 13.6454 1.78051 13.6158 1.85147C13.5858 1.92176 13.5868 1.99173 13.6185 2.06038C13.6387 2.10427 13.6659 2.1376 13.6999 2.16071C13.7343 2.18414 13.7757 2.19701 13.8252 2.20031C13.8747 2.20295 13.9625 2.19107 14.0891 2.16434C14.273 2.12572 14.408 2.11021 14.4941 2.11648C14.5803 2.12341 14.6541 2.14751 14.7153 2.18975C14.7763 2.23166 14.8244 2.29074 14.8594 2.36665C14.9224 2.50295 14.9278 2.63694 14.8749 2.76829C14.8224 2.89964 14.7224 2.99832 14.5749 3.064C14.416 3.1343 14.2618 3.14453 14.1114 3.09436L14.0683 3.27621L13.9646 3.32208L13.6878 2.72242L13.7996 2.67291C13.9036 2.82209 14.0221 2.91846 14.1558 2.96334C14.2891 3.00822 14.414 3.00459 14.5302 2.95311C14.6231 2.91185 14.6864 2.85179 14.72 2.77225C14.7534 2.69272 14.7527 2.61483 14.717 2.53793C14.6975 2.49602 14.6695 2.46367 14.6339 2.44123C14.5978 2.41846 14.551 2.40691 14.4925 2.40559C14.4339 2.40427 14.3231 2.41945 14.1598 2.45146C13.9757 2.48678 13.841 2.49338 13.7565 2.4716C13.636 2.44024 13.5458 2.36004 13.4862 2.231C13.4249 2.09866 13.4182 1.97094 13.466 1.84685C13.5138 1.72342 13.6057 1.63134 13.7414 1.57094C13.806 1.54223 13.873 1.52639 13.942 1.52309C14.0114 1.51946 14.0817 1.53068 14.1531 1.55576L14.1528 1.55642ZM14.714 1.20527L15.4644 0.947186L15.5062 1.06402L15.3634 1.11319C15.3156 1.12969 15.2883 1.14421 15.2813 1.15676C15.2749 1.1693 15.2782 1.19405 15.2914 1.23035L15.698 2.36698C15.7125 2.40757 15.725 2.43001 15.7354 2.4343C15.7523 2.44189 15.7795 2.43925 15.8172 2.42638L15.9745 2.37226L16.0162 2.48909L15.2654 2.74717L15.2237 2.63067L15.3796 2.5772C15.4203 2.56301 15.4439 2.54948 15.4506 2.53628C15.457 2.52341 15.453 2.49668 15.4385 2.45641L15.0315 1.32012C15.0183 1.28382 15.0072 1.26368 14.9981 1.26005C14.9776 1.25345 14.9446 1.25774 14.8981 1.27359L14.7557 1.32243L14.714 1.20593V1.20527ZM15.8135 0.796363L16.2239 0.703294L17.4332 1.71022L17.2309 0.850817C17.2114 0.76798 17.1784 0.711545 17.1322 0.681182C17.0905 0.65412 17.0282 0.648839 16.9454 0.666331L16.9171 0.5462L17.5113 0.411547L17.5396 0.532008C17.4723 0.54719 17.4278 0.564021 17.407 0.583163C17.3861 0.601645 17.3706 0.631678 17.3605 0.673261C17.3501 0.714515 17.3504 0.757419 17.3612 0.802303L17.6564 2.05543L17.5251 2.08513L16.2697 1.03167L16.4852 1.94652C16.504 2.02638 16.5377 2.08117 16.5858 2.10955C16.634 2.13826 16.7084 2.14223 16.8084 2.1211L16.8366 2.2409L16.1889 2.38744L16.161 2.2683C16.2431 2.24651 16.2997 2.20988 16.33 2.15906C16.3606 2.1079 16.3687 2.0518 16.3542 1.99074L16.1095 0.951147L16.0906 0.938275C16.0502 0.909893 16.0233 0.894381 16.0105 0.891411C15.9903 0.887121 15.966 0.888111 15.9364 0.894711L15.8425 0.916163L15.8142 0.795702L15.8135 0.796363ZM19.0829 0.299337L19.1327 0.140923L19.2377 0.128712L19.3505 0.803623L19.2371 0.816824C19.165 0.636298 19.0984 0.510226 19.0378 0.43828C18.9196 0.344221 18.8021 0.303958 18.6846 0.317489C18.5573 0.33234 18.46 0.400986 18.3924 0.524088C18.3247 0.646859 18.3082 0.847187 18.3419 1.1254C18.3702 1.35939 18.425 1.52903 18.5068 1.63497C18.625 1.72969 18.7546 1.76896 18.8967 1.75246C19.0213 1.73794 19.1206 1.68678 19.196 1.59834C19.2711 1.50989 19.3121 1.37722 19.3189 1.20065L19.4391 1.18646C19.4407 1.39735 19.3916 1.56203 19.2913 1.68018C19.1906 1.79833 19.0546 1.86731 18.8829 1.88744C18.7438 1.90361 18.6125 1.88414 18.4883 1.82903C18.3644 1.77424 18.2597 1.68711 18.1756 1.56764C18.0911 1.44784 18.0395 1.31187 18.021 1.15973C18.0015 0.999001 18.0187 0.844217 18.0725 0.694713C18.1264 0.54554 18.2048 0.428379 18.3082 0.343561C18.4112 0.258744 18.528 0.208579 18.658 0.193398C18.7304 0.185147 18.8021 0.188777 18.8728 0.204949C18.9438 0.22145 19.0142 0.252803 19.0839 0.298677L19.0829 0.299337ZM19.739 0.10891L21.0732 0.0646859L21.1247 0.643229L21.0086 0.647189C20.9719 0.471283 20.9227 0.352472 20.8611 0.290756C20.7988 0.229371 20.7207 0.200328 20.6261 0.203629L20.3073 0.214189C20.2885 0.21485 20.2747 0.2198 20.2662 0.229371C20.2575 0.238612 20.2534 0.254453 20.2545 0.276235L20.2733 0.822435L20.3898 0.818475C20.4571 0.816164 20.511 0.790422 20.5524 0.741247C20.5931 0.691413 20.6137 0.608245 20.6137 0.491745L20.7342 0.487784L20.7611 1.26699L20.6406 1.27095C20.6319 1.14058 20.6056 1.05148 20.5601 1.00461C20.5154 0.957747 20.4558 0.935305 20.3821 0.937945L20.2774 0.941246L20.2986 1.55081C20.2989 1.56797 20.305 1.58051 20.3161 1.58843C20.3272 1.59669 20.348 1.60032 20.379 1.599L20.6305 1.59074C20.8894 1.58216 21.0338 1.40626 21.0638 1.06369L21.1853 1.05973L21.1783 1.69635L19.7959 1.74223L19.7915 1.6188L19.9255 1.61418C19.9629 1.61286 19.9878 1.60692 20.0006 1.5957C20.0134 1.58414 20.0191 1.56797 20.0185 1.5452L19.9747 0.285476C19.974 0.264684 19.9683 0.249503 19.9568 0.239932C19.9454 0.231021 19.9269 0.226731 19.8996 0.227721L19.7434 0.233001L19.739 0.10924V0.10891ZM23.3033 0.0115511L23.1067 1.63497C23.1047 1.65147 23.1117 1.66731 23.1272 1.68183C23.1393 1.69272 23.1609 1.70031 23.1918 1.70395L23.4736 1.73662L23.4558 1.88381L22.4586 1.76764L22.4768 1.62045L22.7205 1.64883C22.7579 1.65312 22.7858 1.64817 22.804 1.63398C22.8229 1.62045 22.8336 1.599 22.837 1.56995L22.9835 0.362373C22.9855 0.345871 22.9798 0.33069 22.9666 0.316499C22.9535 0.302638 22.9346 0.294057 22.9107 0.291417L22.5919 0.254453L22.6084 0.118151C22.7609 0.117161 22.8801 0.10693 22.9659 0.0887781C23.0521 0.0702964 23.1319 0.0405937 23.2053 0L23.3026 0.011221L23.3033 0.0115511ZM25.0119 1.25411C24.9671 1.32606 24.9001 1.37491 24.8112 1.40065C24.7227 1.42639 24.6301 1.42837 24.5331 1.40626C24.3978 1.37524 24.2867 1.30065 24.1985 1.18316C24.1103 1.06501 24.088 0.916493 24.1305 0.737287C24.1715 0.565011 24.2672 0.431349 24.417 0.337291C24.5664 0.242902 24.7264 0.21518 24.895 0.253793C25.0809 0.296367 25.2169 0.406597 25.3037 0.583823C25.3906 0.761709 25.4024 0.982499 25.3391 1.24784C25.2866 1.46698 25.2091 1.6452 25.1051 1.78282C25.0014 1.92011 24.8843 2.01384 24.7543 2.06335C24.6244 2.11285 24.489 2.12143 24.348 2.08909C24.2109 2.05774 24.1093 2.00262 24.0443 1.92342C23.979 1.84421 23.9567 1.76137 23.9776 1.67424C23.9914 1.61682 24.02 1.57358 24.0641 1.54487C24.1082 1.51616 24.1577 1.50824 24.2119 1.52078C24.2611 1.532 24.2991 1.55774 24.3261 1.59801C24.3527 1.63794 24.3604 1.68018 24.35 1.72441C24.3419 1.75807 24.3183 1.79008 24.2789 1.82111C24.2624 1.83398 24.2534 1.84487 24.2513 1.85411C24.2476 1.86929 24.255 1.88612 24.2739 1.90427C24.2927 1.92243 24.3308 1.93794 24.388 1.95114C24.4712 1.97028 24.5493 1.96467 24.6227 1.93431C24.6964 1.90361 24.7661 1.84025 24.8324 1.74289C24.8984 1.64553 24.9513 1.51154 24.9923 1.33992L25.0125 1.25345L25.0119 1.25411ZM24.8654 0.394056C24.7785 0.374254 24.6981 0.394056 24.624 0.453461C24.5503 0.513197 24.4947 0.618806 24.4584 0.77062C24.4254 0.909893 24.4294 1.0188 24.4705 1.09768C24.5116 1.17557 24.5772 1.2254 24.6678 1.24619C24.757 1.26666 24.8412 1.2485 24.921 1.19141C25.0001 1.13497 25.0553 1.04025 25.0873 0.907913C25.1196 0.77227 25.1125 0.65742 25.0664 0.564351C25.0199 0.470953 24.9533 0.414188 24.8657 0.394056H24.8654ZM26.4955 1.61385C26.6016 1.66698 26.6783 1.73827 26.7255 1.82969C26.7871 1.94751 26.7968 2.07193 26.7541 2.20229C26.7056 2.35146 26.6124 2.4541 26.4747 2.51054C26.3205 2.57522 26.1467 2.5772 25.9538 2.51681C25.8377 2.48051 25.7434 2.43034 25.6714 2.36599C25.5993 2.30196 25.5525 2.23001 25.5307 2.15114C25.5091 2.0716 25.5118 1.9914 25.5387 1.90922C25.5606 1.84223 25.596 1.79305 25.6448 1.76302C25.6936 1.73299 25.7458 1.72672 25.8007 1.74388C25.8512 1.75972 25.8862 1.78843 25.9064 1.83101C25.9266 1.87325 25.9279 1.92011 25.9107 1.97292C25.8993 2.00856 25.8815 2.03596 25.8572 2.05576C25.8333 2.07556 25.7993 2.09008 25.7552 2.09833C25.7239 2.10394 25.7071 2.11021 25.7047 2.11714C25.6983 2.13661 25.702 2.16401 25.7155 2.19767C25.7289 2.231 25.7559 2.26401 25.7959 2.29503C25.8357 2.32572 25.8926 2.35311 25.966 2.37622C26.0895 2.41483 26.1898 2.41384 26.2673 2.37325C26.3444 2.33298 26.405 2.24552 26.4487 2.1112C26.4945 1.97094 26.5023 1.86467 26.4713 1.79272C26.4407 1.72078 26.3764 1.66962 26.2787 1.63893C26.2531 1.63101 26.2178 1.62375 26.1727 1.61715C26.137 1.61154 26.1104 1.60626 26.0925 1.60065C26.0616 1.59074 26.0387 1.57556 26.0235 1.55477C26.0091 1.53365 26.006 1.51121 26.0141 1.48679C26.0222 1.46236 26.0377 1.44586 26.0606 1.43827C26.0835 1.42969 26.1101 1.43035 26.139 1.43959L26.2168 1.46731L26.2673 1.4858C26.3706 1.51781 26.4538 1.51748 26.5181 1.48448C26.5821 1.4518 26.6312 1.38283 26.6652 1.27755C26.7073 1.1485 26.7137 1.05016 26.6844 0.98349C26.6551 0.916493 26.5942 0.868639 26.5016 0.839926C26.4137 0.812534 26.341 0.805603 26.2831 0.819135C26.2245 0.832996 26.1929 0.848507 26.1868 0.866329C26.1828 0.87887 26.1888 0.897682 26.204 0.923424C26.2424 0.9924 26.2535 1.05181 26.237 1.1023C26.2238 1.14289 26.1972 1.17227 26.1582 1.19075C26.1185 1.2089 26.076 1.21088 26.0303 1.19669C25.9798 1.18085 25.9454 1.14949 25.9266 1.10362C25.9074 1.05775 25.9081 1.00362 25.9286 0.941576C25.9586 0.849497 26.0195 0.777881 26.1111 0.727716C26.2383 0.65775 26.3905 0.649829 26.5659 0.704944C26.7298 0.756099 26.847 0.841247 26.9174 0.959397C26.9881 1.07755 27.0025 1.20032 26.9608 1.32837C26.9305 1.42177 26.877 1.49372 26.8005 1.54487C26.7248 1.59603 26.6231 1.6188 26.4949 1.61418L26.4955 1.61385ZM28.1684 2.33397C28.1105 2.39635 28.0358 2.43199 27.9432 2.4409C27.8513 2.44981 27.76 2.43463 27.6691 2.3947C27.5422 2.33925 27.4473 2.24552 27.3833 2.11384C27.3193 1.9815 27.3261 1.83167 27.4025 1.66368C27.4759 1.50197 27.5954 1.38811 27.7607 1.32375C27.926 1.2584 28.088 1.26104 28.2462 1.33035C28.4202 1.40626 28.533 1.53992 28.5839 1.72969C28.6354 1.92044 28.6041 2.13958 28.4909 2.38843C28.3973 2.59404 28.2869 2.75476 28.1583 2.87027C28.03 2.98578 27.8971 3.05608 27.7597 3.08083C27.6223 3.10558 27.488 3.08908 27.3554 3.031C27.2268 2.97489 27.1375 2.90195 27.0891 2.81219C27.0403 2.72242 27.0345 2.63661 27.0716 2.55509C27.0961 2.5013 27.1325 2.46433 27.1813 2.44387C27.2301 2.42407 27.2803 2.42506 27.3311 2.4475C27.3773 2.46763 27.4096 2.49998 27.4281 2.54453C27.4466 2.58876 27.4463 2.63166 27.4271 2.67291C27.4126 2.7046 27.3833 2.73166 27.3389 2.75476C27.3204 2.76433 27.3092 2.77324 27.3052 2.78182C27.2988 2.79601 27.3025 2.81417 27.3177 2.83562C27.3325 2.85674 27.3672 2.87918 27.4207 2.90261C27.4988 2.93661 27.5766 2.94585 27.6547 2.92968C27.7328 2.91318 27.8136 2.86367 27.8974 2.7805C27.9809 2.69734 28.059 2.57522 28.1321 2.4145L28.1684 2.33364V2.33397ZM28.1903 1.46236C28.1092 1.42672 28.026 1.43134 27.9422 1.47589C27.858 1.52078 27.7833 1.61451 27.7183 1.75675C27.659 1.88744 27.6422 1.99503 27.6671 2.07985C27.6924 2.16434 27.7472 2.22506 27.8321 2.26203C27.9159 2.29866 28.0021 2.29668 28.0913 2.25543C28.1799 2.2145 28.2522 2.13199 28.3088 2.00757C28.3667 1.88051 28.3819 1.76632 28.3546 1.66665C28.327 1.56632 28.2728 1.49834 28.19 1.46236H28.1903Z" fill="#151515"/>
</g>
<defs>
<clipPath id="clip0">
<rect width="42" height="37" fill="white"/>
</clipPath>
</defs>
</svg>
